{"glyphs":{"0":{"ha":1154,"x_min":61,"x_max":1342,"o":"m 329 -8 q 112 57 166 -8 q 96 270 61 119 l 241 897 q 355 1085 270 1023 q 596 1146 440 1146 l 1076 1146 q 1213 1131 1158 1146 q 1300 1085 1269 1116 q 1337 1007 1331 1054 q 1328 897 1342 960 l 1183 270 q 1065 56 1147 117 q 809 -8 982 -8 l 329 -8 m 720 799 l 611 329 q 609 272 602 287 q 636 257 616 257 q 671 272 656 257 q 695 329 685 287 l 803 799 q 778 872 820 872 q 744 857 759 872 q 720 799 730 841 z "},"1":{"ha":655,"x_min":127,"x_max":883,"o":"m 127 -8 l 294 712 l 198 712 l 296 1136 l 883 1136 l 619 -8 l 127 -8 z "},"2":{"ha":1133,"x_min":32,"x_max":1335,"o":"m 32 -8 l 90 242 l 731 706 q 767 743 752 722 q 787 787 782 764 q 790 841 796 826 q 766 856 784 856 q 734 841 750 856 q 711 796 718 825 l 694 721 l 200 721 l 246 918 q 360 1079 270 1022 q 596 1136 449 1136 l 1062 1136 q 1273 1079 1210 1136 q 1311 918 1335 1022 l 1267 727 q 1222 606 1250 653 q 1140 521 1193 560 l 780 262 l 1160 262 l 1098 -8 l 32 -8 z "},"3":{"ha":1125,"x_min":59,"x_max":1326,"o":"m 1147 244 q 1032 54 1118 116 q 792 -8 946 -8 l 329 -8 q 120 51 181 -8 q 83 215 59 109 l 131 419 l 624 419 l 606 340 q 603 283 596 298 q 627 268 609 268 q 658 282 645 268 q 682 340 672 297 l 697 406 q 654 478 714 478 l 538 478 l 601 751 l 710 751 q 793 820 777 751 q 791 866 800 850 q 768 883 781 883 q 736 867 752 883 q 712 822 719 851 l 705 792 l 217 792 l 245 914 q 358 1078 269 1020 q 593 1136 448 1136 l 1056 1136 q 1264 1078 1202 1136 q 1302 914 1326 1020 l 1285 840 q 1207 695 1264 751 q 1064 612 1149 638 q 1123 584 1090 605 q 1172 532 1156 563 q 1187 456 1187 500 q 1173 352 1186 412 l 1147 244 z "},"4":{"ha":1255,"x_min":84,"x_max":1335,"o":"m 586 491 l 688 491 l 740 716 l 586 491 m 573 -8 l 624 216 l 84 216 l 139 455 l 614 1137 l 1332 1137 l 1183 491 l 1335 491 l 1271 216 l 1120 216 l 1068 -8 l 573 -8 z "},"5":{"ha":1116,"x_min":58,"x_max":1344,"o":"m 608 368 q 606 315 599 329 q 630 300 613 300 q 662 314 649 300 q 685 368 676 328 l 709 471 q 711 526 718 512 q 686 539 704 539 l 158 539 l 296 1136 l 1344 1136 l 1284 875 l 724 875 l 711 819 l 958 821 q 1178 756 1114 821 q 1213 565 1242 691 l 1146 277 q 1023 51 1108 111 q 786 -8 939 -8 l 326 -8 q 119 48 181 -8 q 81 204 58 103 l 131 419 l 620 419 l 608 368 z "},"6":{"ha":1120,"x_min":59,"x_max":1326,"o":"m 691 732 q 802 733 738 733 q 931 733 865 733 q 1193 465 1255 733 l 1141 241 q 1027 53 1112 115 q 788 -8 942 -8 l 328 -8 q 120 50 181 -8 q 83 213 59 107 l 250 934 q 361 1098 274 1040 q 596 1155 449 1155 l 1057 1155 q 1264 1098 1203 1155 q 1301 934 1326 1040 l 1266 780 l 778 780 l 787 820 q 785 865 794 850 q 761 880 777 880 q 731 864 744 880 q 706 797 718 848 l 691 732 m 677 330 l 689 380 q 664 444 704 444 q 633 430 646 444 q 611 377 620 415 l 600 330 q 623 266 585 266 q 677 330 663 266 z "},"7":{"ha":1060,"x_min":32,"x_max":1288,"o":"m 32 -8 l 670 862 l 237 862 l 300 1136 l 1288 1136 l 1218 834 l 598 -8 l 32 -8 z "},"8":{"ha":1117,"x_min":61,"x_max":1323,"o":"m 722 879 l 706 810 q 703 752 696 768 q 728 736 710 736 q 761 751 746 736 q 785 810 775 766 l 801 879 q 804 939 811 923 q 779 955 797 955 q 746 939 761 955 q 722 879 732 924 m 1140 244 q 1024 54 1110 116 q 783 -8 938 -8 l 330 -8 q 118 54 175 -8 q 90 244 61 116 l 115 352 q 149 457 129 413 q 199 532 169 500 q 272 585 230 565 q 343 612 315 605 q 239 694 271 638 q 228 840 207 750 l 250 934 q 363 1098 274 1040 q 599 1157 453 1157 l 1052 1157 q 1261 1098 1199 1157 q 1299 934 1323 1040 l 1277 840 q 1199 695 1257 751 q 1056 612 1141 638 q 1115 584 1082 605 q 1164 532 1148 563 q 1179 456 1180 500 q 1165 352 1179 412 l 1140 244 m 606 369 l 590 299 q 588 242 581 258 q 613 226 594 226 q 670 299 653 226 l 686 369 q 689 429 696 413 q 664 445 681 445 q 631 430 645 445 q 606 369 617 414 z "},"9":{"ha":1120,"x_min":59,"x_max":1326,"o":"m 693 416 q 583 415 647 415 q 453 415 520 415 q 192 683 130 415 l 243 906 q 357 1094 272 1033 q 596 1155 443 1155 l 1057 1155 q 1265 1098 1204 1155 q 1301 934 1326 1040 l 1135 213 q 1023 50 1111 107 q 788 -8 936 -8 l 328 -8 q 120 50 182 -8 q 83 213 59 107 l 119 368 l 606 368 l 597 327 q 599 282 590 297 q 624 268 608 268 q 653 284 641 268 q 678 351 666 300 l 693 416 m 707 818 l 695 767 q 720 704 681 704 q 752 718 738 704 q 774 770 765 732 l 785 818 q 761 881 800 881 q 707 818 722 881 z "}," ":{"ha":271,"x_min":0,"x_max":0,"o":""},"!":{"ha":513,"x_min":110,"x_max":740,"o":"m 567 384 l 124 384 l 296 1136 l 740 1136 l 567 384 m 326 304 q 436 254 398 304 q 456 147 471 209 q 385 39 442 85 q 254 -10 325 -10 q 146 37 182 -10 q 124 147 110 84 q 198 257 138 209 q 326 304 256 304 z "},"\"":{"ha":660,"x_min":249,"x_max":951,"o":"m 646 1409 l 535 930 l 249 930 l 359 1409 l 646 1409 m 951 1409 l 841 930 l 554 930 l 664 1409 l 951 1409 z "},"#":{"ha":1617,"x_min":87,"x_max":1759,"o":"m 1066 557 l 873 557 l 779 429 l 972 429 l 1066 557 m 1205 1006 l 1025 757 l 1206 757 l 1387 1006 l 1695 1006 l 1515 757 l 1759 757 l 1608 557 l 1369 557 l 1276 429 l 1522 429 l 1371 229 l 1129 229 l 948 -20 l 639 -20 l 822 229 l 641 229 l 458 -20 l 150 -20 l 331 229 l 87 229 l 236 429 l 477 429 l 568 557 l 323 557 l 472 757 l 718 757 l 897 1006 l 1205 1006 z "},"$":{"ha":1135,"x_min":59,"x_max":1336,"o":"m 680 -9 l 658 -100 l 427 -100 l 448 -9 l 332 -9 q 121 50 183 -9 q 83 214 59 108 l 132 426 l 629 426 l 609 338 q 605 281 599 296 q 631 267 612 267 q 664 283 649 267 q 691 350 679 300 q 696 385 695 371 q 692 409 697 399 q 676 427 688 419 q 643 444 665 435 l 357 568 q 227 664 256 613 q 219 802 199 716 l 245 913 q 359 1078 269 1019 q 596 1136 449 1136 l 712 1136 l 733 1229 l 965 1229 l 944 1136 l 1062 1136 q 1274 1078 1211 1136 q 1312 913 1336 1019 l 1279 772 l 785 772 l 790 794 q 764 862 806 862 q 735 852 748 862 q 717 821 722 842 q 715 802 714 809 q 722 788 716 794 q 740 773 727 781 q 776 755 753 766 l 1106 605 q 1161 567 1140 588 q 1191 518 1182 547 q 1198 450 1200 489 q 1183 358 1195 411 l 1157 243 q 1040 53 1127 115 q 798 -9 954 -9 l 680 -9 z "},"%":{"ha":1287,"x_min":18,"x_max":1514,"o":"m 1514 1278 l 190 -69 l 18 -69 l 1342 1278 l 1514 1278 m 396 690 q 302 720 326 690 q 295 806 281 745 l 352 1055 q 401 1133 364 1106 q 505 1160 438 1160 l 695 1160 q 754 1153 730 1160 q 792 1133 779 1146 q 808 1100 806 1119 q 805 1055 810 1080 l 747 806 q 699 719 733 744 q 587 690 662 690 l 396 690 m 563 1016 l 520 829 q 518 810 516 813 q 521 806 520 806 q 526 810 523 806 q 533 829 529 813 l 576 1016 q 575 1040 582 1040 q 570 1037 574 1040 q 563 1016 567 1033 m 947 81 q 853 111 877 81 q 846 197 832 136 l 904 446 q 952 524 916 497 q 1056 551 989 551 l 1247 551 q 1306 544 1281 551 q 1344 524 1330 537 q 1359 491 1357 510 q 1356 446 1362 471 l 1298 197 q 1250 110 1284 135 q 1138 81 1213 81 l 947 81 m 1114 407 l 1071 220 q 1069 201 1067 204 q 1072 197 1071 197 q 1077 201 1074 197 q 1084 220 1080 204 l 1127 407 q 1126 431 1133 431 q 1122 428 1125 431 q 1114 407 1118 424 z "},"&":{"ha":1375,"x_min":60,"x_max":1517,"o":"m 1203 760 l 1197 731 q 1172 672 1187 690 q 1151 661 1163 663 q 966 625 1054 663 q 773 394 812 559 q 772 385 773 393 l 760 333 q 735 275 751 293 q 698 261 726 264 l 698 262 l 636 262 l 637 265 q 612 262 611 262 q 589 274 595 262 q 591 333 581 291 l 606 399 q 681 470 622 470 l 795 470 l 857 738 l 749 738 q 700 806 684 738 q 726 853 706 835 q 752 867 739 867 q 775 854 768 867 q 779 807 786 836 l 772 778 l 1131 778 l 1163 918 q 1126 1078 1186 1021 q 921 1136 1064 1136 l 589 1136 q 356 1078 445 1136 q 246 918 270 1022 l 224 825 q 235 683 204 738 q 337 601 267 627 q 268 574 309 594 q 195 521 225 553 q 146 447 166 491 q 114 346 127 404 l 89 239 q 118 51 60 113 q 325 -8 173 -8 l 826 -8 q 1059 50 971 -8 q 1168 210 1144 106 l 1210 391 q 1317 409 1250 385 q 1482 608 1447 455 l 1517 760 l 1203 760 z "},"'":{"ha":355,"x_min":249,"x_max":646,"o":"m 646 1409 l 535 930 l 249 930 l 359 1409 l 646 1409 z "},"(":{"ha":748,"x_min":-1,"x_max":1040,"o":"m 1040 1411 l 984 1170 l 886 1170 q 834 1167 852 1170 q 807 1157 816 1164 q 790 1136 797 1151 q 777 1096 783 1121 l 535 47 q 529 7 529 22 q 536 -14 530 -8 q 559 -24 543 -21 q 610 -26 576 -26 l 708 -26 l 652 -269 l 313 -269 q 73 -210 146 -269 q 23 -46 -1 -152 l 308 1189 q 434 1353 333 1295 q 701 1411 534 1411 l 1040 1411 z "},")":{"ha":748,"x_min":-28,"x_max":1014,"o":"m 700 1411 q 940 1353 866 1411 q 989 1189 1014 1295 l 704 -46 q 578 -210 679 -152 q 312 -269 478 -269 l -28 -269 l 28 -26 l 126 -26 q 178 -24 160 -26 q 206 -14 196 -21 q 222 7 215 -8 q 235 47 230 22 l 477 1096 q 483 1136 483 1121 q 476 1157 482 1151 q 453 1167 470 1164 q 402 1170 436 1170 l 304 1170 l 360 1411 l 700 1411 z "},"*":{"ha":517,"x_min":256,"x_max":731,"o":"m 467 1170 l 481 1231 l 610 1231 l 595 1170 l 653 1216 l 718 1131 l 648 1074 l 731 1074 l 705 962 l 626 962 l 666 910 l 562 825 l 526 870 l 512 806 l 383 806 l 398 871 l 335 820 l 270 905 l 340 962 l 256 962 l 282 1074 l 370 1074 l 326 1131 l 431 1216 l 467 1170 z "},"+":{"ha":734,"x_min":133,"x_max":863,"o":"m 320 428 l 133 428 l 196 702 l 384 702 l 427 889 l 718 889 l 674 702 l 863 702 l 799 428 l 611 428 l 568 240 l 277 240 l 320 428 z "},",":{"ha":398,"x_min":53,"x_max":412,"o":"m 153 -10 q 86 36 121 -8 q 67 143 53 81 q 136 251 81 205 q 267 300 197 300 q 375 254 339 300 q 397 143 412 205 q 367 78 389 107 q 355 64 363 72 q 323 33 343 49 q 315 34 348 53 l 298 11 q 76 -74 253 -28 l 88 -31 q 153 -10 139 -17 z "},"-":{"ha":734,"x_min":133,"x_max":863,"o":"m 196 702 l 863 702 l 799 428 l 133 428 l 196 702 z "},".":{"ha":393,"x_min":54,"x_max":407,"o":"m 266 300 q 373 251 335 300 q 393 146 407 207 q 320 38 379 86 q 194 -7 264 -7 q 89 39 124 -7 q 68 146 54 85 q 136 251 82 207 q 266 300 196 300 z "},"/":{"ha":817,"x_min":5,"x_max":1071,"o":"m 733 1249 l 1071 1249 l 343 -123 l 5 -123 l 733 1249 z "},":":{"ha":393,"x_min":91,"x_max":575,"o":"m 302 460 q 410 411 372 460 q 430 307 444 367 q 357 198 416 246 q 231 153 301 153 q 126 199 161 153 q 105 307 91 245 q 173 411 119 367 q 302 460 233 460 m 434 1029 q 541 981 504 1029 q 562 876 575 937 q 488 767 547 815 q 363 722 433 722 q 258 768 293 722 q 236 876 222 814 q 305 981 250 937 q 434 1029 365 1029 z "},";":{"ha":393,"x_min":98,"x_max":575,"o":"m 434 1029 q 541 981 504 1029 q 562 876 575 937 q 488 767 547 815 q 363 722 433 722 q 258 768 293 722 q 236 876 222 814 q 305 981 250 937 q 434 1029 365 1029 m 192 161 q 130 204 163 163 q 112 307 98 248 q 177 408 125 365 q 302 455 236 455 q 405 411 371 455 q 426 307 439 366 q 397 244 418 273 q 387 231 394 239 q 349 204 375 217 q 348 203 348 203 l 330 180 q 121 100 290 144 l 132 142 q 192 161 180 155 z "},"<":{"ha":725,"x_min":143,"x_max":914,"o":"m 853 703 l 529 574 l 794 445 l 733 184 l 143 475 l 190 674 l 914 965 l 853 703 z "},"=":{"ha":734,"x_min":100,"x_max":896,"o":"m 163 558 l 830 558 l 766 284 l 100 284 l 163 558 m 229 845 l 896 845 l 832 571 l 166 571 l 229 845 z "},">":{"ha":725,"x_min":76,"x_max":847,"o":"m 256 965 l 847 674 l 801 475 l 76 184 l 137 445 l 461 574 l 196 703 l 256 965 z "},"?":{"ha":1033,"x_min":216,"x_max":1238,"o":"m 1216 939 l 1182 790 q 1160 724 1173 750 q 1128 676 1147 698 q 981 601 1097 644 q 854 497 865 559 l 830 394 l 335 394 q 526 693 377 608 q 683 791 675 778 q 698 832 692 804 q 698 879 706 867 q 668 892 689 892 q 612 839 624 892 l 600 787 l 216 787 l 251 939 q 361 1085 272 1033 q 600 1136 450 1136 l 959 1136 q 1172 1085 1106 1136 q 1216 939 1238 1033 m 562 304 q 671 254 633 304 q 691 147 706 209 q 620 39 677 85 q 489 -10 560 -10 q 381 37 417 -10 q 359 147 345 84 q 433 257 374 209 q 562 304 491 304 z "},"@":{"ha":1739,"x_min":33,"x_max":1942,"o":"m 990 337 l 957 327 q 903 300 920 315 q 877 247 885 282 l 873 230 q 905 175 860 175 q 942 185 928 175 q 965 230 958 197 l 990 337 m 1892 1079 q 1916 912 1942 1025 l 1761 241 q 1659 51 1730 106 q 1436 -8 1583 -8 l 1332 -8 l 1333 -5 l 1355 -5 l 1354 -8 l 686 -8 q 478 49 538 -11 q 443 271 415 111 q 803 522 498 487 l 1036 523 l 1049 583 q 1048 629 1057 617 q 1017 637 1040 637 q 980 625 995 637 q 961 583 968 615 l 953 548 l 521 548 l 536 613 q 572 703 548 665 q 635 760 594 736 q 735 793 676 783 q 869 803 791 803 l 1252 803 q 1381 793 1330 803 q 1463 762 1436 783 q 1502 701 1496 735 q 1497 613 1509 663 l 1409 231 l 1405 231 q 1429 240 1420 231 q 1453 294 1444 256 l 1549 713 q 1562 825 1567 788 q 1489 889 1553 889 l 677 889 q 575 825 613 889 q 536 713 553 788 l 369 -10 l 33 -6 l 244 912 q 346 1080 271 1026 q 563 1136 424 1136 l 659 1136 l 659 1136 l 1598 1136 l 1598 1136 l 1701 1136 q 1892 1079 1840 1136 z "},"A":{"ha":1217,"x_min":32,"x_max":1226,"o":"m 691 502 l 756 502 l 780 748 l 691 502 m 32 -8 l 515 1136 l 1226 1136 l 1181 -8 l 686 -8 l 714 236 l 609 236 l 526 -8 l 32 -8 z "},"B":{"ha":1142,"x_min":32,"x_max":1323,"o":"m 725 863 l 692 720 l 726 720 q 766 734 751 720 q 791 791 782 749 q 794 850 802 836 q 759 863 787 863 l 725 863 m 588 268 l 621 268 q 663 281 649 268 q 687 339 677 294 l 698 386 q 700 443 708 429 q 665 457 693 457 l 632 457 l 588 268 m 32 -8 l 296 1137 l 1055 1137 q 1196 1121 1139 1137 q 1283 1070 1253 1104 q 1318 983 1313 1036 q 1306 860 1323 931 q 1220 685 1280 747 q 1078 604 1160 622 q 1179 511 1149 586 q 1175 291 1208 436 q 1051 61 1138 130 q 791 -8 964 -8 l 32 -8 z "},"C":{"ha":1131,"x_min":61,"x_max":1333,"o":"m 1207 477 l 1153 244 q 1111 132 1138 179 q 1040 53 1084 85 q 934 7 995 22 q 792 -8 872 -8 l 323 -8 q 116 54 171 -8 q 90 244 61 116 l 236 874 q 280 1000 253 948 q 349 1086 307 1052 q 452 1136 392 1121 q 591 1152 512 1152 l 1060 1152 q 1200 1136 1143 1152 q 1282 1087 1257 1121 q 1298 874 1333 1024 l 1262 718 l 771 718 l 792 808 q 795 866 802 851 q 768 881 787 881 q 735 866 749 881 q 711 808 721 850 l 603 338 q 600 280 593 296 q 626 265 607 265 q 684 338 667 265 l 716 477 l 1207 477 z "},"D":{"ha":1142,"x_min":32,"x_max":1327,"o":"m 587 267 l 621 267 q 663 280 649 267 q 687 339 676 294 l 791 790 q 794 849 802 836 q 759 862 786 862 l 725 862 l 587 267 m 32 -8 l 296 1136 l 1062 1136 q 1199 1121 1143 1136 q 1285 1075 1255 1106 q 1321 996 1316 1044 q 1312 885 1327 949 l 1171 272 q 1055 57 1135 120 q 947 7 1013 23 q 798 -8 882 -8 l 32 -8 z "},"E":{"ha":1003,"x_min":32,"x_max":1231,"o":"m 32 -8 l 296 1136 l 1231 1136 l 1168 862 l 722 862 l 684 702 l 1089 702 l 1026 428 l 621 428 l 584 266 l 1030 266 l 967 -8 l 32 -8 z "},"F":{"ha":1003,"x_min":32,"x_max":1231,"o":"m 32 -8 l 296 1136 l 1231 1136 l 1168 862 l 722 862 l 684 702 l 1089 702 l 1026 428 l 621 428 l 521 -7 l 32 -8 z "},"G":{"ha":1139,"x_min":79,"x_max":1321,"o":"m 698 399 l 635 399 l 697 667 l 1252 667 l 1147 209 q 880 -8 1103 -8 l 567 -8 l 323 -8 q 191 7 244 -8 q 112 58 138 23 q 82 145 85 93 q 96 271 79 197 l 242 903 q 355 1091 272 1031 q 591 1152 439 1152 l 1061 1152 q 1196 1137 1141 1152 q 1281 1092 1251 1123 q 1316 1014 1311 1061 q 1306 903 1321 967 l 1278 781 l 785 781 l 792 807 q 795 815 793 810 q 797 822 797 820 q 794 866 804 852 q 768 881 785 881 q 736 865 750 881 q 712 807 722 850 l 604 338 q 600 280 593 295 q 626 266 607 266 q 660 280 646 266 q 684 338 674 295 l 698 399 z "},"H":{"ha":1133,"x_min":32,"x_max":1361,"o":"m 32 -8 l 296 1136 l 787 1136 l 699 754 l 782 754 l 870 1136 l 1361 1136 l 1097 -8 l 606 -8 l 719 480 l 636 480 l 523 -8 l 32 -8 z "},"I":{"ha":560,"x_min":32,"x_max":788,"o":"m 32 -8 l 296 1136 l 788 1136 l 524 -8 l 32 -8 z "},"J":{"ha":1133,"x_min":78,"x_max":1361,"o":"m 1361 1136 l 1160 262 q 1042 47 1124 110 q 785 -17 960 -17 l 329 -17 q 194 -1 248 -17 q 112 50 139 15 q 81 137 84 85 q 95 262 78 189 l 146 484 l 630 484 l 594 329 q 592 272 584 287 q 618 257 600 257 q 654 272 640 257 q 679 329 669 287 l 865 1136 l 1361 1136 z "},"K":{"ha":1200,"x_min":32,"x_max":1418,"o":"m 32 -8 l 296 1136 l 788 1136 l 705 774 l 908 1136 l 1418 1136 l 1112 604 l 1164 -8 l 659 -8 l 621 410 l 524 -8 l 32 -8 z "},"L":{"ha":837,"x_min":32,"x_max":865,"o":"m 32 -8 l 296 1136 l 785 1136 l 584 266 l 865 266 l 801 -8 l 32 -8 z "},"M":{"ha":1689,"x_min":32,"x_max":1918,"o":"m 684 -8 l 644 511 l 524 -8 l 32 -8 l 296 1136 l 978 1136 l 1009 716 l 1234 1136 l 1918 1136 l 1653 -8 l 1160 -8 l 1280 510 l 1001 -8 l 684 -8 z "},"N":{"ha":1261,"x_min":32,"x_max":1489,"o":"m 32 -8 l 296 1136 l 825 1136 l 903 742 l 994 1136 l 1489 1136 l 1225 -8 l 718 -8 l 632 450 l 526 -8 l 32 -8 z "},"O":{"ha":1160,"x_min":78,"x_max":1347,"o":"m 722 799 l 614 329 q 611 272 604 287 q 638 257 618 257 q 673 272 659 257 q 698 329 688 287 l 806 799 q 781 872 823 872 q 746 857 761 872 q 722 799 732 841 m 329 -17 q 194 -1 248 -17 q 112 50 139 15 q 81 137 84 85 q 95 262 78 189 l 240 895 q 355 1083 270 1022 q 596 1143 441 1143 l 1079 1143 q 1217 1129 1161 1143 q 1305 1084 1274 1115 q 1341 1005 1336 1052 q 1332 895 1347 958 l 1186 262 q 1070 48 1152 112 q 962 -1 1028 14 q 811 -17 897 -17 l 329 -17 z "},"P":{"ha":1147,"x_min":32,"x_max":1332,"o":"m 773 865 l 728 865 l 659 565 l 702 565 q 741 579 726 565 q 766 637 756 594 l 802 792 q 804 850 812 836 q 773 865 795 865 m 32 -8 l 296 1136 l 1066 1136 q 1204 1121 1148 1136 q 1290 1075 1260 1106 q 1327 996 1321 1044 q 1317 885 1332 949 l 1245 574 q 1128 358 1210 419 q 871 293 1044 293 l 596 293 l 526 -8 l 32 -8 z "},"Q":{"ha":1139,"x_min":77,"x_max":1327,"o":"m 712 799 l 604 329 q 601 272 594 287 q 629 257 608 257 q 663 272 649 257 q 688 329 678 287 l 796 799 q 770 872 813 872 q 736 857 750 872 q 712 799 722 841 m 330 -14 l 319 -14 q 189 1 241 -14 q 111 50 137 16 q 81 136 84 84 q 94 262 77 189 l 240 895 q 353 1081 270 1023 q 585 1140 435 1140 l 1068 1140 q 1202 1126 1148 1140 q 1286 1083 1256 1113 q 1321 1006 1315 1053 q 1312 895 1327 959 l 1166 262 q 1050 48 1131 111 q 948 1 1010 16 q 802 -17 885 -14 l 802 -17 l 755 -220 l 282 -220 l 330 -14 z "},"R":{"ha":1147,"x_min":32,"x_max":1332,"o":"m 773 865 l 728 865 l 659 565 l 702 565 q 741 579 726 565 q 766 637 756 594 l 802 792 q 804 850 812 836 q 773 865 795 865 m 596 296 l 526 -8 l 32 -8 l 296 1136 l 1066 1136 q 1204 1121 1148 1136 q 1290 1075 1260 1106 q 1327 996 1321 1044 q 1317 885 1332 949 l 1245 574 q 1128 358 1210 419 q 1106 342 1114 347 q 1109 -8 1193 231 l 660 -8 q 596 296 781 329 z "},"S":{"ha":1168,"x_min":58,"x_max":1371,"o":"m 341 -9 q 123 47 189 -9 q 89 227 58 103 l 136 433 l 647 433 l 627 348 q 652 278 611 278 q 686 294 671 278 q 712 354 701 309 q 719 396 718 380 q 715 423 720 413 q 699 442 710 434 q 664 459 687 450 l 371 578 q 232 672 261 622 q 223 806 203 723 l 250 923 q 364 1081 273 1026 q 608 1136 455 1136 l 1087 1136 q 1305 1081 1240 1136 q 1347 923 1371 1026 l 1316 786 l 808 786 l 813 807 q 784 873 828 873 q 755 862 769 873 q 735 828 741 851 q 733 808 732 815 q 739 793 733 800 q 758 779 745 787 q 795 761 771 771 l 1138 615 q 1195 579 1173 600 q 1227 531 1217 559 q 1235 465 1237 503 q 1221 376 1233 427 l 1193 255 q 1069 51 1157 110 q 821 -9 981 -9 l 341 -9 z "},"T":{"ha":1075,"x_min":233,"x_max":1303,"o":"m 279 -8 l 480 862 l 233 862 l 296 1136 l 1303 1136 l 1240 862 l 993 862 l 792 -8 l 279 -8 z "},"U":{"ha":1160,"x_min":78,"x_max":1391,"o":"m 886 1143 l 1391 1143 l 1332 895 l 1186 262 q 1070 48 1152 112 q 962 -1 1028 14 q 811 -17 897 -17 l 329 -17 q 194 -1 248 -17 q 112 50 139 15 q 81 137 84 85 q 95 262 78 189 l 298 1143 l 596 1143 l 802 1143 l 614 329 q 611 272 604 287 q 638 257 618 257 q 673 272 659 257 q 698 329 688 287 l 886 1143 z "},"V":{"ha":1184,"x_min":278,"x_max":1413,"o":"m 278 -8 l 296 1137 l 791 1137 l 723 565 l 918 1137 l 1413 1137 l 904 -8 l 278 -8 z "},"W":{"ha":1710,"x_min":273,"x_max":1938,"o":"m 1301 1137 l 1277 712 l 1445 1137 l 1938 1137 l 1432 -8 l 936 -8 l 946 396 l 769 -8 l 273 -8 l 296 1137 l 789 1137 l 761 712 l 933 1137 l 1301 1137 z "},"X":{"ha":1180,"x_min":32,"x_max":1400,"o":"m 32 -8 l 344 567 l 304 1136 l 790 1136 l 794 882 l 916 1136 l 1400 1136 l 1100 567 l 1144 -8 l 663 -8 l 664 318 l 515 -8 l 32 -8 z "},"Y":{"ha":1264,"x_min":296,"x_max":1493,"o":"m 381 -8 l 481 427 l 296 1137 l 784 1137 l 839 895 l 1006 1137 l 1493 1137 l 980 427 l 880 -8 l 381 -8 z "},"Z":{"ha":994,"x_min":32,"x_max":1223,"o":"m 1223 1137 l 1166 892 l 686 266 l 1022 266 l 959 -8 l 32 -8 l 90 243 l 568 863 l 263 863 l 327 1137 l 1223 1137 z "},"[":{"ha":744,"x_min":-28,"x_max":1036,"o":"m -28 -269 l 359 1409 l 1036 1409 l 980 1165 l 792 1165 l 517 -25 l 705 -25 l 648 -269 l -28 -269 z "},"\\":{"ha":817,"x_min":322,"x_max":754,"o":"m 754 -123 l 417 -123 l 322 1249 l 660 1249 l 754 -123 z "},"]":{"ha":744,"x_min":-28,"x_max":1036,"o":"m -28 -269 l 28 -25 l 216 -25 l 491 1165 l 303 1165 l 359 1409 l 1036 1409 l 648 -269 l -28 -269 z "},"^":{"ha":666,"x_min":292,"x_max":891,"o":"m 806 1415 l 891 1119 l 629 1119 l 608 1191 l 554 1119 l 292 1119 l 514 1415 l 806 1415 z "},"_":{"ha":734,"x_min":-48,"x_max":682,"o":"m 15 -83 l 682 -83 l 618 -357 l -48 -357 l 15 -83 z "},"`":{"ha":476,"x_min":381,"x_max":723,"o":"m 634 1503 l 723 1214 l 470 1214 l 381 1503 l 634 1503 z "},"a":{"ha":1156,"x_min":73,"x_max":1294,"o":"m 695 257 l 723 379 l 682 367 q 620 335 640 353 q 591 277 601 316 l 587 257 q 625 195 573 195 q 669 208 652 195 q 695 257 687 221 m 767 583 l 783 652 q 782 703 792 691 q 745 715 772 715 q 703 702 719 715 q 680 652 688 689 l 671 615 l 191 615 l 208 687 q 247 784 221 744 q 318 851 273 825 q 428 888 363 877 q 579 899 492 899 l 1007 899 q 1153 888 1094 899 q 1246 850 1213 877 q 1286 783 1279 823 q 1281 687 1294 743 l 1120 -8 l 374 -8 q 141 57 210 -11 q 104 303 73 125 q 506 583 190 575 l 767 583 z "},"b":{"ha":1161,"x_min":67,"x_max":1300,"o":"m 587 234 q 621 176 574 176 q 681 234 668 176 l 774 635 q 773 681 782 670 q 740 692 764 692 q 680 635 693 692 l 587 234 m 735 898 l 1013 898 q 1159 887 1100 898 q 1251 851 1218 876 q 1293 786 1285 825 q 1288 693 1300 747 l 1174 198 q 1135 104 1161 143 q 1064 39 1110 65 q 955 3 1019 14 q 803 -8 890 -8 l 353 -8 q 207 2 266 -8 q 115 38 148 13 q 74 103 82 63 q 80 198 67 142 l 296 1136 l 790 1136 l 735 898 z "},"c":{"ha":1161,"x_min":67,"x_max":1298,"o":"m 1174 200 q 1135 103 1160 143 q 1064 37 1109 64 q 954 0 1018 11 q 802 -11 889 -11 l 352 -11 q 206 0 265 -11 q 114 37 147 11 q 74 103 81 62 q 80 200 67 143 l 192 685 q 301 848 218 800 q 411 885 345 872 q 512 893 444 890 q 684 896 579 896 l 1012 896 q 1158 885 1099 896 q 1251 847 1217 874 q 1291 781 1284 821 q 1285 685 1298 741 l 1252 541 l 752 541 l 777 648 q 743 707 790 707 q 705 695 720 707 q 683 648 691 683 l 587 236 q 621 176 574 176 q 659 189 644 176 q 681 236 673 201 l 716 387 l 1217 387 l 1174 200 z "},"d":{"ha":1161,"x_min":67,"x_max":1390,"o":"m 683 235 l 775 635 q 742 692 788 692 q 703 681 718 692 q 681 635 689 670 l 589 235 q 623 177 575 177 q 683 235 669 177 m 896 1136 l 1390 1136 l 1174 199 q 1135 103 1160 142 q 1065 39 1109 64 q 956 3 1020 14 q 805 -8 892 -8 l 355 -8 q 209 3 268 -8 q 116 40 150 14 q 75 105 82 65 q 80 199 67 144 l 194 693 q 232 786 206 747 q 303 851 257 825 q 413 887 349 876 q 564 898 477 898 l 841 898 l 896 1136 z "},"e":{"ha":1161,"x_min":67,"x_max":1298,"o":"m 1174 200 q 1135 103 1160 143 q 1064 37 1109 64 q 954 0 1018 11 q 802 -11 889 -11 l 352 -11 q 206 0 265 -11 q 114 37 147 11 q 74 103 81 62 q 80 200 67 143 l 192 685 q 231 782 205 742 q 301 848 257 822 q 410 885 346 874 q 562 896 475 896 l 1012 896 q 1158 885 1099 896 q 1251 847 1217 874 q 1291 781 1284 821 q 1285 685 1298 741 l 1222 409 l 627 409 l 587 236 q 621 176 574 176 q 659 189 644 176 q 681 236 673 201 l 710 358 l 1210 358 l 1174 200 m 679 648 l 664 585 l 767 585 l 782 648 q 745 714 797 714 q 703 700 719 714 q 679 648 687 687 z "},"f":{"ha":803,"x_min":150,"x_max":1031,"o":"m 357 891 q 400 1005 371 948 q 475 1088 430 1062 q 584 1125 519 1114 q 736 1136 648 1136 l 1031 1136 l 989 954 l 960 954 q 881 945 901 954 q 856 913 862 937 l 851 889 l 974 889 l 931 703 l 808 703 l 644 -8 l 150 -8 l 314 703 l 196 703 l 239 889 l 357 889 l 357 891 z "},"g":{"ha":1156,"x_min":63,"x_max":1329,"o":"m 1116 -25 q 1071 -148 1097 -108 q 1000 -215 1045 -189 q 891 -253 955 -242 q 740 -264 827 -264 l 151 -264 l 195 -77 l 555 -77 q 629 -8 619 -77 q 474 -8 543 -8 q 370 -8 406 -8 q 133 59 203 -8 q 93 255 63 126 l 181 636 q 312 835 211 765 q 575 899 413 905 l 1329 899 l 1116 -25 m 771 621 q 770 669 779 656 q 738 681 762 681 q 675 621 689 681 l 594 270 q 595 222 586 235 q 630 210 604 210 q 668 222 654 210 q 690 270 682 235 l 771 621 z "},"h":{"ha":1149,"x_min":32,"x_max":1290,"o":"m 32 -8 l 296 1136 l 790 1136 l 735 899 l 986 897 q 1221 828 1153 897 q 1260 631 1290 758 l 1113 -8 l 620 -8 l 764 618 q 731 677 778 677 q 693 665 707 677 q 670 618 678 653 l 526 -8 l 32 -8 z "},"i":{"ha":560,"x_min":32,"x_max":788,"o":"m 32 -8 l 241 899 l 734 899 l 524 -8 l 32 -8 m 248 927 l 296 1135 l 788 1135 l 740 927 l 248 927 z "},"j":{"ha":560,"x_min":-27,"x_max":788,"o":"m -27 -263 l 241 899 l 734 899 l 466 -263 l -27 -263 m 248 927 l 296 1135 l 788 1135 l 740 927 l 248 927 z "},"k":{"ha":1161,"x_min":32,"x_max":1246,"o":"m 32 -8 l 296 1136 l 780 1136 l 697 775 l 743 899 l 1246 899 l 1013 467 l 1125 -8 l 624 -8 l 590 313 l 516 -8 l 32 -8 z "},"l":{"ha":560,"x_min":32,"x_max":788,"o":"m 32 -8 l 296 1136 l 788 1136 l 524 -8 l 32 -8 z "},"m":{"ha":1717,"x_min":32,"x_max":1860,"o":"m 32 -8 l 241 898 l 1561 898 q 1791 834 1722 904 q 1830 637 1860 765 l 1681 -8 l 1192 -8 l 1338 622 q 1304 681 1352 681 q 1266 669 1281 681 q 1244 622 1252 657 l 1098 -8 l 615 -8 l 760 622 q 727 681 774 681 q 689 669 704 681 q 666 622 674 657 l 521 -8 l 32 -8 z "},"n":{"ha":1148,"x_min":32,"x_max":1291,"o":"m 32 -8 l 241 898 l 988 898 q 1222 834 1153 904 q 1261 637 1291 765 l 1112 -8 l 619 -8 l 764 622 q 731 681 778 681 q 693 669 708 681 q 671 622 679 657 l 525 -8 l 32 -8 z "},"o":{"ha":1159,"x_min":67,"x_max":1297,"o":"m 682 649 l 587 237 q 620 178 573 178 q 658 190 644 178 q 680 237 672 202 l 775 649 q 742 708 789 708 q 704 696 719 708 q 682 649 690 684 m 192 686 q 231 783 205 743 q 302 849 257 824 q 410 886 346 875 q 562 897 475 897 l 1011 897 q 1157 886 1098 897 q 1249 849 1216 875 q 1290 782 1282 822 q 1284 686 1297 742 l 1172 201 q 1133 105 1159 144 q 1062 39 1107 65 q 952 1 1016 12 q 801 -10 888 -10 l 352 -10 q 206 1 265 -10 q 114 38 147 12 q 74 104 81 64 q 80 201 67 144 l 192 686 z "},"p":{"ha":1161,"x_min":-27,"x_max":1300,"o":"m 685 656 l 591 253 q 625 195 578 195 q 663 207 649 195 q 685 253 677 218 l 779 656 q 745 714 792 714 q 685 656 698 714 m 467 -264 l -27 -264 l 194 692 q 232 788 207 748 q 302 852 258 827 q 411 888 347 877 q 563 899 475 899 l 1013 899 q 1159 888 1100 899 q 1251 851 1218 877 q 1292 786 1285 826 q 1287 692 1300 747 l 1172 195 q 1134 102 1160 141 q 1063 37 1109 62 q 954 0 1018 11 q 802 -11 889 -11 l 525 -11 l 467 -264 z "},"q":{"ha":1161,"x_min":66,"x_max":1300,"o":"m 780 656 q 746 714 793 714 q 686 656 699 714 l 593 253 q 594 207 585 218 q 627 195 603 195 q 687 253 673 195 l 780 656 m 631 -11 l 354 -11 q 208 0 267 -11 q 115 37 149 11 q 74 102 81 62 q 79 195 66 141 l 194 692 q 232 786 207 747 q 303 851 257 826 q 413 888 349 877 q 564 899 477 899 l 1014 899 q 1160 888 1101 899 q 1252 852 1219 877 q 1293 788 1285 827 q 1287 692 1300 748 l 1066 -264 l 573 -264 l 631 -11 z "},"r":{"ha":795,"x_min":32,"x_max":968,"o":"m 32 -8 l 240 896 l 721 896 l 711 855 q 968 896 774 910 l 907 628 q 637 474 685 627 l 526 -8 l 32 -8 z "},"s":{"ha":1161,"x_min":67,"x_max":1298,"o":"m 1174 200 q 1135 103 1160 143 q 1064 37 1109 64 q 954 0 1018 11 q 802 -11 889 -11 l 352 -11 q 206 0 265 -11 q 114 37 147 11 q 74 103 81 62 q 80 200 67 143 l 107 318 l 606 318 l 587 236 q 621 176 574 176 q 659 189 644 176 q 681 236 673 201 l 687 259 q 609 339 700 314 l 357 404 q 199 479 235 437 q 181 602 162 520 l 200 685 q 239 782 214 742 q 311 848 265 822 q 420 885 356 874 q 572 896 485 896 l 1012 896 q 1158 885 1099 896 q 1251 847 1217 874 q 1291 781 1284 821 q 1285 685 1298 741 l 1270 617 l 775 617 l 782 648 q 749 707 795 707 q 713 696 729 707 q 692 666 697 686 q 691 642 689 652 q 701 624 692 632 q 731 608 710 616 q 790 590 752 600 l 979 540 q 1174 449 1130 499 q 1198 307 1220 401 l 1174 200 z "},"t":{"ha":807,"x_min":150,"x_max":979,"o":"m 357 890 l 414 1136 l 908 1136 l 851 890 l 979 890 l 936 704 l 808 704 l 644 -8 l 150 -8 l 314 704 l 196 704 l 239 890 l 357 890 z "},"u":{"ha":1158,"x_min":63,"x_max":1332,"o":"m 1332 899 l 1122 -8 l 371 -8 q 133 59 203 -8 q 93 254 63 125 l 241 899 l 739 899 l 593 269 q 627 209 579 209 q 665 222 650 209 q 688 269 680 234 l 833 899 l 1332 899 z "},"v":{"ha":1205,"x_min":241,"x_max":1379,"o":"m 939 -8 l 261 -8 l 241 899 l 737 899 l 696 409 l 882 899 l 1379 899 l 939 -8 z "},"w":{"ha":1697,"x_min":241,"x_max":1870,"o":"m 1237 899 l 1239 571 l 1394 899 l 1870 899 l 1383 -8 l 936 -8 l 930 352 l 756 -8 l 309 -8 l 241 899 l 714 899 l 721 571 l 874 899 l 1237 899 z "},"x":{"ha":1267,"x_min":35,"x_max":1441,"o":"m 945 899 l 1441 899 l 1141 455 l 1229 -8 l 713 -8 l 706 309 l 551 -8 l 35 -8 l 335 455 l 241 899 l 737 899 l 772 605 l 945 899 z "},"y":{"ha":1156,"x_min":24,"x_max":1330,"o":"m 836 899 l 1330 899 l 1116 -25 q 1071 -149 1097 -108 q 1000 -215 1045 -189 q 891 -253 954 -242 q 740 -264 827 -264 l 24 -264 l 67 -78 l 516 -78 q 595 -69 575 -78 q 628 -13 614 -61 q 472 -14 541 -14 l 368 -14 q 132 56 200 -14 q 93 254 63 126 l 241 899 l 739 899 l 594 270 q 595 222 586 234 q 630 210 604 210 q 668 222 653 210 q 690 270 682 234 l 836 899 z "},"z":{"ha":960,"x_min":32,"x_max":1111,"o":"m 32 -8 l 72 163 l 522 695 l 226 695 l 273 899 l 1111 899 l 1071 726 l 620 190 l 970 190 l 924 -8 l 32 -8 z "},"{":{"ha":824,"x_min":134,"x_max":1118,"o":"m 1060 1167 l 1001 1167 q 938 1164 961 1167 q 900 1151 915 1160 q 874 1121 885 1141 q 856 1067 864 1101 l 783 749 q 754 671 772 703 q 704 616 736 639 q 626 579 672 592 q 585 567 580 567 q 623 553 585 567 q 681 516 661 538 q 698 384 719 473 l 626 73 q 620 19 618 39 q 631 -9 621 0 q 663 -23 641 -19 q 724 -26 686 -26 l 784 -26 l 727 -272 l 634 -272 q 518 -270 567 -272 q 431 -264 469 -269 q 366 -254 394 -260 q 318 -239 339 -248 q 245 -175 261 -219 q 251 -46 231 -134 l 327 283 q 315 402 347 369 q 198 433 282 434 l 134 433 l 196 700 l 264 700 q 391 731 343 698 q 458 849 438 763 l 537 1193 q 561 1270 548 1239 q 592 1324 574 1302 q 636 1362 610 1347 q 694 1388 661 1377 q 750 1402 721 1396 q 819 1413 780 1408 q 908 1418 858 1417 q 1025 1420 958 1420 l 1118 1420 l 1060 1167 z "},"|":{"ha":368,"x_min":-44,"x_max":660,"o":"m 660 1411 l 257 -336 l -44 -336 l 360 1411 l 660 1411 z "},"}":{"ha":824,"x_min":-29,"x_max":951,"o":"m 362 1420 l 455 1420 q 571 1418 522 1420 q 657 1413 620 1417 q 721 1402 694 1408 q 771 1388 748 1396 q 817 1362 799 1377 q 843 1324 836 1347 q 850 1270 851 1302 q 838 1193 848 1239 l 758 849 q 771 731 738 763 q 883 700 803 698 l 951 700 l 890 433 l 826 433 q 695 402 742 434 q 628 283 647 369 l 552 -46 q 498 -175 531 -134 q 395 -239 461 -219 q 340 -254 370 -248 q 271 -264 310 -260 q 181 -270 231 -269 q 64 -272 132 -272 l -29 -272 l 28 -26 l 88 -26 q 150 -23 126 -26 q 189 -9 174 -19 q 213 19 203 0 q 231 73 223 39 l 303 384 q 382 516 323 473 q 456 553 412 538 q 501 567 501 567 q 466 579 506 567 q 405 616 426 592 q 380 671 384 639 q 387 749 377 703 l 460 1067 q 467 1121 469 1101 q 456 1151 466 1141 q 424 1164 445 1160 q 362 1167 402 1167 l 303 1167 l 362 1420 z "},"~":{"ha":803,"x_min":122,"x_max":954,"o":"m 890 523 q 517 475 688 410 q 122 380 347 541 l 186 660 q 581 749 408 814 q 954 798 753 685 l 890 523 z "},"Ä":{"ha":1179,"x_min":32,"x_max":1242,"o":"m 691 502 l 756 502 l 780 748 l 691 502 m 32 -8 l 515 1136 l 1226 1136 l 1181 -8 l 686 -8 l 714 236 l 609 236 l 526 -8 l 32 -8 m 789 1483 q 884 1440 851 1483 q 902 1349 915 1402 q 838 1253 890 1296 q 727 1214 789 1214 q 634 1254 665 1214 q 615 1349 603 1295 q 675 1440 627 1402 q 789 1483 728 1483 m 1117 1483 q 1212 1440 1179 1483 q 1230 1349 1242 1402 q 1165 1253 1218 1296 q 1055 1214 1117 1214 q 962 1254 993 1214 q 943 1349 930 1295 q 1003 1440 955 1402 q 1117 1483 1056 1483 z "},"Å":{"ha":1217,"x_min":32,"x_max":1226,"o":"m 691 502 l 756 502 l 780 748 l 691 502 m 915 1331 q 877 1314 898 1331 q 854 1275 860 1300 q 860 1234 848 1249 q 889 1218 872 1218 q 927 1235 906 1218 q 950 1275 944 1249 q 945 1314 956 1300 q 915 1331 932 1331 m 1013 1136 l 1226 1136 l 1181 -8 l 686 -8 l 714 236 l 609 236 l 526 -8 l 32 -8 l 515 1136 l 726 1136 q 719 1136 687 1180 q 693 1275 674 1194 q 786 1416 711 1355 q 948 1475 860 1475 q 1086 1413 1038 1475 q 1113 1275 1131 1355 q 1017 1132 1094 1195 q 1013 1136 1103 1202 z "},"Ç":{"ha":1131,"x_min":61,"x_max":1333,"o":"m 504 -8 l 323 -8 q 116 54 171 -8 q 90 244 61 116 l 236 874 q 280 1000 253 948 q 349 1086 307 1052 q 452 1136 392 1121 q 591 1152 512 1152 l 1060 1152 q 1200 1136 1143 1152 q 1282 1087 1257 1121 q 1298 874 1333 1024 l 1262 718 l 771 718 l 792 808 q 795 866 802 851 q 768 881 787 881 q 735 866 749 881 q 711 808 721 850 l 603 338 q 600 280 593 296 q 626 265 607 265 q 684 338 667 265 l 716 477 l 1207 477 l 1153 244 q 1111 132 1138 179 q 1040 53 1084 85 q 934 7 995 22 q 792 -8 872 -8 l 615 -8 l 588 -61 l 621 -61 q 662 -66 646 -61 q 686 -82 681 -72 q 689 -111 693 -96 q 676 -146 686 -125 l 626 -247 q 572 -307 607 -286 q 494 -325 543 -325 l 361 -325 q 319 -320 336 -325 q 292 -302 300 -315 q 288 -279 286 -293 q 299 -247 290 -266 l 325 -196 l 488 -196 l 476 -220 q 466 -235 469 -235 q 465 -235 465 -235 q 475 -220 470 -231 l 503 -165 q 518 -148 509 -153 q 513 -151 518 -147 l 478 -151 l 478 -150 l 432 -150 l 504 -8 z "},"É":{"ha":969,"x_min":32,"x_max":1231,"o":"m 32 -8 l 296 1136 l 1231 1136 l 1168 862 l 722 862 l 684 702 l 1089 702 l 1026 428 l 621 428 l 584 266 l 1030 266 l 967 -8 l 32 -8 m 1120 1503 l 898 1214 l 645 1214 l 867 1503 l 1120 1503 z "},"Ñ":{"ha":1227,"x_min":32,"x_max":1489,"o":"m 32 -8 l 296 1136 l 825 1136 l 903 742 l 994 1136 l 1489 1136 l 1225 -8 l 718 -8 l 632 450 l 526 -8 l 32 -8 m 1275 1340 q 1026 1214 1150 1214 q 880 1259 965 1214 q 821 1277 843 1277 q 683 1206 773 1277 l 619 1330 q 856 1438 743 1438 q 992 1399 920 1438 q 1060 1375 1037 1375 q 1211 1464 1113 1375 l 1275 1340 z "},"Ö":{"ha":1126,"x_min":78,"x_max":1347,"o":"m 722 799 l 614 329 q 611 272 604 287 q 638 257 618 257 q 673 272 659 257 q 698 329 688 287 l 806 799 q 781 872 823 872 q 746 857 761 872 q 722 799 732 841 m 329 -17 q 194 -1 248 -17 q 112 50 139 15 q 81 137 84 85 q 95 262 78 189 l 240 895 q 355 1083 270 1022 q 596 1143 441 1143 l 1079 1143 q 1217 1129 1161 1143 q 1305 1084 1274 1115 q 1341 1005 1336 1052 q 1332 895 1347 958 l 1186 262 q 1070 48 1152 112 q 962 -1 1028 14 q 811 -17 897 -17 l 329 -17 m 758 1483 q 853 1440 820 1483 q 871 1349 883 1402 q 806 1253 859 1296 q 696 1214 758 1214 q 603 1254 634 1214 q 584 1349 571 1295 q 644 1440 596 1402 q 758 1483 696 1483 m 1086 1483 q 1181 1440 1148 1483 q 1199 1349 1211 1402 q 1134 1253 1187 1296 q 1024 1214 1086 1214 q 930 1254 962 1214 q 912 1349 899 1295 q 972 1440 924 1402 q 1086 1483 1024 1483 z "},"Ü":{"ha":1126,"x_min":78,"x_max":1391,"o":"m 886 1143 l 1391 1143 l 1332 895 l 1186 262 q 1070 48 1152 112 q 962 -1 1028 14 q 811 -17 897 -17 l 329 -17 q 194 -1 248 -17 q 112 50 139 15 q 81 137 84 85 q 95 262 78 189 l 298 1143 l 596 1143 l 802 1143 l 614 329 q 611 272 604 287 q 638 257 618 257 q 673 272 659 257 q 698 329 688 287 l 886 1143 m 745 1483 q 840 1440 807 1483 q 858 1349 870 1402 q 793 1253 846 1296 q 683 1214 745 1214 q 589 1254 621 1214 q 571 1349 558 1295 q 631 1440 583 1402 q 745 1483 683 1483 m 1073 1483 q 1168 1440 1135 1483 q 1186 1349 1198 1402 q 1121 1253 1174 1296 q 1010 1214 1073 1214 q 917 1254 948 1214 q 899 1349 886 1295 q 959 1440 911 1402 q 1073 1483 1011 1483 z "},"á":{"ha":1122,"x_min":73,"x_max":1294,"o":"m 695 257 l 723 379 l 682 367 q 620 335 640 353 q 591 277 601 316 l 587 257 q 625 195 573 195 q 669 208 652 195 q 695 257 687 221 m 767 583 l 783 652 q 782 703 792 691 q 745 715 772 715 q 703 702 719 715 q 680 652 688 689 l 671 615 l 191 615 l 208 687 q 247 784 221 744 q 318 851 273 825 q 428 888 363 877 q 579 899 492 899 l 1007 899 q 1153 888 1094 899 q 1246 850 1213 877 q 1286 783 1279 823 q 1281 687 1294 743 l 1120 -8 l 374 -8 q 141 57 210 -11 q 104 303 73 125 q 506 583 190 575 l 767 583 m 1191 1259 l 968 970 l 715 970 l 937 1259 l 1191 1259 z "},"à":{"ha":1122,"x_min":73,"x_max":1294,"o":"m 695 257 l 723 379 l 682 367 q 620 335 640 353 q 591 277 601 316 l 587 257 q 625 195 573 195 q 669 208 652 195 q 695 257 687 221 m 767 583 l 783 652 q 782 703 792 691 q 745 715 772 715 q 703 702 719 715 q 680 652 688 689 l 671 615 l 191 615 l 208 687 q 247 784 221 744 q 318 851 273 825 q 428 888 363 877 q 579 899 492 899 l 1007 899 q 1153 888 1094 899 q 1246 850 1213 877 q 1286 783 1279 823 q 1281 687 1294 743 l 1120 -8 l 374 -8 q 141 57 210 -11 q 104 303 73 125 q 506 583 190 575 l 767 583 m 912 1259 l 1001 970 l 748 970 l 659 1259 l 912 1259 z "},"â":{"ha":1122,"x_min":73,"x_max":1294,"o":"m 695 257 l 723 379 l 682 367 q 620 335 640 353 q 591 277 601 316 l 587 257 q 625 195 573 195 q 669 208 652 195 q 695 257 687 221 m 767 583 l 783 652 q 782 703 792 691 q 745 715 772 715 q 703 702 719 715 q 680 652 688 689 l 671 615 l 191 615 l 208 687 q 247 784 221 744 q 318 851 273 825 q 428 888 363 877 q 579 899 492 899 l 1007 899 q 1153 888 1094 899 q 1246 850 1213 877 q 1286 783 1279 823 q 1281 687 1294 743 l 1120 -8 l 374 -8 q 141 57 210 -11 q 104 303 73 125 q 506 583 190 575 l 767 583 m 935 970 l 886 1090 l 782 970 l 572 970 l 826 1261 l 1030 1262 l 1028 1253 l 1145 970 l 935 970 z "},"ä":{"ha":1122,"x_min":73,"x_max":1294,"o":"m 695 257 l 723 379 l 682 367 q 620 335 640 353 q 591 277 601 316 l 587 257 q 625 195 573 195 q 669 208 652 195 q 695 257 687 221 m 767 583 l 783 652 q 782 703 792 691 q 745 715 772 715 q 703 702 719 715 q 680 652 688 689 l 671 615 l 191 615 l 208 687 q 247 784 221 744 q 318 851 273 825 q 428 888 363 877 q 579 899 492 899 l 1007 899 q 1153 888 1094 899 q 1246 850 1213 877 q 1286 783 1279 823 q 1281 687 1294 743 l 1120 -8 l 374 -8 q 141 57 210 -11 q 104 303 73 125 q 506 583 190 575 l 767 583 m 756 1240 q 851 1197 818 1240 q 869 1105 881 1158 q 804 1010 857 1053 q 694 970 756 970 q 601 1011 632 970 q 582 1105 569 1052 q 642 1197 594 1158 q 756 1240 694 1240 m 1084 1240 q 1179 1197 1146 1240 q 1197 1105 1209 1158 q 1132 1010 1185 1053 q 1022 970 1084 970 q 928 1011 960 970 q 910 1105 897 1052 q 970 1197 922 1158 q 1084 1240 1022 1240 z "},"ã":{"ha":1122,"x_min":73,"x_max":1294,"o":"m 695 257 l 723 379 l 682 367 q 620 335 640 353 q 591 277 601 316 l 587 257 q 625 195 573 195 q 669 208 652 195 q 695 257 687 221 m 767 583 l 783 652 q 782 703 792 691 q 745 715 772 715 q 703 702 719 715 q 680 652 688 689 l 671 615 l 191 615 l 208 687 q 247 784 221 744 q 318 851 273 825 q 428 888 363 877 q 579 899 492 899 l 1007 899 q 1153 888 1094 899 q 1246 850 1213 877 q 1286 783 1279 823 q 1281 687 1294 743 l 1120 -8 l 374 -8 q 141 57 210 -11 q 104 303 73 125 q 506 583 190 575 l 767 583 m 1214 1097 q 965 970 1089 970 q 819 1015 904 970 q 760 1033 782 1033 q 622 962 712 1033 l 558 1086 q 794 1194 682 1194 q 931 1155 859 1194 q 999 1131 976 1131 q 1149 1220 1052 1131 l 1214 1097 z "},"å":{"ha":1156,"x_min":73,"x_max":1294,"o":"m 695 257 l 723 379 l 682 367 q 620 335 640 353 q 591 277 601 316 l 587 257 q 625 195 573 195 q 669 208 652 195 q 695 257 687 221 m 834 1110 q 800 1096 817 1110 q 773 1054 779 1079 q 779 1013 767 1028 q 808 998 790 998 q 842 1011 825 998 q 869 1054 863 1028 q 862 1096 875 1079 q 834 1110 851 1110 m 921 899 l 1007 899 q 1153 888 1094 899 q 1246 850 1213 877 q 1286 783 1279 823 q 1281 687 1294 743 l 1120 -8 l 374 -8 q 141 57 210 -11 q 104 303 73 125 q 506 583 190 575 l 767 583 l 783 652 q 782 703 792 691 q 745 715 772 715 q 703 702 719 715 q 680 652 688 689 l 671 615 l 191 615 l 208 687 q 247 784 221 744 q 318 851 273 825 q 428 888 363 877 q 579 899 492 899 l 649 899 q 637 915 650 898 q 611 1054 592 973 q 705 1195 630 1134 q 867 1255 778 1255 q 1005 1192 957 1255 q 1031 1054 1049 1134 q 936 911 1013 974 q 921 899 919 898 z "},"ç":{"ha":1161,"x_min":67,"x_max":1298,"o":"m 548 -11 l 352 -11 q 206 0 265 -11 q 114 37 147 11 q 74 103 81 62 q 80 200 67 143 l 192 685 q 301 848 218 800 q 411 885 345 872 q 512 893 444 890 q 684 896 579 896 l 1012 896 q 1158 885 1099 896 q 1251 847 1217 874 q 1291 781 1284 821 q 1285 685 1298 741 l 1252 541 l 752 541 l 777 648 q 743 707 790 707 q 705 695 720 707 q 683 648 691 683 l 587 236 q 621 176 574 176 q 659 189 644 176 q 681 236 673 201 l 716 387 l 1217 387 l 1174 200 q 1135 103 1160 143 q 1064 37 1109 64 q 954 0 1018 11 q 802 -11 889 -11 l 659 -11 l 636 -57 l 669 -57 q 710 -62 694 -57 q 734 -78 729 -68 q 737 -107 741 -92 q 724 -142 734 -121 l 673 -243 q 620 -302 654 -281 q 542 -321 591 -321 l 409 -321 q 368 -316 384 -321 q 340 -298 348 -311 q 336 -275 334 -289 q 347 -243 338 -262 l 373 -192 l 536 -192 l 525 -216 q 514 -231 517 -231 q 513 -231 513 -231 q 523 -216 517 -227 l 551 -161 q 566 -144 556 -149 q 561 -146 566 -143 l 526 -146 l 526 -146 l 480 -146 l 548 -11 z "},"é":{"ha":1127,"x_min":67,"x_max":1298,"o":"m 1174 200 q 1135 103 1160 143 q 1064 37 1109 64 q 954 0 1018 11 q 802 -11 889 -11 l 352 -11 q 206 0 265 -11 q 114 37 147 11 q 74 103 81 62 q 80 200 67 143 l 192 685 q 231 782 205 742 q 301 848 257 822 q 410 885 346 874 q 562 896 475 896 l 1012 896 q 1158 885 1099 896 q 1251 847 1217 874 q 1291 781 1284 821 q 1285 685 1298 741 l 1222 409 l 627 409 l 587 236 q 621 176 574 176 q 659 189 644 176 q 681 236 673 201 l 710 358 l 1210 358 l 1174 200 m 679 648 l 664 585 l 767 585 l 782 648 q 745 714 797 714 q 703 700 719 714 q 679 648 687 687 m 1193 1259 l 970 970 l 717 970 l 940 1259 l 1193 1259 z "},"è":{"ha":1127,"x_min":67,"x_max":1298,"o":"m 1174 200 q 1135 103 1160 143 q 1064 37 1109 64 q 954 0 1018 11 q 802 -11 889 -11 l 352 -11 q 206 0 265 -11 q 114 37 147 11 q 74 103 81 62 q 80 200 67 143 l 192 685 q 231 782 205 742 q 301 848 257 822 q 410 885 346 874 q 562 896 475 896 l 1012 896 q 1158 885 1099 896 q 1251 847 1217 874 q 1291 781 1284 821 q 1285 685 1298 741 l 1222 409 l 627 409 l 587 236 q 621 176 574 176 q 659 189 644 176 q 681 236 673 201 l 710 358 l 1210 358 l 1174 200 m 679 648 l 664 585 l 767 585 l 782 648 q 745 714 797 714 q 703 700 719 714 q 679 648 687 687 m 904 1259 l 993 970 l 740 970 l 651 1259 l 904 1259 z "},"ê":{"ha":1127,"x_min":67,"x_max":1298,"o":"m 1174 200 q 1135 103 1160 143 q 1064 37 1109 64 q 954 0 1018 11 q 802 -11 889 -11 l 352 -11 q 206 0 265 -11 q 114 37 147 11 q 74 103 81 62 q 80 200 67 143 l 192 685 q 231 782 205 742 q 301 848 257 822 q 410 885 346 874 q 562 896 475 896 l 1012 896 q 1158 885 1099 896 q 1251 847 1217 874 q 1291 781 1284 821 q 1285 685 1298 741 l 1222 409 l 627 409 l 587 236 q 621 176 574 176 q 659 189 644 176 q 681 236 673 201 l 710 358 l 1210 358 l 1174 200 m 679 648 l 664 585 l 767 585 l 782 648 q 745 714 797 714 q 703 700 719 714 q 679 648 687 687 m 937 970 l 888 1089 l 784 970 l 574 970 l 828 1261 l 1032 1261 l 1030 1253 l 1147 970 l 937 970 z "},"ë":{"ha":1127,"x_min":67,"x_max":1298,"o":"m 1174 200 q 1135 103 1160 143 q 1064 37 1109 64 q 954 0 1018 11 q 802 -11 889 -11 l 352 -11 q 206 0 265 -11 q 114 37 147 11 q 74 103 81 62 q 80 200 67 143 l 192 685 q 231 782 205 742 q 301 848 257 822 q 410 885 346 874 q 562 896 475 896 l 1012 896 q 1158 885 1099 896 q 1251 847 1217 874 q 1291 781 1284 821 q 1285 685 1298 741 l 1222 409 l 627 409 l 587 236 q 621 176 574 176 q 659 189 644 176 q 681 236 673 201 l 710 358 l 1210 358 l 1174 200 m 679 648 l 664 585 l 767 585 l 782 648 q 745 714 797 714 q 703 700 719 714 q 679 648 687 687 m 759 1239 q 854 1196 821 1239 q 872 1105 884 1158 q 807 1009 860 1052 q 696 970 759 970 q 603 1010 634 970 q 585 1105 572 1051 q 645 1196 597 1158 q 759 1239 697 1239 m 1086 1239 q 1182 1196 1148 1239 q 1200 1105 1212 1158 q 1135 1009 1187 1052 q 1024 970 1086 970 q 931 1010 962 970 q 912 1105 900 1051 q 972 1196 925 1158 q 1086 1239 1025 1239 z "},"í":{"ha":541,"x_min":32,"x_max":892,"o":"m 32 -8 l 241 899 l 734 899 l 524 -8 l 32 -8 m 892 1259 l 670 970 l 417 970 l 639 1259 l 892 1259 z "},"ì":{"ha":541,"x_min":51,"x_max":753,"o":"m 51 -8 l 260 899 l 753 899 l 543 -8 l 51 -8 m 634 1259 l 723 970 l 470 970 l 381 1259 l 634 1259 z "},"î":{"ha":595,"x_min":72,"x_max":886,"o":"m 72 -8 l 281 899 l 774 899 l 564 -8 l 72 -8 m 677 970 l 628 1089 l 523 970 l 314 970 l 568 1261 l 772 1261 l 770 1253 l 886 970 l 677 970 z "},"ï":{"ha":649,"x_min":93,"x_max":972,"o":"m 93 -8 l 303 899 l 795 899 l 586 -8 l 93 -8 m 519 1231 q 614 1188 581 1231 q 632 1096 645 1149 q 568 1001 620 1043 q 457 961 519 961 q 364 1002 395 961 q 345 1096 333 1042 q 405 1188 357 1149 q 519 1231 458 1231 m 847 1231 q 942 1188 909 1231 q 960 1096 972 1149 q 896 1001 948 1043 q 785 961 847 961 q 692 1002 723 961 q 673 1096 661 1042 q 733 1188 685 1149 q 847 1231 786 1231 z "},"ñ":{"ha":1114,"x_min":32,"x_max":1291,"o":"m 32 -8 l 241 898 l 988 898 q 1222 834 1153 904 q 1261 637 1291 765 l 1112 -8 l 619 -8 l 764 622 q 731 681 778 681 q 693 669 708 681 q 671 622 679 657 l 525 -8 l 32 -8 m 1210 1097 q 960 970 1084 970 q 814 1015 900 970 q 755 1033 778 1033 q 618 962 707 1033 l 554 1086 q 790 1194 677 1194 q 927 1155 854 1194 q 995 1131 971 1131 q 1145 1220 1047 1131 l 1210 1097 z "},"ó":{"ha":1125,"x_min":67,"x_max":1297,"o":"m 682 649 l 587 237 q 620 178 573 178 q 658 190 644 178 q 680 237 672 202 l 775 649 q 742 708 789 708 q 704 696 719 708 q 682 649 690 684 m 192 686 q 231 783 205 743 q 302 849 257 824 q 410 886 346 875 q 562 897 475 897 l 1011 897 q 1157 886 1098 897 q 1249 849 1216 875 q 1290 782 1282 822 q 1284 686 1297 742 l 1172 201 q 1133 105 1159 144 q 1062 39 1107 65 q 952 1 1016 12 q 801 -10 888 -10 l 352 -10 q 206 1 265 -10 q 114 38 147 12 q 74 104 81 64 q 80 201 67 144 l 192 686 m 1192 1259 l 969 970 l 716 970 l 939 1259 l 1192 1259 z "},"ò":{"ha":1125,"x_min":67,"x_max":1297,"o":"m 682 649 l 587 237 q 620 178 573 178 q 658 190 644 178 q 680 237 672 202 l 775 649 q 742 708 789 708 q 704 696 719 708 q 682 649 690 684 m 192 686 q 231 783 205 743 q 302 849 257 824 q 410 886 346 875 q 562 897 475 897 l 1011 897 q 1157 886 1098 897 q 1249 849 1216 875 q 1290 782 1282 822 q 1284 686 1297 742 l 1172 201 q 1133 105 1159 144 q 1062 39 1107 65 q 952 1 1016 12 q 801 -10 888 -10 l 352 -10 q 206 1 265 -10 q 114 38 147 12 q 74 104 81 64 q 80 201 67 144 l 192 686 m 915 1259 l 1003 970 l 750 970 l 661 1259 l 915 1259 z "},"ô":{"ha":1125,"x_min":67,"x_max":1297,"o":"m 682 649 l 587 237 q 620 178 573 178 q 658 190 644 178 q 680 237 672 202 l 775 649 q 742 708 789 708 q 704 696 719 708 q 682 649 690 684 m 192 686 q 231 783 205 743 q 302 849 257 824 q 410 886 346 875 q 562 897 475 897 l 1011 897 q 1157 886 1098 897 q 1249 849 1216 875 q 1290 782 1282 822 q 1284 686 1297 742 l 1172 201 q 1133 105 1159 144 q 1062 39 1107 65 q 952 1 1016 12 q 801 -10 888 -10 l 352 -10 q 206 1 265 -10 q 114 38 147 12 q 74 104 81 64 q 80 201 67 144 l 192 686 m 937 970 l 887 1089 l 783 970 l 574 970 l 828 1261 l 1031 1261 l 1030 1253 l 1146 970 l 937 970 z "},"ö":{"ha":1125,"x_min":67,"x_max":1297,"o":"m 682 649 l 587 237 q 620 178 573 178 q 658 190 644 178 q 680 237 672 202 l 775 649 q 742 708 789 708 q 704 696 719 708 q 682 649 690 684 m 192 686 q 231 783 205 743 q 302 849 257 824 q 410 886 346 875 q 562 897 475 897 l 1011 897 q 1157 886 1098 897 q 1249 849 1216 875 q 1290 782 1282 822 q 1284 686 1297 742 l 1172 201 q 1133 105 1159 144 q 1062 39 1107 65 q 952 1 1016 12 q 801 -10 888 -10 l 352 -10 q 206 1 265 -10 q 114 38 147 12 q 74 104 81 64 q 80 201 67 144 l 192 686 m 758 1240 q 853 1197 820 1240 q 871 1105 883 1158 q 806 1009 859 1052 q 696 970 758 970 q 603 1011 634 970 q 584 1105 571 1051 q 644 1197 596 1158 q 758 1240 696 1240 m 1086 1240 q 1181 1197 1148 1240 q 1199 1105 1211 1158 q 1134 1009 1187 1052 q 1024 970 1086 970 q 930 1011 962 970 q 912 1105 899 1051 q 972 1197 924 1158 q 1086 1240 1024 1240 z "},"õ":{"ha":1125,"x_min":67,"x_max":1297,"o":"m 682 649 l 587 237 q 620 178 573 178 q 658 190 644 178 q 680 237 672 202 l 775 649 q 742 708 789 708 q 704 696 719 708 q 682 649 690 684 m 192 686 q 231 783 205 743 q 302 849 257 824 q 410 886 346 875 q 562 897 475 897 l 1011 897 q 1157 886 1098 897 q 1249 849 1216 875 q 1290 782 1282 822 q 1284 686 1297 742 l 1172 201 q 1133 105 1159 144 q 1062 39 1107 65 q 952 1 1016 12 q 801 -10 888 -10 l 352 -10 q 206 1 265 -10 q 114 38 147 12 q 74 104 81 64 q 80 201 67 144 l 192 686 m 1216 1096 q 966 970 1090 970 q 820 1015 906 970 q 761 1033 784 1033 q 624 962 713 1033 l 559 1086 q 796 1194 683 1194 q 933 1155 860 1194 q 1000 1131 977 1131 q 1151 1220 1053 1131 l 1216 1096 z "},"ú":{"ha":1124,"x_min":63,"x_max":1332,"o":"m 1332 899 l 1122 -8 l 371 -8 q 133 59 203 -8 q 93 254 63 125 l 241 899 l 739 899 l 593 269 q 627 209 579 209 q 665 222 650 209 q 688 269 680 234 l 833 899 l 1332 899 m 1192 1259 l 969 970 l 716 970 l 938 1259 l 1192 1259 z "},"ù":{"ha":1124,"x_min":63,"x_max":1332,"o":"m 1332 899 l 1122 -8 l 371 -8 q 133 59 203 -8 q 93 254 63 125 l 241 899 l 739 899 l 593 269 q 627 209 579 209 q 665 222 650 209 q 688 269 680 234 l 833 899 l 1332 899 m 914 1259 l 1003 970 l 749 970 l 661 1259 l 914 1259 z "},"û":{"ha":1124,"x_min":63,"x_max":1332,"o":"m 1332 899 l 1122 -8 l 371 -8 q 133 59 203 -8 q 93 254 63 125 l 241 899 l 739 899 l 593 269 q 627 209 579 209 q 665 222 650 209 q 688 269 680 234 l 833 899 l 1332 899 m 936 970 l 887 1089 l 782 970 l 573 970 l 827 1261 l 1031 1261 l 1029 1253 l 1145 970 l 936 970 z "},"ü":{"ha":1124,"x_min":63,"x_max":1332,"o":"m 1332 899 l 1122 -8 l 371 -8 q 133 59 203 -8 q 93 254 63 125 l 241 899 l 739 899 l 593 269 q 627 209 579 209 q 665 222 650 209 q 688 269 680 234 l 833 899 l 1332 899 m 757 1239 q 852 1196 819 1239 q 870 1105 882 1158 q 805 1009 858 1052 q 695 970 757 970 q 602 1010 633 970 q 583 1105 570 1051 q 643 1196 595 1158 q 757 1239 695 1239 m 1085 1239 q 1180 1196 1147 1239 q 1198 1105 1210 1158 q 1133 1009 1186 1052 q 1023 970 1085 970 q 929 1010 961 970 q 911 1105 898 1051 q 971 1196 923 1158 q 1085 1239 1023 1239 z "},"†":{"ha":710,"x_min":224,"x_max":910,"o":"m 692 1013 l 910 1013 l 867 824 l 649 824 l 444 -62 l 238 -62 l 442 824 l 224 824 l 268 1013 l 486 1013 l 536 1231 l 743 1231 l 692 1013 z "},"°":{"ha":488,"x_min":342,"x_max":799,"o":"m 616 1615 q 754 1553 706 1615 q 780 1415 799 1495 q 685 1272 762 1335 q 524 1214 613 1214 q 388 1274 434 1214 q 360 1415 342 1334 q 454 1556 379 1495 q 616 1615 528 1615 m 593 1514 q 526 1487 558 1514 q 479 1415 489 1458 q 490 1343 469 1371 q 547 1315 512 1315 q 614 1341 583 1315 q 661 1415 651 1372 q 649 1487 671 1458 q 593 1514 628 1514 z "},"¢":{"ha":1141,"x_min":67,"x_max":1278,"o":"m 675 896 l 695 984 l 901 984 l 880 892 l 1001 892 q 1144 882 1086 892 q 1232 846 1201 871 q 1271 781 1264 821 q 1265 685 1278 741 l 1233 544 l 753 544 l 777 648 q 734 710 791 710 q 687 696 704 710 q 662 648 670 682 l 567 236 q 610 173 553 173 q 657 187 640 173 q 682 236 673 201 l 715 384 l 1196 384 l 1153 200 q 1115 103 1140 142 q 1046 38 1089 64 q 940 3 1002 13 q 793 -8 879 -8 l 672 -8 l 651 -99 l 445 -99 l 466 -8 l 343 -8 q 201 3 258 -8 q 112 38 143 13 q 74 102 81 62 q 80 200 67 142 l 192 685 q 299 847 219 800 q 404 882 340 870 q 502 890 435 887 q 675 896 569 892 l 675 896 z "},"£":{"ha":1044,"x_min":70,"x_max":1224,"o":"m 696 372 q 645 266 680 320 l 1071 267 l 1008 -8 l 70 -8 l 132 261 l 136 261 l 136 262 q 229 372 202 318 l 120 372 l 164 564 l 214 564 q 205 728 196 642 l 203 728 l 239 882 q 348 1079 271 1020 q 581 1136 421 1136 l 995 1136 q 1115 1122 1068 1136 q 1193 1074 1168 1107 q 1221 995 1218 1043 q 1208 882 1224 948 l 1162 680 l 720 680 l 752 821 q 753 876 761 860 q 731 886 748 886 q 700 872 713 886 q 679 821 687 860 l 661 746 l 662 746 q 687 564 645 687 l 834 564 l 789 372 l 696 372 z "},"§":{"ha":841,"x_min":91,"x_max":1029,"o":"m 207 536 q 277 769 184 649 q 306 799 295 790 q 281 856 290 823 q 350 1087 258 969 q 658 1231 467 1222 l 1029 1231 l 979 1010 l 625 1010 q 535 980 555 1007 q 609 911 506 936 q 799 854 714 891 q 925 702 884 817 l 926 684 l 926 683 q 793 408 934 554 q 829 444 819 461 q 852 365 831 440 l 852 363 q 753 112 861 232 q 451 -8 646 -7 l 91 -8 l 142 212 l 531 212 q 596 264 577 220 q 585 317 613 300 q 571 326 580 321 l 568 326 l 347 393 q 286 427 337 394 q 207 536 234 459 m 501 684 l 477 680 l 477 683 q 461 660 486 685 q 453 622 448 641 q 458 617 455 619 l 467 614 l 473 611 l 663 556 l 659 557 l 658 557 q 670 583 660 559 q 661 637 687 620 q 585 661 655 640 q 508 685 515 683 q 504 685 508 685 q 501 684 502 686 z "},"•":{"ha":371,"x_min":154,"x_max":483,"o":"m 351 719 q 450 676 417 719 q 470 575 483 632 q 404 476 457 519 q 285 432 351 432 q 187 476 220 432 q 167 575 154 519 q 233 676 180 632 q 351 719 286 719 z "},"¶":{"ha":878,"x_min":171,"x_max":1106,"o":"m 307 -163 l 434 389 l 434 389 q 260 471 335 386 q 205 724 171 570 q 369 998 240 894 q 837 1134 537 1134 l 1106 1134 l 807 -163 l 603 -163 l 865 974 l 772 974 l 510 -163 l 307 -163 z "},"ß":{"ha":1230,"x_min":124,"x_max":1432,"o":"m 306 788 l 319 842 l 321 842 l 339 918 q 448 1077 363 1022 q 670 1133 533 1133 l 1175 1133 q 1373 1077 1313 1133 q 1408 918 1432 1022 l 1386 825 q 1311 683 1366 737 q 1166 600 1254 628 q 1230 572 1199 592 q 1276 522 1260 552 q 1290 448 1291 492 q 1276 346 1289 405 l 1251 239 q 1139 54 1222 113 q 912 -5 1058 -5 l 674 -5 l 735 260 q 773 259 715 262 q 788 275 773 259 q 813 333 804 292 l 828 399 q 836 474 836 474 l 774 486 l 831 733 q 876 752 855 740 q 922 806 916 776 q 918 853 929 835 q 870 871 909 868 q 799 852 827 873 q 774 807 782 840 l 589 -4 l 124 -4 l 263 603 l 173 603 l 216 788 l 306 788 z "},"®":{"ha":1121,"x_min":126,"x_max":1227,"o":"m 770 590 q 764 661 779 641 q 719 682 748 682 q 646 637 682 682 q 590 506 610 593 q 645 336 551 336 q 737 433 709 336 l 939 433 q 820 259 909 322 q 608 196 731 196 q 406 278 465 196 q 378 500 346 360 q 508 724 410 637 q 738 811 607 811 q 927 754 867 811 q 968 590 987 696 l 770 590 m 1065 504 q 1071 657 1084 585 q 1017 784 1059 730 q 768 901 927 901 q 615 874 690 901 q 474 790 539 846 q 355 658 403 732 q 288 504 307 585 q 283 351 270 424 q 340 221 296 278 q 585 107 428 107 q 738 137 661 107 q 886 222 815 166 q 1001 350 956 279 q 1065 504 1046 421 m 795 1021 q 993 981 905 1021 q 1136 870 1081 942 q 1210 701 1194 795 q 1203 503 1227 607 q 1120 307 1179 399 q 971 143 1061 215 q 768 25 876 65 q 555 -15 660 -15 q 363 25 449 -15 q 218 141 278 64 q 143 308 159 215 q 150 503 126 401 q 234 700 174 607 q 392 873 294 793 q 582 982 478 943 q 795 1021 686 1021 z "},"©":{"ha":1121,"x_min":126,"x_max":1227,"o":"m 686 673 l 660 560 l 679 560 q 756 618 742 560 q 695 673 768 673 l 686 673 m 751 799 q 932 754 876 799 q 969 628 988 709 q 917 533 957 574 q 825 476 876 492 l 892 231 l 669 231 l 618 445 l 633 445 l 584 231 l 376 231 l 507 799 l 751 799 m 1065 504 q 1071 657 1084 585 q 1017 784 1059 730 q 768 901 927 901 q 615 874 690 901 q 474 790 539 846 q 355 658 403 732 q 288 504 307 585 q 283 351 270 424 q 340 221 296 278 q 585 107 428 107 q 738 137 661 107 q 886 222 815 166 q 1001 350 956 279 q 1065 504 1046 421 m 795 1021 q 993 981 905 1021 q 1136 870 1081 942 q 1210 701 1194 795 q 1203 503 1227 607 q 1120 307 1179 399 q 971 143 1061 215 q 768 25 876 65 q 555 -15 660 -15 q 363 25 449 -15 q 218 141 278 64 q 143 308 159 215 q 150 503 126 401 q 234 700 174 607 q 392 873 294 793 q 582 982 478 943 q 795 1021 686 1021 z "},"™":{"ha":1281,"x_min":269,"x_max":1510,"o":"m 299 668 l 380 1017 l 269 1017 l 296 1136 l 768 1136 l 741 1017 l 629 1017 l 549 668 l 299 668 m 948 668 l 930 827 l 893 668 l 653 668 l 761 1136 l 1085 1136 l 1101 990 l 1184 1136 l 1510 1136 l 1402 668 l 1161 668 l 1197 826 l 1106 668 l 948 668 z "},"´":{"ha":476,"x_min":314,"x_max":790,"o":"m 790 1503 l 568 1214 l 314 1214 l 537 1503 l 790 1503 z "},"¨":{"ha":683,"x_min":333,"x_max":973,"o":"m 519 1483 q 615 1440 582 1483 q 633 1349 645 1402 q 568 1253 621 1296 q 457 1214 519 1214 q 364 1254 395 1214 q 346 1349 333 1295 q 406 1440 358 1402 q 519 1483 458 1483 m 847 1483 q 943 1440 909 1483 q 961 1349 973 1402 q 896 1253 948 1296 q 785 1214 847 1214 q 692 1254 723 1214 q 673 1349 661 1295 q 733 1440 686 1402 q 847 1483 786 1483 z "},"≠":{"ha":734,"x_min":100,"x_max":896,"o":"m 201 284 l 100 284 l 163 558 l 429 558 l 439 571 l 166 571 l 229 845 l 666 845 l 722 912 l 852 912 l 796 845 l 896 845 l 832 571 l 568 571 l 558 558 l 830 558 l 766 284 l 330 284 l 275 218 l 145 218 l 201 284 z "},"Æ":{"ha":1641,"x_min":32,"x_max":1869,"o":"m 757 502 l 822 502 l 880 746 l 757 502 m 688 -8 l 746 236 l 641 236 l 526 -8 l 32 -8 l 663 1136 l 1869 1136 l 1806 862 l 1359 862 l 1335 756 l 1739 756 l 1676 482 l 1272 482 l 1222 266 l 1668 266 l 1605 -8 l 688 -8 z "},"Ø":{"ha":1160,"x_min":78,"x_max":1347,"o":"m 749 552 l 623 370 l 614 329 q 611 272 604 287 q 638 257 618 257 q 673 272 659 257 q 698 329 688 287 l 749 552 m 1053 1143 l 1126 1249 l 1231 1249 l 1155 1140 q 1216 1129 1182 1138 q 1305 1084 1274 1115 q 1341 1005 1336 1052 q 1332 895 1347 958 l 1186 262 q 1070 48 1152 112 q 962 -1 1028 14 q 811 -17 897 -17 l 356 -17 l 283 -123 l 179 -123 l 254 -13 q 195 -1 228 -11 q 112 50 139 15 q 81 137 84 85 q 95 262 78 189 l 240 895 q 355 1083 270 1022 q 596 1143 441 1143 l 1053 1143 m 676 596 l 801 779 l 806 799 q 781 872 823 872 q 746 857 761 872 q 722 799 732 841 l 676 596 z "},"∞":{"ha":1039,"x_min":132,"x_max":1146,"o":"m 610 632 q 725 716 650 684 q 891 748 799 748 q 1080 680 1013 748 q 1123 511 1146 613 q 1001 340 1099 408 q 804 273 903 273 q 680 310 728 273 q 607 398 631 347 q 363 301 522 301 q 191 362 250 301 q 152 512 132 423 q 253 660 172 599 q 435 722 334 722 q 546 696 498 722 q 610 632 593 671 m 672 479 q 730 385 695 414 q 826 356 765 356 q 956 398 898 356 q 1030 511 1014 439 q 1007 627 1046 581 q 903 674 967 674 q 848 665 873 674 q 800 637 823 656 q 748 581 777 618 l 672 479 m 536 530 l 546 544 q 416 642 513 642 q 307 607 355 642 q 244 513 258 573 q 260 413 230 452 q 340 375 290 375 q 430 405 384 375 q 536 530 476 434 z "},"±":{"ha":734,"x_min":61,"x_max":884,"o":"m 341 518 l 154 518 l 217 792 l 405 792 l 448 980 l 739 980 l 696 792 l 884 792 l 820 518 l 632 518 l 603 391 l 791 391 l 728 117 l 61 117 l 124 391 l 312 391 l 341 518 z "},"≤":{"ha":734,"x_min":61,"x_max":958,"o":"m 897 886 l 572 757 l 838 628 l 778 367 l 188 658 l 234 857 l 958 1148 l 897 886 m 125 393 l 791 393 l 728 119 l 61 119 l 125 393 z "},"≥":{"ha":734,"x_min":61,"x_max":891,"o":"m 300 1148 l 891 857 l 845 658 l 120 367 l 181 628 l 505 757 l 240 886 l 300 1148 m 125 393 l 791 393 l 728 119 l 61 119 l 125 393 z "},"¥":{"ha":1264,"x_min":295,"x_max":1493,"o":"m 480 431 l 351 431 l 395 623 l 430 623 l 296 1137 l 784 1137 l 839 895 l 1006 1137 l 1493 1137 l 1122 623 l 1157 623 l 1112 431 l 983 431 l 980 427 l 969 379 l 1100 379 l 1056 187 l 925 187 l 880 -8 l 381 -8 l 426 187 l 295 187 l 339 379 l 470 379 l 481 427 l 480 431 z "},"µ":{"ha":1150,"x_min":-27,"x_max":1322,"o":"m 32 -8 l 32 -8 l 240 892 l 741 892 l 588 231 q 593 218 589 223 q 624 208 601 208 q 685 267 671 208 l 829 892 l 1322 892 l 1175 252 q 1045 58 1145 124 q 778 -8 945 -8 l 533 -8 l 473 -266 l -27 -266 l 32 -8 z "},"æ":{"ha":1763,"x_min":73,"x_max":1900,"o":"m 695 257 l 723 379 l 682 367 q 620 335 640 353 q 591 277 601 316 l 587 257 q 625 195 573 195 q 669 208 652 195 q 695 257 687 221 m 1280 648 l 1266 585 l 1370 585 l 1384 648 q 1347 714 1399 714 q 1305 700 1320 714 q 1280 648 1290 687 m 374 -8 q 141 57 210 -11 q 104 303 73 125 q 505 583 165 545 l 767 582 l 783 652 q 782 703 792 691 q 745 715 772 715 q 703 702 719 715 q 680 652 688 689 l 671 615 l 191 615 l 208 687 q 247 784 221 744 q 318 851 273 825 q 428 888 363 877 q 579 899 492 899 l 1615 899 q 1760 885 1701 896 q 1853 847 1819 874 q 1893 781 1886 821 q 1887 685 1900 741 l 1824 409 l 1229 409 l 1189 236 q 1223 176 1176 176 q 1261 189 1246 176 q 1283 236 1275 201 l 1312 358 l 1812 358 l 1775 200 q 1737 103 1762 143 q 1665 37 1711 64 q 1556 1 1619 11 q 1405 -8 1492 -8 l 374 -8 z "},"ø":{"ha":1161,"x_min":67,"x_max":1299,"o":"m 270 -7 q 208 1 243 -6 q 114 38 147 12 q 74 104 81 64 q 80 201 67 144 l 193 688 q 231 785 205 744 q 302 851 257 825 q 411 888 347 877 q 563 899 475 899 l 978 899 l 1074 1022 l 1175 1022 l 1078 898 q 1157 888 1115 896 q 1251 850 1218 877 q 1292 783 1284 824 q 1286 688 1299 743 l 1174 201 q 1135 105 1161 144 q 1064 39 1109 65 q 954 1 1018 12 q 803 -10 890 -10 l 369 -10 l 287 -116 l 185 -116 l 270 -7 m 732 455 l 598 284 l 588 237 q 621 178 574 178 q 659 190 645 178 q 682 237 673 202 l 732 455 m 641 468 l 774 638 l 777 650 q 744 710 791 710 q 706 697 720 710 q 683 650 691 685 l 641 468 z "},"¿":{"ha":1033,"x_min":56,"x_max":1078,"o":"m 78 190 l 112 339 q 134 405 121 379 q 166 453 147 431 q 313 528 197 485 q 440 632 429 571 l 450 677 l 945 677 q 766 437 913 522 q 611 338 620 352 q 596 297 602 325 q 596 250 588 262 q 626 238 605 238 q 682 290 670 238 l 694 342 l 1078 342 l 1043 190 q 933 45 1022 97 q 694 -7 844 -7 l 335 -7 q 122 45 188 -7 q 78 190 56 97 m 712 735 q 574 798 623 735 q 548 936 530 856 q 640 1075 567 1016 q 805 1136 715 1136 q 940 1076 895 1136 q 968 936 986 1017 q 874 794 949 856 q 712 735 801 735 z "},"¡":{"ha":513,"x_min":34,"x_max":701,"o":"m 189 669 l 632 669 l 477 -7 l 34 -7 l 189 669 m 427 735 q 289 797 337 735 q 262 936 244 856 q 354 1075 281 1016 q 519 1136 430 1136 q 655 1076 609 1136 q 682 936 701 1017 q 592 797 664 856 q 427 735 515 735 z "},"«":{"ha":942,"x_min":132,"x_max":1117,"o":"m 530 -4 l 132 422 l 739 903 l 679 639 l 414 429 l 590 257 l 530 -4 m 907 -4 l 509 422 l 1117 903 l 1056 639 l 791 429 l 967 257 l 907 -4 z "},"»":{"ha":942,"x_min":33,"x_max":1005,"o":"m 471 257 l 726 429 l 559 639 l 620 903 l 1005 422 l 410 -4 l 471 257 m 93 257 l 349 429 l 181 639 l 242 903 l 628 422 l 33 -4 l 93 257 z "},"…":{"ha":1043,"x_min":54,"x_max":1058,"o":"m 266 300 q 373 251 335 300 q 393 146 407 207 q 320 38 379 86 q 194 -7 264 -7 q 89 39 124 -7 q 68 146 54 85 q 136 251 82 207 q 266 300 196 300 m 591 300 q 698 251 661 300 q 719 146 733 207 q 645 38 705 86 q 520 -7 590 -7 q 415 39 450 -7 q 394 146 379 85 q 462 251 408 207 q 591 300 522 300 m 917 300 q 1024 251 987 300 q 1044 146 1058 207 q 971 38 1030 86 q 846 -7 916 -7 q 740 39 776 -7 q 719 146 705 85 q 788 251 733 207 q 917 300 848 300 z "}," ":{"ha":68,"x_min":0,"x_max":0,"o":""},"À":{"ha":1217,"x_min":32,"x_max":1226,"o":"m 691 502 l 756 502 l 780 748 l 691 502 m 32 -8 l 515 1136 l 1226 1136 l 1181 -8 l 686 -8 l 714 236 l 609 236 l 526 -8 l 32 -8 m 943 1502 l 1032 1213 l 779 1213 l 690 1502 l 943 1502 z "},"Ã":{"ha":1217,"x_min":32,"x_max":1244,"o":"m 691 502 l 756 502 l 780 748 l 691 502 m 32 -8 l 515 1136 l 1226 1136 l 1181 -8 l 686 -8 l 714 236 l 609 236 l 526 -8 l 32 -8 m 1244 1339 q 995 1213 1119 1213 q 848 1258 934 1213 q 789 1276 812 1276 q 652 1205 742 1276 l 588 1329 q 825 1436 712 1436 q 961 1397 889 1436 q 1029 1373 1006 1373 q 1180 1462 1082 1373 l 1244 1339 z "},"Õ":{"ha":1160,"x_min":78,"x_max":1347,"o":"m 722 799 l 614 329 q 611 272 604 287 q 638 257 618 257 q 673 272 659 257 q 698 329 688 287 l 806 799 q 781 872 823 872 q 746 857 761 872 q 722 799 732 841 m 329 -17 q 194 -1 248 -17 q 112 50 139 15 q 81 137 84 85 q 95 262 78 189 l 240 895 q 355 1083 270 1022 q 596 1143 441 1143 l 1079 1143 q 1217 1129 1161 1143 q 1305 1084 1274 1115 q 1341 1005 1336 1052 q 1332 895 1347 958 l 1186 262 q 1070 48 1152 112 q 962 -1 1028 14 q 811 -17 897 -17 l 329 -17 m 1216 1339 q 966 1213 1090 1213 q 820 1258 906 1213 q 761 1276 784 1276 q 624 1205 713 1276 l 559 1329 q 796 1437 684 1437 q 933 1398 860 1437 q 1001 1374 978 1374 q 1151 1463 1054 1374 l 1216 1339 z "},"Œ":{"ha":1610,"x_min":79,"x_max":1838,"o":"m 724 807 l 616 338 q 613 280 606 295 q 640 266 620 266 q 675 280 660 266 q 700 338 690 295 l 808 807 q 782 881 825 881 q 748 865 763 881 q 724 807 734 850 m 330 -8 q 195 7 250 -8 q 113 58 141 23 q 83 145 86 93 q 96 271 79 197 l 239 888 q 353 1076 268 1016 q 594 1136 439 1136 l 1838 1136 l 1777 871 l 1331 871 l 1306 764 l 1710 764 l 1647 490 l 1243 490 l 1193 274 l 1639 274 l 1574 -8 l 330 -8 z "},"œ":{"ha":1762,"x_min":68,"x_max":1900,"o":"m 684 654 l 589 242 q 622 182 575 182 q 660 195 646 182 q 683 242 674 207 l 778 654 q 745 714 792 714 q 707 702 721 714 q 684 654 692 689 m 1279 652 l 1265 590 l 1369 590 l 1383 652 q 1346 718 1399 718 q 1304 705 1320 718 q 1279 652 1289 691 m 353 -8 q 207 6 266 -5 q 115 43 148 17 q 75 109 82 68 q 81 206 68 149 l 194 692 q 232 789 207 749 q 303 855 258 829 q 412 892 348 881 q 564 903 476 903 l 1611 903 q 1760 889 1701 900 q 1852 852 1819 878 q 1893 785 1885 825 q 1887 689 1900 745 l 1823 413 l 1229 413 l 1189 240 q 1222 180 1175 180 q 1260 193 1245 180 q 1282 240 1274 205 l 1311 362 l 1811 362 l 1775 204 q 1736 108 1762 147 q 1665 42 1710 68 q 1555 4 1619 15 q 1404 -7 1491 -7 l 353 -8 z "},"–":{"ha":847,"x_min":133,"x_max":975,"o":"m 196 702 l 975 702 l 911 428 l 133 428 l 196 702 z "},"—":{"ha":1109,"x_min":133,"x_max":1238,"o":"m 196 702 l 1238 702 l 1174 428 l 133 428 l 196 702 z "},"“":{"ha":727,"x_min":324,"x_max":1012,"o":"m 912 1473 q 979 1428 944 1471 q 998 1320 1012 1382 q 929 1213 984 1259 q 798 1163 868 1163 q 690 1210 726 1163 q 668 1320 653 1258 q 699 1385 676 1356 q 709 1399 702 1392 q 742 1431 722 1414 q 750 1429 717 1410 l 767 1453 q 988 1537 812 1491 l 977 1494 q 912 1473 926 1480 m 583 1473 q 648 1494 597 1480 l 659 1537 q 438 1453 483 1491 l 421 1429 q 413 1431 388 1410 q 380 1399 393 1414 q 369 1385 373 1392 q 338 1320 347 1356 q 361 1210 324 1258 q 469 1163 397 1163 q 600 1213 539 1163 q 669 1320 655 1259 q 650 1428 683 1382 q 583 1473 615 1471 z "},"”":{"ha":727,"x_min":337,"x_max":1025,"o":"m 437 1221 q 370 1267 405 1223 q 351 1375 337 1312 q 420 1482 365 1436 q 551 1532 481 1532 q 659 1485 623 1532 q 682 1375 696 1437 q 651 1309 673 1339 q 640 1295 647 1303 q 607 1264 627 1281 q 599 1265 632 1285 l 582 1242 q 360 1157 537 1203 l 372 1201 q 437 1221 423 1214 m 766 1221 q 701 1201 752 1214 l 690 1157 q 911 1242 866 1203 l 928 1265 q 936 1264 961 1285 q 969 1295 957 1281 q 980 1309 976 1303 q 1010 1375 1002 1339 q 988 1485 1025 1437 q 880 1532 952 1532 q 749 1482 810 1532 q 681 1375 694 1436 q 700 1267 666 1312 q 766 1221 734 1223 z "},"‘":{"ha":398,"x_min":324,"x_max":683,"o":"m 583 1473 q 648 1494 597 1480 l 659 1537 q 438 1453 483 1491 l 421 1429 q 413 1431 388 1410 q 380 1399 393 1414 q 369 1385 373 1392 q 338 1320 347 1356 q 361 1210 324 1258 q 469 1163 397 1163 q 600 1213 539 1163 q 669 1320 655 1259 q 650 1428 683 1382 q 583 1473 615 1471 z "},"’":{"ha":398,"x_min":337,"x_max":696,"o":"m 437 1221 q 370 1267 405 1223 q 351 1375 337 1312 q 420 1482 365 1436 q 551 1532 481 1532 q 659 1485 623 1532 q 682 1375 696 1437 q 651 1309 673 1339 q 640 1295 647 1303 q 607 1264 627 1281 q 599 1265 632 1285 l 582 1242 q 360 1157 537 1203 l 372 1201 q 437 1221 423 1214 z "},"÷":{"ha":734,"x_min":133,"x_max":863,"o":"m 196 702 l 863 702 l 799 428 l 133 428 l 196 702 m 467 435 q 563 392 529 435 q 580 300 592 353 q 515 205 568 247 q 405 165 467 165 q 312 206 343 165 q 293 300 280 246 q 353 392 305 353 q 467 435 406 435 m 589 964 q 685 921 651 964 q 703 829 715 882 q 637 734 690 776 q 527 694 589 694 q 434 735 465 694 q 415 829 403 775 q 475 921 428 882 q 589 964 528 964 z "},"ÿ":{"ha":1156,"x_min":24,"x_max":1330,"o":"m 836 899 l 1330 899 l 1116 -25 q 1071 -149 1097 -108 q 1000 -215 1045 -189 q 891 -253 954 -242 q 740 -264 827 -264 l 24 -264 l 67 -78 l 516 -78 q 595 -69 575 -78 q 628 -13 614 -61 q 472 -14 541 -14 l 368 -14 q 132 56 200 -14 q 93 254 63 126 l 241 899 l 739 899 l 594 270 q 595 222 586 234 q 630 210 604 210 q 668 222 653 210 q 690 270 682 234 l 836 899 m 700 1240 q 795 1197 762 1240 q 813 1105 825 1158 q 748 1009 801 1052 q 637 970 700 970 q 544 1011 575 970 q 526 1105 513 1051 q 586 1197 538 1158 q 700 1240 638 1240 m 1028 1240 q 1123 1197 1090 1240 q 1141 1105 1153 1158 q 1076 1009 1128 1052 q 965 970 1027 970 q 872 1011 903 970 q 853 1105 841 1051 q 914 1197 866 1158 q 1028 1240 966 1240 z "},"Ÿ":{"ha":1264,"x_min":296,"x_max":1493,"o":"m 381 -8 l 481 427 l 296 1137 l 784 1137 l 839 895 l 1006 1137 l 1493 1137 l 980 427 l 880 -8 l 381 -8 m 810 1483 q 905 1440 872 1483 q 923 1349 936 1401 q 859 1253 911 1296 q 748 1214 810 1214 q 655 1254 686 1214 q 636 1349 624 1295 q 696 1440 648 1401 q 810 1483 749 1483 m 1138 1483 q 1233 1440 1200 1483 q 1251 1349 1263 1401 q 1186 1253 1239 1296 q 1076 1214 1138 1214 q 983 1254 1014 1214 q 964 1349 951 1295 q 1024 1440 976 1401 q 1138 1483 1077 1483 z "},"∕":{"ha":1253,"x_min":18,"x_max":1514,"o":"m 1514 1278 l 190 -69 l 18 -69 l 1342 1278 l 1514 1278 z "},"€":{"ha":969,"x_min":107,"x_max":1197,"o":"m 657 319 l 651 293 q 650 239 643 255 q 670 229 655 230 l 988 229 l 932 -10 l 397 -10 q 201 50 251 -10 q 188 239 157 104 l 206 319 l 107 319 l 152 511 l 251 511 l 274 614 l 176 614 l 220 806 l 318 806 l 343 911 q 448 1081 369 1024 q 661 1135 522 1135 l 1197 1135 l 1140 888 l 823 888 q 797 878 805 888 q 774 823 783 863 l 770 806 l 889 806 l 845 614 l 726 614 l 702 511 l 822 511 l 777 319 l 657 319 z "},"‹":{"ha":565,"x_min":132,"x_max":739,"o":"m 530 -4 l 132 422 l 739 903 l 679 639 l 414 429 l 590 257 l 530 -4 z "},"›":{"ha":565,"x_min":33,"x_max":628,"o":"m 93 257 l 349 429 l 181 639 l 242 903 l 628 422 l 33 -4 l 93 257 z "},"ﬁ":{"ha":1349,"x_min":150,"x_max":1577,"o":"m 366 925 q 404 1022 378 982 q 475 1088 430 1062 q 584 1125 519 1114 q 736 1136 648 1136 l 1577 1136 l 1518 882 l 943 882 q 865 873 885 882 q 840 842 845 865 l 826 784 l 950 784 l 907 597 l 783 597 l 644 -8 l 150 -8 l 290 597 l 172 597 l 215 784 l 333 784 l 366 925 m 819 -8 l 1004 791 l 1496 791 l 1312 -8 l 819 -8 z "},"ﬂ":{"ha":1348,"x_min":150,"x_max":1576,"o":"m 1025 882 l 943 882 q 865 873 885 882 q 840 842 845 865 l 826 784 l 950 784 l 907 597 l 783 597 l 644 -8 l 150 -8 l 290 597 l 172 597 l 215 784 l 333 784 l 366 925 q 404 1022 378 982 q 475 1088 430 1062 q 584 1125 519 1114 q 736 1136 648 1136 l 1576 1136 l 1312 -8 l 819 -8 l 1025 882 z "},"‡":{"ha":710,"x_min":70,"x_max":910,"o":"m 442 824 l 224 824 l 268 1013 l 486 1013 l 536 1231 l 743 1231 l 692 1013 l 910 1013 l 866 824 l 648 824 l 538 346 l 756 346 l 712 156 l 494 156 l 444 -62 l 238 -62 l 288 156 l 70 156 l 114 346 l 332 346 l 442 824 z "},"∙":{"ha":488,"x_min":145,"x_max":603,"o":"m 420 765 q 557 702 510 765 q 584 564 603 644 q 489 421 566 484 q 327 363 417 363 q 192 423 238 363 q 164 564 145 483 q 258 705 183 644 q 420 765 331 765 z "},"‚":{"ha":398,"x_min":53,"x_max":412,"o":"m 153 -10 q 86 36 121 -8 q 67 143 53 81 q 136 251 81 205 q 267 300 197 300 q 375 254 339 300 q 397 143 412 205 q 367 78 389 107 q 355 64 363 72 q 323 33 343 49 q 315 34 348 53 l 298 11 q 76 -74 253 -28 l 88 -31 q 153 -10 139 -17 z "},"„":{"ha":714,"x_min":53,"x_max":729,"o":"m 153 -10 q 86 36 121 -8 q 67 143 53 81 q 136 251 81 205 q 267 300 197 300 q 375 254 339 300 q 397 143 412 205 q 367 78 389 107 q 355 64 363 72 q 323 33 343 49 q 315 34 348 53 l 298 11 q 76 -74 253 -28 l 88 -31 q 153 -10 139 -17 m 470 -10 q 403 36 438 -8 q 384 143 370 81 q 453 251 398 205 q 584 300 514 300 q 692 254 656 300 q 714 143 729 205 q 684 78 706 107 q 672 64 680 72 q 640 33 660 49 q 632 34 665 53 l 615 11 q 393 -74 570 -28 l 405 -31 q 470 -10 456 -17 z "},"‰":{"ha":1679,"x_min":18,"x_max":1754,"o":"m 1514 1278 l 190 -69 l 18 -69 l 1342 1278 l 1514 1278 m 396 690 q 302 720 326 690 q 295 806 281 745 l 352 1055 q 401 1133 364 1106 q 505 1160 438 1160 l 695 1160 q 754 1153 730 1160 q 792 1133 779 1146 q 808 1100 806 1119 q 805 1055 810 1080 l 747 806 q 699 719 733 744 q 587 690 662 690 l 396 690 m 563 1016 l 520 829 q 518 810 516 813 q 521 806 520 806 q 526 810 523 806 q 533 829 529 813 l 576 1016 q 575 1040 582 1040 q 570 1037 574 1040 q 563 1016 567 1033 m 886 81 q 792 111 816 81 q 785 197 771 136 l 843 446 q 891 524 854 497 q 995 551 928 551 l 1186 551 q 1245 544 1220 551 q 1283 524 1269 537 q 1298 491 1296 510 q 1295 446 1301 471 l 1237 197 q 1189 110 1223 135 q 1077 81 1152 81 l 886 81 m 1053 407 l 1010 220 q 1008 201 1006 204 q 1011 197 1010 197 q 1016 201 1013 197 q 1023 220 1019 204 l 1066 407 q 1065 431 1072 431 q 1061 428 1064 431 q 1053 407 1057 424 m 1340 81 q 1245 111 1270 81 q 1238 197 1224 136 l 1296 446 q 1345 524 1308 497 q 1448 551 1381 551 l 1639 551 q 1698 544 1674 551 q 1736 524 1723 537 q 1752 491 1749 510 q 1748 446 1754 471 l 1691 197 q 1642 110 1676 135 q 1531 81 1605 81 l 1340 81 m 1507 407 l 1463 220 q 1461 201 1460 204 q 1464 197 1463 197 q 1469 201 1466 197 q 1476 220 1473 204 l 1519 407 q 1518 431 1525 431 q 1514 428 1517 431 q 1507 407 1511 424 z "},"Â":{"ha":1217,"x_min":32,"x_max":1226,"o":"m 691 502 l 756 502 l 780 748 l 691 502 m 32 -8 l 515 1136 l 1226 1136 l 1181 -8 l 686 -8 l 714 236 l 609 236 l 526 -8 l 32 -8 m 965 1212 l 916 1332 l 811 1212 l 602 1212 l 856 1503 l 1060 1503 l 1058 1495 l 1174 1212 l 965 1212 z "},"Ê":{"ha":1003,"x_min":32,"x_max":1231,"o":"m 32 -8 l 296 1136 l 1231 1136 l 1168 862 l 722 862 l 684 702 l 1089 702 l 1026 428 l 621 428 l 584 266 l 1030 266 l 967 -8 l 32 -8 m 871 1214 l 823 1333 l 718 1214 l 509 1214 l 763 1505 l 967 1505 l 965 1497 l 1081 1214 l 871 1214 z "},"Á":{"ha":1217,"x_min":32,"x_max":1226,"o":"m 691 502 l 756 502 l 780 748 l 691 502 m 32 -8 l 515 1136 l 1226 1136 l 1181 -8 l 686 -8 l 714 236 l 609 236 l 526 -8 l 32 -8 m 1220 1501 l 998 1213 l 744 1213 l 967 1501 l 1220 1501 z "},"Ë":{"ha":1003,"x_min":32,"x_max":1231,"o":"m 32 -8 l 296 1136 l 1231 1136 l 1168 862 l 722 862 l 684 702 l 1089 702 l 1026 428 l 621 428 l 584 266 l 1030 266 l 967 -8 l 32 -8 m 679 1482 q 774 1439 741 1482 q 792 1348 804 1400 q 727 1252 780 1295 q 616 1213 679 1213 q 523 1253 554 1213 q 505 1348 492 1294 q 565 1439 517 1400 q 679 1482 617 1482 m 1007 1482 q 1102 1439 1069 1482 q 1120 1348 1132 1400 q 1055 1252 1107 1295 q 944 1213 1006 1213 q 851 1253 882 1213 q 832 1348 820 1294 q 893 1439 845 1400 q 1007 1482 945 1482 z "},"È":{"ha":1003,"x_min":32,"x_max":1231,"o":"m 32 -8 l 296 1136 l 1231 1136 l 1168 862 l 722 862 l 684 702 l 1089 702 l 1026 428 l 621 428 l 584 266 l 1030 266 l 967 -8 l 32 -8 m 836 1501 l 925 1213 l 671 1213 l 583 1501 l 836 1501 z "},"Í":{"ha":579,"x_min":32,"x_max":892,"o":"m 32 -8 l 296 1136 l 788 1136 l 524 -8 l 32 -8 m 892 1501 l 669 1213 l 416 1213 l 638 1501 l 892 1501 z "},"Î":{"ha":640,"x_min":72,"x_max":886,"o":"m 72 -8 l 336 1136 l 828 1136 l 564 -8 l 72 -8 m 676 1213 l 628 1332 l 523 1213 l 314 1213 l 568 1503 l 772 1504 l 770 1495 l 886 1213 l 676 1213 z "},"Ï":{"ha":683,"x_min":93,"x_max":972,"o":"m 93 -8 l 357 1136 l 850 1136 l 586 -8 l 93 -8 m 519 1482 q 614 1439 581 1482 q 632 1347 644 1400 q 567 1252 620 1294 q 457 1212 519 1212 q 363 1253 395 1212 q 345 1347 332 1293 q 405 1439 357 1400 q 519 1482 458 1482 m 847 1482 q 942 1439 909 1482 q 960 1347 972 1400 q 895 1252 948 1294 q 785 1212 847 1212 q 691 1253 723 1212 q 673 1347 660 1293 q 733 1439 685 1400 q 847 1482 786 1482 z "},"Ì":{"ha":579,"x_min":51,"x_max":808,"o":"m 51 -8 l 315 1136 l 808 1136 l 544 -8 l 51 -8 m 634 1501 l 723 1212 l 469 1212 l 380 1501 l 634 1501 z "},"Ó":{"ha":1160,"x_min":78,"x_max":1347,"o":"m 722 799 l 614 329 q 611 272 604 287 q 638 257 618 257 q 673 272 659 257 q 698 329 688 287 l 806 799 q 781 872 823 872 q 746 857 761 872 q 722 799 732 841 m 329 -17 q 194 -1 248 -17 q 112 50 139 15 q 81 137 84 85 q 95 262 78 189 l 240 895 q 355 1083 270 1022 q 596 1143 441 1143 l 1079 1143 q 1217 1129 1161 1143 q 1305 1084 1274 1115 q 1341 1005 1336 1052 q 1332 895 1347 958 l 1186 262 q 1070 48 1152 112 q 962 -1 1028 14 q 811 -17 897 -17 l 329 -17 m 1192 1501 l 969 1213 l 716 1213 l 939 1501 l 1192 1501 z "},"Ô":{"ha":1160,"x_min":78,"x_max":1347,"o":"m 722 799 l 614 329 q 611 272 604 287 q 638 257 618 257 q 673 272 659 257 q 698 329 688 287 l 806 799 q 781 872 823 872 q 746 857 761 872 q 722 799 732 841 m 329 -17 q 194 -1 248 -17 q 112 50 139 15 q 81 137 84 85 q 95 262 78 189 l 240 895 q 355 1083 270 1022 q 596 1143 441 1143 l 1079 1143 q 1217 1129 1161 1143 q 1305 1084 1274 1115 q 1341 1005 1336 1052 q 1332 895 1347 958 l 1186 262 q 1070 48 1152 112 q 962 -1 1028 14 q 811 -17 897 -17 l 329 -17 m 937 1213 l 887 1332 l 783 1213 l 574 1213 l 828 1503 l 1031 1504 l 1030 1495 l 1146 1213 l 937 1213 z "},"Ò":{"ha":1160,"x_min":78,"x_max":1347,"o":"m 722 799 l 614 329 q 611 272 604 287 q 638 257 618 257 q 673 272 659 257 q 698 329 688 287 l 806 799 q 781 872 823 872 q 746 857 761 872 q 722 799 732 841 m 329 -17 q 194 -1 248 -17 q 112 50 139 15 q 81 137 84 85 q 95 262 78 189 l 240 895 q 355 1083 270 1022 q 596 1143 441 1143 l 1079 1143 q 1217 1129 1161 1143 q 1305 1084 1274 1115 q 1341 1005 1336 1052 q 1332 895 1347 958 l 1186 262 q 1070 48 1152 112 q 962 -1 1028 14 q 811 -17 897 -17 l 329 -17 m 915 1501 l 1003 1213 l 750 1213 l 661 1501 l 915 1501 z "},"Ú":{"ha":1160,"x_min":78,"x_max":1391,"o":"m 886 1143 l 1391 1143 l 1332 895 l 1186 262 q 1070 48 1152 112 q 962 -1 1028 14 q 811 -17 897 -17 l 329 -17 q 194 -1 248 -17 q 112 50 139 15 q 81 137 84 85 q 95 262 78 189 l 298 1143 l 596 1143 l 802 1143 l 614 329 q 611 272 604 287 q 638 257 618 257 q 673 272 659 257 q 698 329 688 287 l 886 1143 m 1179 1501 l 957 1213 l 703 1213 l 926 1501 l 1179 1501 z "},"Û":{"ha":1160,"x_min":78,"x_max":1391,"o":"m 886 1143 l 1391 1143 l 1332 895 l 1186 262 q 1070 48 1152 112 q 962 -1 1028 14 q 811 -17 897 -17 l 329 -17 q 194 -1 248 -17 q 112 50 139 15 q 81 137 84 85 q 95 262 78 189 l 298 1143 l 596 1143 l 802 1143 l 614 329 q 611 272 604 287 q 638 257 618 257 q 673 272 659 257 q 698 329 688 287 l 886 1143 m 923 1213 l 874 1332 l 770 1213 l 561 1213 l 814 1503 l 1018 1504 l 1017 1495 l 1133 1213 l 923 1213 z "},"Ù":{"ha":1160,"x_min":78,"x_max":1391,"o":"m 886 1143 l 1391 1143 l 1332 895 l 1186 262 q 1070 48 1152 112 q 962 -1 1028 14 q 811 -17 897 -17 l 329 -17 q 194 -1 248 -17 q 112 50 139 15 q 81 137 84 85 q 95 262 78 189 l 298 1143 l 596 1143 l 802 1143 l 614 329 q 611 272 604 287 q 638 257 618 257 q 673 272 659 257 q 698 329 688 287 l 886 1143 m 901 1501 l 990 1213 l 737 1213 l 648 1501 l 901 1501 z "},"ı":{"ha":560,"x_min":32,"x_max":734,"o":"m 32 -8 l 241 899 l 734 899 l 524 -8 l 32 -8 z "},"ˆ":{"ha":640,"x_min":314,"x_max":887,"o":"m 677 1214 l 628 1333 l 524 1214 l 314 1214 l 568 1505 l 772 1505 l 770 1497 l 887 1214 l 677 1214 z "},"˜":{"ha":722,"x_min":341,"x_max":997,"o":"m 997 1340 q 747 1214 871 1214 q 601 1259 687 1214 q 542 1277 565 1277 q 405 1206 494 1277 l 341 1330 q 577 1438 465 1438 q 714 1399 641 1438 q 782 1375 759 1375 q 932 1464 834 1375 l 997 1340 z "},"ˉ":{"ha":650,"x_min":315,"x_max":941,"o":"m 941 1409 l 897 1219 l 315 1219 l 359 1409 l 941 1409 z "},"˘":{"ha":539,"x_min":370,"x_max":832,"o":"m 744 1457 q 686 1384 731 1418 q 580 1347 636 1347 q 491 1384 523 1347 q 467 1457 461 1418 l 370 1457 q 371 1459 371 1459 q 379 1371 371 1415 q 412 1296 387 1329 q 472 1248 436 1265 q 553 1231 509 1231 q 642 1248 597 1231 q 724 1296 685 1265 q 791 1371 763 1329 q 832 1466 820 1415 q 831 1457 817 1297 l 744 1457 z "},"˙":{"ha":355,"x_min":333,"x_max":645,"o":"m 519 1483 q 615 1440 582 1483 q 633 1349 645 1402 q 568 1253 621 1296 q 457 1214 519 1214 q 364 1254 395 1214 q 346 1349 333 1295 q 406 1440 358 1402 q 519 1483 458 1483 z "},"˚":{"ha":488,"x_min":342,"x_max":799,"o":"m 616 1615 q 754 1553 706 1615 q 780 1415 799 1495 q 685 1272 762 1335 q 524 1214 613 1214 q 388 1274 434 1214 q 360 1415 342 1334 q 454 1556 379 1495 q 616 1615 528 1615 m 583 1471 q 545 1454 566 1471 q 522 1415 528 1440 q 528 1374 516 1389 q 557 1358 540 1358 q 595 1375 574 1358 q 618 1415 612 1389 q 613 1454 624 1440 q 583 1471 601 1471 z "},"¸":{"ha":432,"x_min":-34,"x_max":373,"o":"m 370 -121 q 356 -156 367 -136 l 306 -257 q 253 -317 287 -296 q 175 -335 223 -335 l 41 -335 q 0 -330 16 -335 q -27 -313 -19 -325 q -32 -289 -34 -303 q -20 -257 -30 -276 l 5 -206 l 169 -206 l 157 -231 q 146 -245 150 -245 q 145 -245 145 -245 q 155 -231 150 -241 l 183 -175 q 198 -158 189 -163 q 194 -161 198 -157 l 158 -161 l 158 -160 l 113 -160 l 198 9 l 309 9 l 269 -72 l 302 -72 q 342 -77 327 -72 q 366 -92 361 -82 q 370 -121 373 -106 z "},"˝":{"ha":706,"x_min":314,"x_max":1025,"o":"m 1025 1528 l 854 1214 l 608 1214 l 778 1528 l 1025 1528 m 731 1528 l 561 1214 l 314 1214 l 484 1528 l 731 1528 z "},"˛":{"ha":826,"x_min":-37,"x_max":803,"o":"m 582 -397 q 343 -455 486 -432 q 37 -450 115 -480 q -35 -362 -34 -424 q 18 -236 -37 -308 q 175 -91 74 -162 q 463 44 284 -14 l 803 44 q 517 -86 604 -23 q 411 -211 417 -159 q 471 -269 405 -257 q 614 -265 532 -281 l 582 -397 z "},"ˇ":{"ha":640,"x_min":381,"x_max":954,"o":"m 591 1505 l 640 1386 l 744 1505 l 954 1505 l 700 1214 l 486 1214 l 497 1223 l 381 1505 l 591 1505 z "},"Ł":{"ha":928,"x_min":94,"x_max":956,"o":"m 764 647 l 675 266 l 956 266 l 892 -8 l 123 -8 l 199 322 l 94 261 l 141 463 l 246 524 l 388 1136 l 877 1136 l 810 848 l 913 908 l 867 706 l 764 647 z "},"ł":{"ha":738,"x_min":90,"x_max":908,"o":"m 760 627 l 613 -8 l 121 -8 l 192 300 l 90 241 l 136 442 l 238 501 l 385 1136 l 877 1136 l 806 828 l 908 887 l 862 686 l 760 627 z "},"Š":{"ha":1168,"x_min":58,"x_max":1371,"o":"m 341 -9 q 123 47 189 -9 q 89 227 58 103 l 136 433 l 647 433 l 627 348 q 652 278 611 278 q 686 294 671 278 q 712 354 701 309 q 719 396 718 380 q 715 423 720 413 q 699 442 710 434 q 664 459 687 450 l 371 578 q 232 672 261 622 q 223 806 203 723 l 250 923 q 364 1081 273 1026 q 608 1136 455 1136 l 1087 1136 q 1305 1081 1240 1136 q 1347 923 1371 1026 l 1316 786 l 808 786 l 813 807 q 784 873 828 873 q 755 862 769 873 q 735 828 741 851 q 733 808 732 815 q 739 793 733 800 q 758 779 745 787 q 795 761 771 771 l 1138 615 q 1195 579 1173 600 q 1227 531 1217 559 q 1235 465 1237 503 q 1221 376 1233 427 l 1193 255 q 1069 51 1157 110 q 821 -9 981 -9 l 341 -9 m 856 1503 l 905 1384 l 1009 1503 l 1218 1503 l 964 1213 l 751 1212 l 762 1221 l 646 1503 l 856 1503 z "},"š":{"ha":1161,"x_min":67,"x_max":1298,"o":"m 1174 200 q 1135 103 1160 143 q 1064 37 1109 64 q 954 0 1018 11 q 802 -11 889 -11 l 352 -11 q 206 0 265 -11 q 114 37 147 11 q 74 103 81 62 q 80 200 67 143 l 107 318 l 606 318 l 587 236 q 621 176 574 176 q 659 189 644 176 q 681 236 673 201 l 687 259 q 609 339 700 314 l 357 404 q 199 479 235 437 q 181 602 162 520 l 200 685 q 239 782 214 742 q 311 848 265 822 q 420 885 356 874 q 572 896 485 896 l 1012 896 q 1158 885 1099 896 q 1251 847 1217 874 q 1291 781 1284 821 q 1285 685 1298 741 l 1270 617 l 775 617 l 782 648 q 749 707 795 707 q 713 696 729 707 q 692 666 697 686 q 691 642 689 652 q 701 624 692 632 q 731 608 710 616 q 790 590 752 600 l 979 540 q 1174 449 1130 499 q 1198 307 1220 401 l 1174 200 m 795 1263 l 844 1143 l 949 1263 l 1158 1263 l 904 972 l 690 971 l 702 981 l 586 1263 l 795 1263 z "},"Ž":{"ha":994,"x_min":32,"x_max":1223,"o":"m 1223 1137 l 1166 892 l 686 266 l 1022 266 l 959 -8 l 32 -8 l 90 243 l 568 863 l 263 863 l 327 1137 l 1223 1137 m 768 1503 l 817 1384 l 921 1503 l 1131 1503 l 877 1213 l 663 1212 l 674 1221 l 558 1503 l 768 1503 z "},"ž":{"ha":960,"x_min":32,"x_max":1111,"o":"m 32 -8 l 72 163 l 522 695 l 226 695 l 273 899 l 1111 899 l 1071 726 l 620 190 l 970 190 l 924 -8 l 32 -8 m 695 1263 l 744 1143 l 848 1263 l 1058 1263 l 803 972 l 590 971 l 601 981 l 485 1263 l 695 1263 z "},"¦":{"ha":277,"x_min":-28,"x_max":568,"o":"m 328 368 l 181 -269 l -28 -269 l 119 368 l 328 368 m 568 1409 l 421 772 l 212 772 l 359 1409 l 568 1409 z "},"Ð":{"ha":1225,"x_min":115,"x_max":1410,"o":"m 270 660 l 379 1136 l 1145 1136 q 1283 1121 1227 1136 q 1369 1075 1338 1106 q 1405 996 1399 1044 q 1395 885 1410 949 l 1254 272 q 1138 57 1219 120 q 1031 7 1096 23 q 881 -8 966 -8 l 115 -8 l 225 468 l 142 468 l 186 660 l 270 660 m 762 660 l 845 660 l 800 468 l 717 468 l 671 266 l 704 266 q 746 280 732 266 q 770 338 760 293 l 874 790 q 877 848 885 835 q 842 862 869 862 l 808 862 l 762 660 z "},"ð":{"ha":1194,"x_min":91,"x_max":1302,"o":"m 795 648 q 790 690 802 675 q 758 708 777 708 q 716 690 738 708 q 692 648 698 675 l 594 223 q 601 177 588 196 q 632 162 612 162 q 669 177 651 162 q 697 223 691 196 l 795 648 m 1273 497 q 1262 442 1268 467 q 1087 127 1218 248 q 731 -8 941 -8 l 459 -8 q 166 127 250 -8 q 136 442 91 248 q 311 756 181 635 q 667 892 457 892 l 893 892 q 782 1011 864 970 l 740 938 l 599 981 l 645 1061 q 559 1072 611 1069 l 646 1198 q 722 1196 697 1198 l 770 1280 l 911 1236 l 876 1175 q 1260 813 1180 1107 q 1273 497 1302 657 z "},"Ý":{"ha":1264,"x_min":296,"x_max":1493,"o":"m 381 -8 l 481 427 l 296 1137 l 784 1137 l 839 895 l 1006 1137 l 1493 1137 l 980 427 l 880 -8 l 381 -8 m 1244 1502 l 1022 1213 l 769 1213 l 991 1502 l 1244 1502 z "},"ý":{"ha":1156,"x_min":24,"x_max":1330,"o":"m 836 899 l 1330 899 l 1116 -25 q 1071 -149 1097 -108 q 1000 -215 1045 -189 q 891 -253 954 -242 q 740 -264 827 -264 l 24 -264 l 67 -78 l 516 -78 q 595 -69 575 -78 q 628 -13 614 -61 q 472 -14 541 -14 l 368 -14 q 132 56 200 -14 q 93 254 63 126 l 241 899 l 739 899 l 594 270 q 595 222 586 234 q 630 210 604 210 q 668 222 653 210 q 690 270 682 234 l 836 899 m 1134 1261 l 912 972 l 659 972 l 881 1261 l 1134 1261 z "},"Þ":{"ha":1147,"x_min":32,"x_max":1298,"o":"m 739 716 l 693 716 l 624 416 l 667 416 q 706 430 691 416 q 731 488 721 445 l 767 643 q 769 701 777 686 q 739 716 761 716 m 32 -8 l 296 1136 l 792 1137 l 757 987 l 1031 987 q 1170 972 1114 987 q 1256 926 1225 957 q 1292 847 1287 895 q 1283 735 1298 800 l 1211 425 q 1094 209 1176 270 q 837 144 1010 144 l 562 144 l 526 -8 l 32 -8 z "},"þ":{"ha":1161,"x_min":-27,"x_max":1300,"o":"m 745 714 q 685 656 698 714 l 591 253 q 625 195 578 195 q 663 207 649 195 q 685 253 677 218 l 779 656 q 745 714 792 714 m 732 899 l 1013 899 q 1159 888 1100 899 q 1251 851 1218 877 q 1292 786 1285 826 q 1287 692 1300 747 l 1172 195 q 1134 102 1160 141 q 1063 37 1109 62 q 954 0 1018 11 q 802 -11 889 -11 l 525 -11 l 467 -264 l -27 -264 l 296 1136 l 786 1136 l 732 899 z "},"−":{"ha":734,"x_min":133,"x_max":863,"o":"m 196 702 l 863 702 l 799 428 l 133 428 l 196 702 z "},"×":{"ha":733,"x_min":134,"x_max":860,"o":"m 451 365 l 287 232 l 134 432 l 297 565 l 195 697 l 441 897 l 543 764 l 707 897 l 860 697 l 697 565 l 799 432 l 553 232 l 451 365 z "},"¹":{"ha":323,"x_min":223,"x_max":548,"o":"m 223 652 l 289 940 l 251 940 l 293 1120 l 548 1120 l 439 652 l 223 652 z "},"²":{"ha":514,"x_min":184,"x_max":728,"o":"m 184 652 l 209 758 l 467 945 q 480 958 474 950 q 488 975 486 966 q 490 994 491 990 q 488 998 488 998 q 484 994 488 998 q 477 979 480 990 l 470 944 l 252 944 l 271 1027 q 320 1095 281 1070 q 422 1120 359 1120 l 609 1120 q 700 1095 673 1120 q 718 1027 728 1070 l 700 951 q 682 902 693 922 q 648 868 670 883 l 513 770 l 659 770 l 631 652 l 184 652 z "},"³":{"ha":511,"x_min":196,"x_max":724,"o":"m 652 758 q 603 679 640 706 q 498 652 566 652 l 313 652 q 223 677 250 652 q 207 746 196 703 l 227 833 l 444 833 l 435 796 q 433 776 432 780 q 435 772 435 772 q 439 776 435 772 q 446 796 442 779 l 452 823 q 444 847 457 847 l 387 847 l 415 966 l 468 966 q 490 988 485 966 q 490 1004 493 1000 q 489 1008 488 1008 q 485 1005 489 1008 q 478 989 481 1001 l 474 972 l 258 972 l 271 1026 q 320 1095 281 1069 q 421 1120 358 1120 l 607 1120 q 697 1095 670 1120 q 714 1026 724 1069 l 707 996 q 674 937 699 961 q 629 906 650 912 q 640 897 626 907 q 662 874 655 888 q 668 843 669 861 q 662 801 668 825 l 652 758 z "},"½":{"ha":1253,"x_min":18,"x_max":1514,"o":"m 1514 1278 l 190 -69 l 18 -69 l 1342 1278 l 1514 1278 m 738 79 l 762 185 l 1021 372 q 1033 385 1028 377 q 1041 402 1039 393 q 1043 421 1045 417 q 1042 425 1042 425 q 1038 421 1042 425 q 1031 406 1034 417 l 1023 371 l 805 371 l 824 454 q 873 522 834 497 q 976 547 912 547 l 1162 547 q 1254 522 1226 547 q 1271 454 1281 497 l 1253 378 q 1235 329 1246 349 q 1201 295 1223 310 l 1066 197 l 1212 197 l 1184 79 l 738 79 m 430 676 l 497 965 l 459 965 l 500 1144 l 755 1144 l 647 676 l 430 676 z "},"¼":{"ha":1253,"x_min":18,"x_max":1514,"o":"m 1514 1278 l 190 -69 l 18 -69 l 1342 1278 l 1514 1278 m 430 676 l 497 965 l 459 965 l 500 1144 l 755 1144 l 647 676 l 430 676 m 903 289 l 920 289 l 928 327 l 903 289 m 872 81 l 892 170 l 679 170 l 702 270 l 893 544 l 1195 544 l 1136 289 l 1196 289 l 1169 170 l 1109 170 l 1088 81 l 872 81 z "},"¾":{"ha":1253,"x_min":18,"x_max":1514,"o":"m 1514 1278 l 190 -69 l 18 -69 l 1342 1278 l 1514 1278 m 910 289 l 927 289 l 936 327 l 910 289 m 879 81 l 900 170 l 686 170 l 709 270 l 900 544 l 1202 544 l 1143 289 l 1203 289 l 1176 170 l 1116 170 l 1095 81 l 879 81 m 739 777 q 690 698 727 725 q 585 671 652 671 l 400 671 q 310 697 336 671 q 293 766 283 722 l 313 852 l 531 852 l 522 815 q 520 795 518 799 q 522 792 522 792 q 525 795 522 792 q 532 815 529 799 l 538 842 q 531 866 544 866 l 474 866 l 502 985 l 555 985 q 577 1008 572 985 q 577 1024 579 1019 q 576 1028 575 1028 q 572 1024 576 1028 q 565 1008 567 1020 l 561 991 l 345 991 l 357 1045 q 406 1114 368 1088 q 508 1139 445 1139 l 693 1139 q 784 1114 757 1139 q 801 1045 811 1088 l 794 1016 q 761 956 786 980 q 715 925 736 932 q 727 917 712 926 q 749 894 742 907 q 755 862 755 880 q 749 821 754 844 l 739 777 z "},"Ğ":{"ha":1139,"x_min":79,"x_max":1321,"o":"m 698 399 l 635 399 l 697 667 l 1252 667 l 1147 209 q 880 -8 1103 -8 l 567 -8 l 323 -8 q 191 7 244 -8 q 112 58 138 23 q 82 145 85 93 q 96 271 79 197 l 242 903 q 355 1091 272 1031 q 591 1152 439 1152 l 1061 1152 q 1196 1137 1141 1152 q 1281 1092 1251 1123 q 1316 1014 1311 1061 q 1306 903 1321 967 l 1278 781 l 785 781 l 792 807 q 795 815 793 810 q 797 822 797 820 q 794 866 804 852 q 768 881 785 881 q 736 865 750 881 q 712 807 722 850 l 604 338 q 600 280 593 295 q 626 266 607 266 q 660 280 646 266 q 684 338 674 295 l 698 399 m 1041 1456 q 983 1383 1028 1417 q 877 1345 934 1345 q 788 1383 820 1345 q 764 1456 759 1417 l 668 1456 q 668 1458 668 1458 q 677 1370 668 1414 q 710 1295 685 1328 q 770 1247 733 1264 q 850 1230 806 1230 q 939 1247 895 1230 q 1022 1295 983 1264 q 1088 1370 1061 1328 q 1129 1465 1118 1414 q 1128 1456 1114 1296 l 1041 1456 z "},"ğ":{"ha":1156,"x_min":63,"x_max":1329,"o":"m 1116 -25 q 1071 -148 1097 -108 q 1000 -215 1045 -189 q 891 -253 955 -242 q 740 -264 827 -264 l 151 -264 l 195 -77 l 555 -77 q 629 -8 619 -77 q 474 -8 543 -8 q 370 -8 406 -8 q 133 59 203 -8 q 93 255 63 126 l 181 636 q 312 835 211 765 q 575 899 413 905 l 1329 899 l 1116 -25 m 771 621 q 770 669 779 656 q 738 681 762 681 q 675 621 689 681 l 594 270 q 595 222 586 235 q 630 210 604 210 q 668 222 654 210 q 690 270 682 235 l 771 621 m 997 1215 q 939 1142 984 1176 q 833 1104 889 1104 q 744 1142 776 1104 q 720 1215 715 1176 l 624 1215 q 624 1217 624 1217 q 632 1128 624 1173 q 665 1054 641 1086 q 725 1006 689 1023 q 806 989 762 989 q 895 1006 850 989 q 977 1054 938 1023 q 1044 1129 1017 1086 q 1085 1224 1074 1173 q 1084 1215 1070 1055 l 997 1215 z "},"İ":{"ha":560,"x_min":32,"x_max":788,"o":"m 32 -8 l 296 1136 l 788 1136 l 524 -8 l 32 -8 m 622 1482 q 717 1439 684 1482 q 734 1348 747 1401 q 670 1252 722 1295 q 559 1213 622 1213 q 466 1253 497 1213 q 447 1348 435 1294 q 508 1439 459 1401 q 622 1482 560 1482 z "},"Ş":{"ha":1168,"x_min":58,"x_max":1371,"o":"m 669 -1 l 641 -57 l 674 -57 q 715 -62 699 -57 q 739 -77 734 -67 q 742 -106 746 -91 q 729 -141 739 -121 l 679 -242 q 625 -302 660 -281 q 547 -320 596 -320 l 414 -320 q 372 -315 389 -320 q 346 -298 353 -310 q 341 -274 339 -288 q 352 -242 343 -261 l 378 -191 l 542 -191 l 529 -216 q 519 -231 522 -231 q 518 -231 518 -231 q 528 -216 523 -227 l 556 -160 q 571 -143 562 -148 q 566 -146 571 -142 l 531 -146 l 531 -145 l 485 -145 l 554 -9 l 341 -9 q 123 47 189 -9 q 89 227 58 103 l 136 433 l 647 433 l 627 348 q 652 278 611 278 q 686 294 671 278 q 712 354 701 309 q 719 396 718 380 q 715 423 720 413 q 699 442 710 434 q 664 459 687 450 l 371 578 q 232 672 261 622 q 223 806 203 723 l 250 923 q 364 1081 273 1026 q 608 1136 455 1136 l 1087 1136 q 1305 1081 1240 1136 q 1347 923 1371 1026 l 1316 786 l 808 786 l 813 807 q 784 873 828 873 q 755 862 769 873 q 735 828 741 851 q 733 808 732 815 q 739 793 733 800 q 758 779 745 787 q 795 761 771 771 l 1138 615 q 1195 579 1173 600 q 1227 531 1217 559 q 1235 465 1237 503 q 1221 376 1233 427 l 1193 255 q 1069 51 1157 110 q 821 -9 981 -9 l 634 -9 l 638 -1 l 669 -1 z "},"ş":{"ha":1161,"x_min":67,"x_max":1298,"o":"m 549 -11 l 352 -11 q 206 0 265 -11 q 114 37 147 11 q 74 103 81 62 q 80 200 67 143 l 107 318 l 606 318 l 587 236 q 621 176 574 176 q 659 189 644 176 q 681 236 673 201 l 687 259 q 609 339 700 314 l 357 404 q 199 479 235 437 q 181 602 162 520 l 200 685 q 239 782 214 742 q 311 848 265 822 q 420 885 356 874 q 572 896 485 896 l 1012 896 q 1158 885 1099 896 q 1251 847 1217 874 q 1291 781 1284 821 q 1285 685 1298 741 l 1270 617 l 775 617 l 782 648 q 749 707 795 707 q 713 696 729 707 q 692 666 697 686 q 691 642 689 652 q 701 624 692 632 q 731 608 710 616 q 790 590 752 600 l 979 540 q 1174 449 1130 499 q 1198 307 1220 401 l 1174 200 q 1135 103 1160 143 q 1064 37 1109 64 q 954 0 1018 11 q 802 -11 889 -11 l 660 -11 l 635 -61 l 668 -61 q 709 -66 693 -61 q 733 -82 728 -72 q 736 -111 740 -96 q 723 -146 733 -125 l 673 -247 q 619 -307 653 -286 q 542 -325 590 -325 l 408 -325 q 367 -320 383 -325 q 339 -302 348 -315 q 335 -279 333 -293 q 347 -247 337 -266 l 372 -196 l 535 -196 l 524 -220 q 513 -235 516 -235 q 512 -235 512 -235 q 522 -220 516 -231 l 550 -165 q 565 -148 556 -153 q 560 -151 565 -147 l 525 -151 l 525 -150 l 479 -150 l 549 -11 z "},"Ć":{"ha":1131,"x_min":61,"x_max":1333,"o":"m 1207 477 l 1153 244 q 1111 132 1138 179 q 1040 53 1084 85 q 934 7 995 22 q 792 -8 872 -8 l 323 -8 q 116 54 171 -8 q 90 244 61 116 l 236 874 q 280 1000 253 948 q 349 1086 307 1052 q 452 1136 392 1121 q 591 1152 512 1152 l 1060 1152 q 1200 1136 1143 1152 q 1282 1087 1257 1121 q 1298 874 1333 1024 l 1262 718 l 771 718 l 792 808 q 795 866 802 851 q 768 881 787 881 q 735 866 749 881 q 711 808 721 850 l 603 338 q 600 280 593 296 q 626 265 607 265 q 684 338 667 265 l 716 477 l 1207 477 m 1178 1504 l 955 1215 l 702 1215 l 924 1504 l 1178 1504 z "},"ć":{"ha":1161,"x_min":67,"x_max":1298,"o":"m 1174 200 q 1135 103 1160 143 q 1064 37 1109 64 q 954 0 1018 11 q 802 -11 889 -11 l 352 -11 q 206 0 265 -11 q 114 37 147 11 q 74 103 81 62 q 80 200 67 143 l 192 685 q 301 848 218 800 q 411 885 345 872 q 512 893 444 890 q 684 896 579 896 l 1012 896 q 1158 885 1099 896 q 1251 847 1217 874 q 1291 781 1284 821 q 1285 685 1298 741 l 1252 541 l 752 541 l 777 648 q 743 707 790 707 q 705 695 720 707 q 683 648 691 683 l 587 236 q 621 176 574 176 q 659 189 644 176 q 681 236 673 201 l 716 387 l 1217 387 l 1174 200 m 1136 1258 l 914 969 l 661 969 l 883 1258 l 1136 1258 z "},"Č":{"ha":1131,"x_min":61,"x_max":1333,"o":"m 1207 477 l 1153 244 q 1111 132 1138 179 q 1040 53 1084 85 q 934 7 995 22 q 792 -8 872 -8 l 323 -8 q 116 54 171 -8 q 90 244 61 116 l 236 874 q 280 1000 253 948 q 349 1086 307 1052 q 452 1136 392 1121 q 591 1152 512 1152 l 1060 1152 q 1200 1136 1143 1152 q 1282 1087 1257 1121 q 1298 874 1333 1024 l 1262 718 l 771 718 l 792 808 q 795 866 802 851 q 768 881 787 881 q 735 866 749 881 q 711 808 721 850 l 603 338 q 600 280 593 296 q 626 265 607 265 q 684 338 667 265 l 716 477 l 1207 477 m 836 1504 l 885 1384 l 989 1504 l 1199 1504 l 945 1213 l 731 1213 l 742 1222 l 626 1504 l 836 1504 z "},"č":{"ha":1161,"x_min":67,"x_max":1298,"o":"m 1174 200 q 1135 103 1160 143 q 1064 37 1109 64 q 954 0 1018 11 q 802 -11 889 -11 l 352 -11 q 206 0 265 -11 q 114 37 147 11 q 74 103 81 62 q 80 200 67 143 l 192 685 q 301 848 218 800 q 411 885 345 872 q 512 893 444 890 q 684 896 579 896 l 1012 896 q 1158 885 1099 896 q 1251 847 1217 874 q 1291 781 1284 821 q 1285 685 1298 741 l 1252 541 l 752 541 l 777 648 q 743 707 790 707 q 705 695 720 707 q 683 648 691 683 l 587 236 q 621 176 574 176 q 659 189 644 176 q 681 236 673 201 l 716 387 l 1217 387 l 1174 200 m 795 1263 l 844 1143 l 949 1263 l 1158 1263 l 904 972 l 690 971 l 702 981 l 586 1263 l 795 1263 z "},"đ":{"ha":1270,"x_min":66,"x_max":1483,"o":"m 622 174 q 682 231 669 174 l 775 635 q 742 692 788 692 q 703 681 718 692 q 681 635 689 670 l 588 231 q 622 174 575 174 m 1338 910 l 1173 196 q 1134 100 1160 139 q 1064 36 1109 61 q 955 0 1019 11 q 804 -11 891 -11 l 354 -11 q 208 0 267 -11 q 115 36 149 11 q 74 101 81 62 q 79 196 66 140 l 194 693 q 232 786 207 747 q 303 851 257 825 q 413 887 349 876 q 564 898 477 898 l 841 898 l 844 910 l 736 910 l 774 1072 l 881 1072 l 896 1136 l 1390 1136 l 1375 1072 l 1483 1072 l 1446 910 l 1338 910 z "},"¯":{"ha":734,"x_min":314,"x_max":1044,"o":"m 377 1487 l 1044 1487 l 981 1213 l 314 1213 l 377 1487 z "},"·":{"ha":355,"x_min":144,"x_max":456,"o":"m 331 668 q 426 625 393 668 q 444 533 456 586 q 379 438 432 480 q 269 398 331 398 q 176 439 207 398 q 157 533 144 479 q 217 625 169 586 q 331 668 270 668 z "},"Ā":{"ha":1217,"x_min":32,"x_max":1226,"o":"m 691 502 l 756 502 l 780 748 l 691 502 m 32 -8 l 515 1136 l 1226 1136 l 1181 -8 l 686 -8 l 714 236 l 609 236 l 526 -8 l 32 -8 m 1223 1402 l 1179 1213 l 597 1213 l 641 1402 l 1223 1402 z "},"ā":{"ha":1156,"x_min":73,"x_max":1294,"o":"m 695 257 l 723 379 l 682 367 q 620 335 640 353 q 591 277 601 316 l 587 257 q 625 195 573 195 q 669 208 652 195 q 695 257 687 221 m 767 583 l 783 652 q 782 703 792 691 q 745 715 772 715 q 703 702 719 715 q 680 652 688 689 l 671 615 l 191 615 l 208 687 q 247 784 221 744 q 318 851 273 825 q 428 888 363 877 q 579 899 492 899 l 1007 899 q 1153 888 1094 899 q 1246 850 1213 877 q 1286 783 1279 823 q 1281 687 1294 743 l 1120 -8 l 374 -8 q 141 57 210 -11 q 104 303 73 125 q 506 583 190 575 l 767 583 m 1136 1158 l 1093 969 l 511 969 l 554 1158 l 1136 1158 z "},"Ă":{"ha":1217,"x_min":32,"x_max":1226,"o":"m 691 502 l 756 502 l 780 748 l 691 502 m 32 -8 l 515 1136 l 1226 1136 l 1181 -8 l 686 -8 l 714 236 l 609 236 l 526 -8 l 32 -8 m 1083 1458 q 1025 1384 1070 1418 q 919 1347 976 1347 q 830 1384 862 1347 q 806 1458 801 1418 l 710 1458 q 710 1459 710 1459 q 719 1371 710 1415 q 752 1297 727 1329 q 811 1249 775 1265 q 892 1231 848 1231 q 981 1249 937 1231 q 1064 1297 1025 1265 q 1131 1371 1103 1329 q 1172 1466 1160 1415 q 1170 1458 1156 1297 l 1083 1458 z "},"ă":{"ha":1156,"x_min":73,"x_max":1294,"o":"m 695 257 l 723 379 l 682 367 q 620 335 640 353 q 591 277 601 316 l 587 257 q 625 195 573 195 q 669 208 652 195 q 695 257 687 221 m 767 583 l 783 652 q 782 703 792 691 q 745 715 772 715 q 703 702 719 715 q 680 652 688 689 l 671 615 l 191 615 l 208 687 q 247 784 221 744 q 318 851 273 825 q 428 888 363 877 q 579 899 492 899 l 1007 899 q 1153 888 1094 899 q 1246 850 1213 877 q 1286 783 1279 823 q 1281 687 1294 743 l 1120 -8 l 374 -8 q 141 57 210 -11 q 104 303 73 125 q 506 583 190 575 l 767 583 m 997 1214 q 938 1140 984 1174 q 832 1103 889 1103 q 744 1140 775 1103 q 720 1214 714 1174 l 623 1214 q 624 1216 624 1216 q 632 1127 624 1172 q 665 1053 640 1085 q 725 1005 689 1021 q 806 987 762 987 q 894 1005 850 987 q 977 1053 938 1021 q 1044 1127 1016 1085 q 1085 1222 1073 1172 q 1084 1214 1069 1054 l 997 1214 z "},"Ą":{"ha":1220,"x_min":32,"x_max":1226,"o":"m 691 502 l 756 502 l 780 748 l 691 502 m 687 3 l 714 236 l 609 236 l 526 -8 l 32 -8 l 515 1136 l 1226 1136 l 1183 -10 q 805 -86 917 -8 q 696 -216 693 -165 q 740 -270 690 -259 q 855 -265 786 -281 l 826 -390 q 632 -446 747 -424 q 384 -441 447 -470 q 329 -358 328 -415 q 375 -240 330 -307 q 508 -100 422 -171 q 687 3 581 -41 z "},"ą":{"ha":1156,"x_min":73,"x_max":1294,"o":"m 695 257 l 723 379 l 682 367 q 620 335 640 353 q 591 277 601 316 l 587 257 q 625 195 573 195 q 669 208 652 195 q 695 257 687 221 m 767 -8 l 374 -8 q 141 57 210 -11 q 104 303 73 125 q 506 583 190 575 l 767 583 l 783 652 q 782 703 792 691 q 745 715 772 715 q 703 702 719 715 q 680 652 688 689 l 671 615 l 191 615 l 208 687 q 247 784 221 744 q 318 851 273 825 q 428 888 363 877 q 579 899 492 899 l 1007 899 q 1153 888 1094 899 q 1246 850 1213 877 q 1286 783 1279 823 q 1281 687 1294 743 l 1121 -4 q 887 -119 963 -58 q 784 -252 791 -197 q 838 -315 777 -302 q 971 -310 893 -328 l 939 -450 q 713 -512 847 -488 q 425 -507 497 -539 q 360 -414 360 -479 q 414 -280 360 -356 q 564 -126 468 -201 q 767 -8 660 -51 z "},"Ĉ":{"ha":1131,"x_min":61,"x_max":1333,"o":"m 1207 477 l 1153 244 q 1111 132 1138 179 q 1040 53 1084 85 q 934 7 995 22 q 792 -8 872 -8 l 323 -8 q 116 54 171 -8 q 90 244 61 116 l 236 874 q 280 1000 253 948 q 349 1086 307 1052 q 452 1136 392 1121 q 591 1152 512 1152 l 1060 1152 q 1200 1136 1143 1152 q 1282 1087 1257 1121 q 1298 874 1333 1024 l 1262 718 l 771 718 l 792 808 q 795 866 802 851 q 768 881 787 881 q 735 866 749 881 q 711 808 721 850 l 603 338 q 600 280 593 296 q 626 265 607 265 q 684 338 667 265 l 716 477 l 1207 477 m 922 1213 l 873 1332 l 769 1213 l 559 1213 l 813 1503 l 1017 1504 l 1015 1495 l 1132 1213 l 922 1213 z "},"ĉ":{"ha":1161,"x_min":67,"x_max":1298,"o":"m 1174 200 q 1135 103 1160 143 q 1064 37 1109 64 q 954 0 1018 11 q 802 -11 889 -11 l 352 -11 q 206 0 265 -11 q 114 37 147 11 q 74 103 81 62 q 80 200 67 143 l 192 685 q 301 848 218 800 q 411 885 345 872 q 512 893 444 890 q 684 896 579 896 l 1012 896 q 1158 885 1099 896 q 1251 847 1217 874 q 1291 781 1284 821 q 1285 685 1298 741 l 1252 541 l 752 541 l 777 648 q 743 707 790 707 q 705 695 720 707 q 683 648 691 683 l 587 236 q 621 176 574 176 q 659 189 644 176 q 681 236 673 201 l 716 387 l 1217 387 l 1174 200 m 882 971 l 833 1091 l 728 971 l 519 971 l 773 1262 l 977 1263 l 975 1254 l 1091 971 l 882 971 z "},"Ċ":{"ha":1131,"x_min":61,"x_max":1333,"o":"m 1207 477 l 1153 244 q 1111 132 1138 179 q 1040 53 1084 85 q 934 7 995 22 q 792 -8 872 -8 l 323 -8 q 116 54 171 -8 q 90 244 61 116 l 236 874 q 280 1000 253 948 q 349 1086 307 1052 q 452 1136 392 1121 q 591 1152 512 1152 l 1060 1152 q 1200 1136 1143 1152 q 1282 1087 1257 1121 q 1298 874 1333 1024 l 1262 718 l 771 718 l 792 808 q 795 866 802 851 q 768 881 787 881 q 735 866 749 881 q 711 808 721 850 l 603 338 q 600 280 593 296 q 626 265 607 265 q 684 338 667 265 l 716 477 l 1207 477 m 907 1482 q 1002 1439 969 1482 q 1020 1348 1033 1400 q 955 1252 1008 1295 q 845 1213 907 1213 q 752 1253 783 1213 q 733 1348 721 1294 q 793 1439 745 1400 q 907 1482 846 1482 z "},"ċ":{"ha":1161,"x_min":67,"x_max":1298,"o":"m 1174 200 q 1135 103 1160 143 q 1064 37 1109 64 q 954 0 1018 11 q 802 -11 889 -11 l 352 -11 q 206 0 265 -11 q 114 37 147 11 q 74 103 81 62 q 80 200 67 143 l 192 685 q 301 848 218 800 q 411 885 345 872 q 512 893 444 890 q 684 896 579 896 l 1012 896 q 1158 885 1099 896 q 1251 847 1217 874 q 1291 781 1284 821 q 1285 685 1298 741 l 1252 541 l 752 541 l 777 648 q 743 707 790 707 q 705 695 720 707 q 683 648 691 683 l 587 236 q 621 176 574 176 q 659 189 644 176 q 681 236 673 201 l 716 387 l 1217 387 l 1174 200 m 864 1231 q 960 1188 926 1231 q 977 1097 989 1149 q 912 1001 965 1044 q 802 962 864 962 q 709 1002 740 962 q 690 1097 678 1043 q 750 1188 702 1149 q 864 1231 803 1231 z "},"Ď":{"ha":1142,"x_min":32,"x_max":1327,"o":"m 587 267 l 621 267 q 663 280 649 267 q 687 339 676 294 l 791 790 q 794 849 802 836 q 759 862 786 862 l 725 862 l 587 267 m 32 -8 l 296 1136 l 1062 1136 q 1199 1121 1143 1136 q 1285 1075 1255 1106 q 1321 996 1316 1044 q 1312 885 1327 949 l 1171 272 q 1055 57 1135 120 q 947 7 1013 23 q 798 -8 882 -8 l 32 -8 m 842 1504 l 890 1384 l 995 1504 l 1204 1504 l 950 1213 l 736 1213 l 748 1222 l 632 1504 l 842 1504 z "},"ď":{"ha":1458,"x_min":67,"x_max":1666,"o":"m 683 235 l 775 635 q 742 692 788 692 q 703 681 718 692 q 681 635 689 670 l 589 235 q 623 177 575 177 q 683 235 669 177 m 896 1136 l 1390 1136 l 1174 199 q 1135 103 1160 142 q 1065 39 1109 64 q 956 3 1020 14 q 805 -8 892 -8 l 355 -8 q 209 3 268 -8 q 116 40 150 14 q 75 105 82 65 q 80 199 67 144 l 194 693 q 232 786 206 747 q 303 851 257 825 q 413 887 349 876 q 564 898 477 898 l 841 898 l 896 1136 m 1424 850 q 1365 893 1397 852 q 1348 992 1334 935 q 1411 1091 1360 1048 q 1533 1137 1468 1137 q 1632 1094 1599 1137 q 1653 992 1666 1049 q 1625 931 1646 959 q 1615 919 1622 926 q 1578 892 1604 905 q 1576 891 1577 891 l 1559 868 q 1356 791 1520 834 l 1367 833 q 1424 850 1414 845 z "},"Ē":{"ha":1003,"x_min":32,"x_max":1231,"o":"m 32 -8 l 296 1136 l 1231 1136 l 1168 862 l 722 862 l 684 702 l 1089 702 l 1026 428 l 621 428 l 584 266 l 1030 266 l 967 -8 l 32 -8 m 1117 1404 l 1073 1215 l 491 1215 l 535 1404 l 1117 1404 z "},"ē":{"ha":1161,"x_min":67,"x_max":1298,"o":"m 1174 200 q 1135 103 1160 143 q 1064 37 1109 64 q 954 0 1018 11 q 802 -11 889 -11 l 352 -11 q 206 0 265 -11 q 114 37 147 11 q 74 103 81 62 q 80 200 67 143 l 192 685 q 231 782 205 742 q 301 848 257 822 q 410 885 346 874 q 562 896 475 896 l 1012 896 q 1158 885 1099 896 q 1251 847 1217 874 q 1291 781 1284 821 q 1285 685 1298 741 l 1222 409 l 627 409 l 587 236 q 621 176 574 176 q 659 189 644 176 q 681 236 673 201 l 710 358 l 1210 358 l 1174 200 m 679 648 l 664 585 l 767 585 l 782 648 q 745 714 797 714 q 703 700 719 714 q 679 648 687 687 m 1139 1160 l 1096 970 l 514 970 l 557 1160 l 1139 1160 z "},"Ĕ":{"ha":1003,"x_min":32,"x_max":1231,"o":"m 32 -8 l 296 1136 l 1231 1136 l 1168 862 l 722 862 l 684 702 l 1089 702 l 1026 428 l 621 428 l 584 266 l 1030 266 l 967 -8 l 32 -8 m 976 1456 q 918 1382 963 1416 q 812 1345 869 1345 q 723 1382 755 1345 q 699 1456 694 1416 l 603 1456 q 603 1458 603 1458 q 612 1369 603 1414 q 644 1295 620 1327 q 705 1247 668 1263 q 785 1230 741 1230 q 874 1247 829 1230 q 956 1295 918 1263 q 1023 1370 996 1327 q 1064 1465 1053 1414 q 1063 1456 1049 1296 l 976 1456 z "},"ĕ":{"ha":1161,"x_min":67,"x_max":1298,"o":"m 1174 200 q 1135 103 1160 143 q 1064 37 1109 64 q 954 0 1018 11 q 802 -11 889 -11 l 352 -11 q 206 0 265 -11 q 114 37 147 11 q 74 103 81 62 q 80 200 67 143 l 192 685 q 231 782 205 742 q 301 848 257 822 q 410 885 346 874 q 562 896 475 896 l 1012 896 q 1158 885 1099 896 q 1251 847 1217 874 q 1291 781 1284 821 q 1285 685 1298 741 l 1222 409 l 627 409 l 587 236 q 621 176 574 176 q 659 189 644 176 q 681 236 673 201 l 710 358 l 1210 358 l 1174 200 m 679 648 l 664 585 l 767 585 l 782 648 q 745 714 797 714 q 703 700 719 714 q 679 648 687 687 m 1000 1215 q 942 1141 987 1175 q 836 1104 892 1104 q 747 1141 779 1104 q 723 1215 718 1175 l 626 1215 q 627 1217 627 1217 q 635 1128 627 1173 q 668 1054 643 1086 q 728 1006 692 1022 q 809 988 765 988 q 898 1006 853 988 q 980 1054 941 1022 q 1047 1128 1019 1086 q 1088 1223 1076 1173 q 1087 1215 1073 1055 l 1000 1215 z "},"Ė":{"ha":1003,"x_min":32,"x_max":1231,"o":"m 32 -8 l 296 1136 l 1231 1136 l 1168 862 l 722 862 l 684 702 l 1089 702 l 1026 428 l 621 428 l 584 266 l 1030 266 l 967 -8 l 32 -8 m 843 1482 q 938 1439 905 1482 q 956 1348 968 1400 q 891 1252 944 1295 q 781 1213 843 1213 q 687 1253 719 1213 q 669 1348 656 1294 q 729 1439 681 1400 q 843 1482 782 1482 z "},"ė":{"ha":1161,"x_min":67,"x_max":1298,"o":"m 1174 200 q 1135 103 1160 143 q 1064 37 1109 64 q 954 0 1018 11 q 802 -11 889 -11 l 352 -11 q 206 0 265 -11 q 114 37 147 11 q 74 103 81 62 q 80 200 67 143 l 192 685 q 231 782 205 742 q 301 848 257 822 q 410 885 346 874 q 562 896 475 896 l 1012 896 q 1158 885 1099 896 q 1251 847 1217 874 q 1291 781 1284 821 q 1285 685 1298 741 l 1222 409 l 627 409 l 587 236 q 621 176 574 176 q 659 189 644 176 q 681 236 673 201 l 710 358 l 1210 358 l 1174 200 m 679 648 l 664 585 l 767 585 l 782 648 q 745 714 797 714 q 703 700 719 714 q 679 648 687 687 m 867 1241 q 962 1198 929 1241 q 980 1106 992 1159 q 915 1011 967 1054 q 804 971 866 971 q 711 1012 742 971 q 692 1106 680 1053 q 752 1198 705 1159 q 867 1241 805 1241 z "},"Ę":{"ha":1003,"x_min":32,"x_max":1231,"o":"m 590 -8 l 32 -8 l 296 1136 l 1231 1136 l 1168 862 l 722 862 l 684 702 l 1089 702 l 1026 428 l 621 428 l 584 266 l 1030 266 l 968 -4 q 707 -122 798 -56 q 614 -221 616 -187 q 677 -267 612 -254 q 820 -262 739 -278 l 782 -425 q 543 -483 686 -460 q 236 -478 315 -508 q 164 -391 166 -452 q 218 -264 163 -336 q 375 -119 274 -191 q 590 -8 477 -47 z "},"ę":{"ha":1161,"x_min":67,"x_max":1298,"o":"m 679 648 l 664 585 l 767 585 l 782 648 q 745 714 797 714 q 703 700 719 714 q 679 648 687 687 m 607 -11 l 352 -11 q 206 0 265 -11 q 114 37 147 11 q 74 103 81 62 q 80 200 67 143 l 192 685 q 231 782 205 742 q 301 848 257 822 q 410 885 346 874 q 562 896 475 896 l 1012 896 q 1158 885 1099 896 q 1251 847 1217 874 q 1291 781 1284 821 q 1285 685 1298 741 l 1222 409 l 627 409 l 587 236 q 621 176 574 176 q 659 189 644 176 q 681 236 673 201 l 710 358 l 1210 358 l 1174 200 q 1135 103 1160 143 q 1063 37 1109 64 q 786 -119 874 -56 q 690 -240 697 -181 q 749 -308 683 -293 q 891 -302 809 -320 l 856 -450 q 616 -516 760 -490 q 308 -511 386 -545 q 239 -412 239 -481 q 296 -269 239 -351 q 457 -105 355 -185 q 607 -11 533 -45 z "},"Ě":{"ha":1003,"x_min":32,"x_max":1231,"o":"m 32 -8 l 296 1136 l 1231 1136 l 1168 862 l 722 862 l 684 702 l 1089 702 l 1026 428 l 621 428 l 584 266 l 1030 266 l 967 -8 l 32 -8 m 772 1504 l 821 1384 l 925 1504 l 1135 1504 l 881 1213 l 667 1213 l 679 1222 l 563 1504 l 772 1504 z "},"ě":{"ha":1161,"x_min":67,"x_max":1298,"o":"m 1174 200 q 1135 103 1160 143 q 1064 37 1109 64 q 954 0 1018 11 q 802 -11 889 -11 l 352 -11 q 206 0 265 -11 q 114 37 147 11 q 74 103 81 62 q 80 200 67 143 l 192 685 q 231 782 205 742 q 301 848 257 822 q 410 885 346 874 q 562 896 475 896 l 1012 896 q 1158 885 1099 896 q 1251 847 1217 874 q 1291 781 1284 821 q 1285 685 1298 741 l 1222 409 l 627 409 l 587 236 q 621 176 574 176 q 659 189 644 176 q 681 236 673 201 l 710 358 l 1210 358 l 1174 200 m 679 648 l 664 585 l 767 585 l 782 648 q 745 714 797 714 q 703 700 719 714 q 679 648 687 687 m 796 1263 l 845 1143 l 949 1263 l 1159 1263 l 904 972 l 691 971 l 702 981 l 586 1263 l 796 1263 z "},"Ĝ":{"ha":1139,"x_min":79,"x_max":1321,"o":"m 698 399 l 635 399 l 697 667 l 1252 667 l 1147 209 q 880 -8 1103 -8 l 567 -8 l 323 -8 q 191 7 244 -8 q 112 58 138 23 q 82 145 85 93 q 96 271 79 197 l 242 903 q 355 1091 272 1031 q 591 1152 439 1152 l 1061 1152 q 1196 1137 1141 1152 q 1281 1092 1251 1123 q 1316 1014 1311 1061 q 1306 903 1321 967 l 1278 781 l 785 781 l 792 807 q 795 815 793 810 q 797 822 797 820 q 794 866 804 852 q 768 881 785 881 q 736 865 750 881 q 712 807 722 850 l 604 338 q 600 280 593 295 q 626 266 607 266 q 660 280 646 266 q 684 338 674 295 l 698 399 m 923 1213 l 874 1332 l 770 1213 l 560 1213 l 814 1503 l 1018 1504 l 1016 1495 l 1133 1213 l 923 1213 z "},"ĝ":{"ha":1156,"x_min":63,"x_max":1329,"o":"m 1116 -25 q 1071 -148 1097 -108 q 1000 -215 1045 -189 q 891 -253 955 -242 q 740 -264 827 -264 l 151 -264 l 195 -77 l 555 -77 q 629 -8 619 -77 q 474 -8 543 -8 q 370 -8 406 -8 q 133 59 203 -8 q 93 255 63 126 l 181 636 q 312 835 211 765 q 575 899 413 905 l 1329 899 l 1116 -25 m 771 621 q 770 669 779 656 q 738 681 762 681 q 675 621 689 681 l 594 270 q 595 222 586 235 q 630 210 604 210 q 668 222 654 210 q 690 270 682 235 l 771 621 m 879 971 l 830 1091 l 726 971 l 516 971 l 770 1262 l 974 1263 l 972 1254 l 1088 971 l 879 971 z "},"Ġ":{"ha":1139,"x_min":79,"x_max":1321,"o":"m 698 399 l 635 399 l 697 667 l 1252 667 l 1147 209 q 880 -8 1103 -8 l 567 -8 l 323 -8 q 191 7 244 -8 q 112 58 138 23 q 82 145 85 93 q 96 271 79 197 l 242 903 q 355 1091 272 1031 q 591 1152 439 1152 l 1061 1152 q 1196 1137 1141 1152 q 1281 1092 1251 1123 q 1316 1014 1311 1061 q 1306 903 1321 967 l 1278 781 l 785 781 l 792 807 q 795 815 793 810 q 797 822 797 820 q 794 866 804 852 q 768 881 785 881 q 736 865 750 881 q 712 807 722 850 l 604 338 q 600 280 593 295 q 626 266 607 266 q 660 280 646 266 q 684 338 674 295 l 698 399 m 908 1485 q 1004 1441 970 1485 q 1022 1350 1034 1403 q 957 1254 1009 1297 q 846 1215 908 1215 q 753 1255 784 1215 q 734 1350 722 1296 q 794 1441 747 1403 q 908 1485 847 1485 z "},"ġ":{"ha":1156,"x_min":63,"x_max":1329,"o":"m 1116 -25 q 1071 -148 1097 -108 q 1000 -215 1045 -189 q 891 -253 955 -242 q 740 -264 827 -264 l 151 -264 l 195 -77 l 555 -77 q 629 -8 619 -77 q 474 -8 543 -8 q 370 -8 406 -8 q 133 59 203 -8 q 93 255 63 126 l 181 636 q 312 835 211 765 q 575 899 413 905 l 1329 899 l 1116 -25 m 771 621 q 770 669 779 656 q 738 681 762 681 q 675 621 689 681 l 594 270 q 595 222 586 235 q 630 210 604 210 q 668 222 654 210 q 690 270 682 235 l 771 621 m 864 1240 q 959 1197 926 1240 q 977 1106 989 1159 q 912 1010 965 1053 q 802 971 864 971 q 708 1011 740 971 q 690 1106 677 1052 q 750 1197 702 1159 q 864 1240 803 1240 z "},"Ģ":{"ha":1139,"x_min":79,"x_max":1321,"o":"m 698 399 l 635 399 l 697 667 l 1252 667 l 1147 209 q 880 -8 1103 -8 l 567 -8 l 323 -8 q 191 7 244 -8 q 112 58 138 23 q 82 145 85 93 q 96 271 79 197 l 242 903 q 355 1091 272 1031 q 591 1152 439 1152 l 1061 1152 q 1196 1137 1141 1152 q 1281 1092 1251 1123 q 1316 1014 1311 1061 q 1306 903 1321 967 l 1278 781 l 785 781 l 792 807 q 795 815 793 810 q 797 822 797 820 q 794 866 804 852 q 768 881 785 881 q 736 865 750 881 q 712 807 722 850 l 604 338 q 600 280 593 295 q 626 266 607 266 q 660 280 646 266 q 684 338 674 295 l 698 399 m 441 -371 q 382 -329 414 -369 q 365 -229 351 -287 q 428 -131 377 -173 q 550 -85 485 -85 q 649 -127 616 -85 q 670 -229 683 -172 q 642 -290 663 -262 q 632 -302 639 -295 q 594 -329 620 -316 q 593 -330 594 -330 l 576 -353 q 373 -430 537 -387 l 384 -389 q 441 -371 431 -376 z "},"ģ":{"ha":1156,"x_min":63,"x_max":1329,"o":"m 1116 -25 q 1071 -148 1097 -108 q 1000 -215 1045 -189 q 891 -253 955 -242 q 740 -264 827 -264 l 151 -264 l 195 -77 l 555 -77 q 629 -8 619 -77 q 474 -8 543 -8 q 370 -8 406 -8 q 133 59 203 -8 q 93 255 63 126 l 181 636 q 312 835 211 765 q 575 899 413 905 l 1329 899 l 1116 -25 m 771 621 q 770 669 779 656 q 738 681 762 681 q 675 621 689 681 l 594 270 q 595 222 586 235 q 630 210 604 210 q 668 222 654 210 q 690 270 682 235 l 771 621 m 918 1256 q 978 1214 946 1254 q 995 1115 1008 1172 q 932 1016 982 1058 q 810 970 875 970 q 711 1013 744 970 q 689 1115 676 1058 q 718 1175 697 1148 q 728 1188 721 1181 q 765 1215 739 1201 q 766 1216 766 1215 l 783 1239 q 987 1316 822 1273 l 976 1274 q 918 1256 929 1262 z "},"Ĥ":{"ha":1133,"x_min":32,"x_max":1361,"o":"m 32 -8 l 296 1136 l 787 1136 l 699 754 l 782 754 l 870 1136 l 1361 1136 l 1097 -8 l 606 -8 l 719 480 l 636 480 l 523 -8 l 32 -8 m 923 1213 l 874 1332 l 770 1213 l 560 1213 l 814 1503 l 1018 1504 l 1016 1495 l 1133 1213 l 923 1213 z "},"ĥ":{"ha":1190,"x_min":73,"x_max":1331,"o":"m 73 -8 l 337 1136 l 831 1136 l 776 899 l 1027 897 q 1262 828 1194 897 q 1301 631 1331 758 l 1154 -8 l 661 -8 l 805 618 q 772 677 819 677 q 734 665 748 677 q 711 618 719 653 l 567 -8 l 73 -8 m 677 1215 l 628 1334 l 524 1215 l 314 1215 l 568 1506 l 772 1506 l 770 1497 l 887 1215 l 677 1215 z "},"Ħ":{"ha":1258,"x_min":96,"x_max":1462,"o":"m 1358 842 l 1162 -8 l 670 -8 l 783 480 l 701 480 l 588 -8 l 96 -8 l 293 842 l 228 842 l 272 1031 l 336 1031 l 360 1136 l 852 1136 l 828 1031 l 910 1031 l 935 1136 l 1426 1136 l 1402 1031 l 1462 1031 l 1418 842 l 1358 842 m 784 842 l 764 754 l 846 754 l 867 842 l 784 842 z "},"ħ":{"ha":1237,"x_min":120,"x_max":1378,"o":"m 835 948 l 824 899 l 1074 897 q 1310 828 1241 897 q 1349 631 1378 758 l 1201 -8 l 708 -8 l 853 618 q 819 677 866 677 q 781 665 796 677 q 759 618 767 653 l 614 -8 l 120 -8 l 341 948 l 253 948 l 282 1077 l 371 1077 l 385 1136 l 878 1136 l 865 1077 l 955 1077 l 925 948 l 835 948 z "},"Ĩ":{"ha":722,"x_min":113,"x_max":997,"o":"m 113 -8 l 377 1136 l 869 1136 l 605 -8 l 113 -8 m 997 1339 q 747 1213 871 1213 q 601 1258 687 1213 q 542 1276 565 1276 q 405 1205 494 1276 l 340 1329 q 577 1436 465 1436 q 714 1397 641 1436 q 782 1373 759 1373 q 932 1462 834 1373 l 997 1339 z "},"ĩ":{"ha":722,"x_min":113,"x_max":941,"o":"m 113 -8 l 322 899 l 815 899 l 605 -8 l 113 -8 m 941 1098 q 691 971 815 971 q 545 1017 631 971 q 486 1035 509 1035 q 349 964 438 1035 l 285 1087 q 522 1195 409 1195 q 658 1156 586 1195 q 726 1132 703 1132 q 876 1221 779 1132 l 941 1098 z "},"Ī":{"ha":650,"x_min":77,"x_max":941,"o":"m 77 -8 l 341 1136 l 833 1136 l 569 -8 l 77 -8 m 941 1407 l 897 1218 l 315 1218 l 359 1407 l 941 1407 z "},"ī":{"ha":650,"x_min":77,"x_max":883,"o":"m 77 -8 l 286 899 l 779 899 l 569 -8 l 77 -8 m 883 1160 l 840 970 l 258 970 l 301 1160 l 883 1160 z "},"Ĭ":{"ha":560,"x_min":32,"x_max":843,"o":"m 32 -8 l 296 1136 l 788 1136 l 524 -8 l 32 -8 m 754 1456 q 696 1382 742 1416 q 590 1345 647 1345 q 502 1382 533 1345 q 478 1456 472 1416 l 381 1456 q 381 1457 381 1457 q 390 1369 381 1413 q 423 1295 398 1327 q 483 1246 447 1263 q 564 1229 520 1229 q 652 1246 608 1229 q 735 1295 696 1263 q 802 1369 774 1327 q 843 1464 831 1413 q 842 1456 828 1295 l 754 1456 z "},"ĭ":{"ha":560,"x_min":32,"x_max":787,"o":"m 32 -8 l 241 899 l 734 899 l 524 -8 l 32 -8 m 699 1215 q 641 1141 686 1175 q 535 1104 591 1104 q 446 1141 478 1104 q 422 1215 417 1175 l 326 1215 q 326 1217 326 1217 q 335 1128 326 1173 q 367 1054 342 1086 q 428 1006 391 1022 q 508 988 464 988 q 597 1006 552 988 q 679 1054 641 1022 q 746 1128 719 1086 q 787 1223 775 1173 q 786 1215 772 1055 l 699 1215 z "},"Į":{"ha":765,"x_min":-66,"x_max":993,"o":"m 501 1135 l 993 1135 l 729 -8 l 603 -8 q 455 -117 516 -57 q 348 -278 358 -212 q 396 -354 339 -338 q 521 -348 446 -369 l 486 -504 q 268 -586 397 -556 q -7 -580 60 -618 q -62 -471 -66 -546 q -4 -311 -59 -401 q 145 -129 51 -218 q 308 -8 223 -54 l 237 -8 l 501 1135 z "},"į":{"ha":694,"x_min":-66,"x_max":922,"o":"m 381 927 l 430 1135 l 922 1135 l 874 927 l 381 927 m 247 -8 l 165 -8 l 375 899 l 867 899 l 658 -8 l 535 -8 q 400 -153 441 -95 q 348 -278 358 -211 q 396 -354 339 -338 q 521 -348 446 -369 l 486 -504 q 268 -586 397 -556 q -7 -580 60 -618 q -62 -471 -66 -546 q -2 -299 -59 -401 q 247 -8 56 -196 z "},"Ĳ":{"ha":1659,"x_min":32,"x_max":1887,"o":"m 32 -8 l 296 1136 l 788 1136 l 524 -8 l 32 -8 m 1887 1136 l 1686 262 q 1568 47 1651 110 q 1311 -17 1486 -17 l 855 -17 q 720 -1 774 -17 q 638 50 666 15 q 607 137 610 85 q 621 262 604 189 l 672 484 l 1156 484 l 1120 329 q 1118 272 1110 287 q 1145 257 1126 257 q 1180 272 1166 257 q 1205 329 1195 287 l 1391 1136 l 1887 1136 z "},"ĳ":{"ha":1086,"x_min":32,"x_max":1315,"o":"m 32 -8 l 241 899 l 734 899 l 524 -8 l 32 -8 m 248 927 l 296 1135 l 788 1135 l 740 927 l 248 927 m 499 -263 l 768 899 l 1260 899 l 992 -263 l 499 -263 m 774 927 l 822 1135 l 1315 1135 l 1266 927 l 774 927 z "},"Ĵ":{"ha":1172,"x_min":78,"x_max":1418,"o":"m 1361 1136 l 1160 262 q 1042 47 1124 110 q 785 -17 960 -17 l 329 -17 q 194 -1 248 -17 q 112 50 139 15 q 81 137 84 85 q 95 262 78 189 l 146 484 l 630 484 l 594 329 q 592 272 584 287 q 618 257 600 257 q 654 272 640 257 q 679 329 669 287 l 865 1136 l 1361 1136 m 1209 1212 l 1160 1332 l 1056 1212 l 846 1212 l 1100 1503 l 1304 1503 l 1302 1495 l 1418 1212 l 1209 1212 z "},"ĵ":{"ha":640,"x_min":-4,"x_max":886,"o":"m -4 -263 l 264 899 l 757 899 l 489 -263 l -4 -263 m 271 927 l 319 1135 l 811 1135 l 763 927 l 271 927 m 676 1212 l 628 1332 l 523 1212 l 314 1212 l 568 1503 l 772 1503 l 770 1495 l 886 1212 l 676 1212 z "},"Ķ":{"ha":1200,"x_min":32,"x_max":1418,"o":"m 32 -8 l 296 1136 l 788 1136 l 705 774 l 908 1136 l 1418 1136 l 1112 604 l 1164 -8 l 659 -8 l 621 410 l 524 -8 l 32 -8 m 441 -371 q 382 -329 414 -369 q 365 -229 351 -287 q 428 -131 377 -173 q 550 -85 485 -85 q 649 -127 616 -85 q 670 -229 683 -172 q 642 -290 663 -262 q 632 -302 639 -295 q 595 -329 621 -316 q 593 -330 594 -330 l 576 -353 q 373 -430 537 -387 l 384 -389 q 441 -371 431 -376 z "},"ķ":{"ha":1161,"x_min":32,"x_max":1246,"o":"m 32 -8 l 296 1136 l 780 1136 l 697 775 l 743 899 l 1246 899 l 1013 467 l 1125 -8 l 624 -8 l 590 313 l 516 -8 l 32 -8 m 441 -371 q 382 -329 414 -369 q 365 -229 351 -287 q 428 -131 377 -173 q 550 -85 485 -85 q 649 -127 616 -85 q 670 -229 683 -172 q 642 -290 663 -262 q 632 -302 639 -295 q 595 -329 621 -316 q 593 -330 594 -330 l 576 -353 q 373 -430 537 -387 l 384 -389 q 441 -371 431 -376 z "},"ĸ":{"ha":1201,"x_min":32,"x_max":1364,"o":"m 32 -8 l 241 899 l 733 899 l 667 611 l 854 899 l 1364 899 l 1083 477 l 1165 -8 l 660 -8 l 601 324 l 524 -8 l 32 -8 z "},"Ĺ":{"ha":837,"x_min":32,"x_max":907,"o":"m 32 -8 l 296 1136 l 785 1136 l 584 266 l 865 266 l 801 -8 l 32 -8 m 907 1500 l 685 1212 l 432 1212 l 654 1500 l 907 1500 z "},"ĺ":{"ha":584,"x_min":32,"x_max":897,"o":"m 32 -8 l 296 1136 l 788 1136 l 524 -8 l 32 -8 m 897 1501 l 674 1212 l 421 1212 l 643 1501 l 897 1501 z "},"Ļ":{"ha":837,"x_min":32,"x_max":865,"o":"m 32 -8 l 296 1136 l 785 1136 l 584 266 l 865 266 l 801 -8 l 32 -8 m 291 -371 q 231 -329 263 -369 q 214 -229 200 -287 q 277 -131 227 -173 q 399 -85 334 -85 q 498 -127 465 -85 q 519 -229 532 -172 q 491 -290 512 -262 q 481 -302 488 -295 q 444 -329 470 -316 q 443 -330 443 -330 l 426 -353 q 222 -430 387 -387 l 233 -389 q 291 -371 280 -376 z "},"ļ":{"ha":560,"x_min":32,"x_max":788,"o":"m 32 -8 l 296 1136 l 788 1136 l 524 -8 l 32 -8 m 158 -371 q 99 -329 131 -369 q 81 -229 67 -287 q 144 -131 94 -173 q 266 -85 201 -85 q 366 -127 333 -85 q 387 -229 400 -172 q 358 -290 379 -262 q 349 -302 355 -295 q 311 -329 337 -316 q 310 -330 310 -330 l 293 -353 q 90 -430 254 -387 l 100 -389 q 158 -371 148 -376 z "},"Ľ":{"ha":865,"x_min":32,"x_max":1075,"o":"m 32 -8 l 296 1136 l 785 1136 l 584 266 l 865 266 l 801 -8 l 32 -8 m 833 859 q 773 901 805 861 q 756 1001 743 943 q 819 1099 769 1057 q 941 1145 876 1145 q 1040 1102 1007 1145 q 1062 1001 1075 1058 q 1034 940 1054 967 q 1023 927 1030 935 q 986 901 1012 914 q 985 900 985 900 l 968 877 q 764 800 929 843 l 775 841 q 833 859 822 853 z "},"ľ":{"ha":868,"x_min":32,"x_max":1078,"o":"m 32 -8 l 296 1136 l 788 1136 l 524 -8 l 32 -8 m 837 859 q 777 901 809 861 q 759 1001 746 943 q 823 1099 772 1057 q 944 1145 879 1145 q 1044 1102 1011 1145 q 1065 1001 1078 1058 q 1037 940 1057 967 q 1027 927 1034 935 q 989 901 1015 914 q 988 900 988 900 l 971 877 q 768 800 932 843 l 779 841 q 837 859 826 853 z "},"Ŀ":{"ha":847,"x_min":32,"x_max":984,"o":"m 32 -8 l 296 1136 l 785 1136 l 584 266 l 865 266 l 801 -8 l 32 -8 m 859 822 q 954 779 921 822 q 971 688 984 741 q 907 592 959 635 q 796 553 858 553 q 703 593 734 553 q 684 688 672 634 q 744 779 696 741 q 859 822 797 822 z "},"ŀ":{"ha":847,"x_min":32,"x_max":956,"o":"m 32 -8 l 296 1136 l 788 1136 l 524 -8 l 32 -8 m 831 699 q 926 656 893 699 q 944 564 956 617 q 879 469 931 511 q 768 429 830 429 q 675 470 706 429 q 656 564 644 510 q 716 656 669 617 q 831 699 769 699 z "},"Ń":{"ha":1261,"x_min":32,"x_max":1489,"o":"m 32 -8 l 296 1136 l 825 1136 l 903 742 l 994 1136 l 1489 1136 l 1225 -8 l 718 -8 l 632 450 l 526 -8 l 32 -8 m 1264 1500 l 1042 1212 l 788 1212 l 1010 1500 l 1264 1500 z "},"ń":{"ha":1148,"x_min":32,"x_max":1291,"o":"m 32 -8 l 241 898 l 988 898 q 1222 834 1153 904 q 1261 637 1291 765 l 1112 -8 l 619 -8 l 764 622 q 731 681 778 681 q 693 669 708 681 q 671 622 679 657 l 525 -8 l 32 -8 m 1131 1261 l 908 972 l 655 972 l 877 1261 l 1131 1261 z "},"Ņ":{"ha":1261,"x_min":32,"x_max":1489,"o":"m 32 -8 l 296 1136 l 825 1136 l 903 742 l 994 1136 l 1489 1136 l 1225 -8 l 718 -8 l 632 450 l 526 -8 l 32 -8 m 498 -371 q 439 -329 471 -369 q 421 -229 408 -287 q 485 -131 434 -173 q 606 -85 541 -85 q 706 -127 673 -85 q 727 -229 740 -172 q 699 -290 719 -262 q 689 -302 695 -295 q 651 -329 677 -316 q 650 -330 650 -330 l 633 -353 q 430 -430 594 -387 l 440 -389 q 498 -371 488 -376 z "},"ņ":{"ha":1148,"x_min":32,"x_max":1291,"o":"m 32 -8 l 241 898 l 988 898 q 1222 834 1153 904 q 1261 637 1291 765 l 1112 -8 l 619 -8 l 764 622 q 731 681 778 681 q 693 669 708 681 q 671 622 679 657 l 525 -8 l 32 -8 m 457 -371 q 398 -329 430 -369 q 380 -229 367 -287 q 444 -131 393 -173 q 566 -85 500 -85 q 665 -127 632 -85 q 686 -229 699 -172 q 658 -290 679 -262 q 648 -302 655 -295 q 611 -329 636 -316 q 609 -330 610 -330 l 592 -353 q 389 -430 553 -387 l 399 -389 q 457 -371 447 -376 z "},"Ň":{"ha":1261,"x_min":32,"x_max":1489,"o":"m 32 -8 l 296 1136 l 825 1136 l 903 742 l 994 1136 l 1489 1136 l 1225 -8 l 718 -8 l 632 450 l 526 -8 l 32 -8 m 901 1503 l 950 1384 l 1054 1503 l 1263 1503 l 1009 1213 l 796 1212 l 807 1221 l 691 1503 l 901 1503 z "},"ň":{"ha":1148,"x_min":32,"x_max":1291,"o":"m 32 -8 l 241 898 l 988 898 q 1222 834 1153 904 q 1261 637 1291 765 l 1112 -8 l 619 -8 l 764 622 q 731 681 778 681 q 693 669 708 681 q 671 622 679 657 l 525 -8 l 32 -8 m 789 1263 l 838 1143 l 942 1263 l 1152 1263 l 898 972 l 684 971 l 695 981 l 579 1263 l 789 1263 z "},"ŉ":{"ha":1454,"x_min":198,"x_max":1596,"o":"m 338 -8 l 547 898 l 1294 898 q 1528 834 1459 904 q 1567 637 1596 765 l 1418 -8 l 925 -8 l 1070 622 q 1037 681 1084 681 q 999 669 1014 681 q 977 622 985 657 l 831 -8 l 338 -8 m 289 627 q 229 670 261 629 q 211 769 198 711 q 275 868 224 825 q 397 913 332 913 q 496 871 463 913 q 517 769 530 826 q 489 708 510 736 q 479 696 486 703 q 441 669 467 682 q 440 668 441 668 l 424 645 q 220 568 385 611 l 231 610 q 289 627 278 622 z "},"Ŋ":{"ha":1263,"x_min":32,"x_max":1489,"o":"m 698 76 l 631 448 l 526 -8 l 32 -8 l 296 1136 l 825 1136 l 903 742 l 994 1136 l 1489 1136 l 1429 876 l 1431 876 l 1216 -58 q 1177 -155 1203 -115 q 1106 -221 1151 -195 q 997 -258 1062 -247 q 845 -269 933 -269 l 550 -269 l 609 -14 q 698 76 716 -16 z "},"ŋ":{"ha":1150,"x_min":32,"x_max":1292,"o":"m 630 37 l 630 37 l 765 622 q 732 682 779 682 q 694 670 708 682 q 671 622 679 657 l 526 -8 l 32 -8 l 241 899 l 988 899 q 1223 835 1154 905 q 1262 637 1292 765 l 1101 -63 q 731 -269 1050 -269 l 436 -269 l 495 -15 l 525 -15 q 630 37 617 -16 z "},"Ō":{"ha":1160,"x_min":78,"x_max":1347,"o":"m 722 799 l 614 329 q 611 272 604 287 q 638 257 618 257 q 673 272 659 257 q 698 329 688 287 l 806 799 q 781 872 823 872 q 746 857 761 872 q 722 799 732 841 m 329 -17 q 194 -1 248 -17 q 112 50 139 15 q 81 137 84 85 q 95 262 78 189 l 240 895 q 355 1083 270 1022 q 596 1143 441 1143 l 1079 1143 q 1217 1129 1161 1143 q 1305 1084 1274 1115 q 1341 1005 1336 1052 q 1332 895 1347 958 l 1186 262 q 1070 48 1152 112 q 962 -1 1028 14 q 811 -17 897 -17 l 329 -17 m 1196 1409 l 1153 1220 l 571 1220 l 614 1409 l 1196 1409 z "},"ō":{"ha":1159,"x_min":67,"x_max":1297,"o":"m 682 649 l 587 237 q 620 178 573 178 q 658 190 644 178 q 680 237 672 202 l 775 649 q 742 708 789 708 q 704 696 719 708 q 682 649 690 684 m 192 686 q 231 783 205 743 q 302 849 257 824 q 410 886 346 875 q 562 897 475 897 l 1011 897 q 1157 886 1098 897 q 1249 849 1216 875 q 1290 782 1282 822 q 1284 686 1297 742 l 1172 201 q 1133 105 1159 144 q 1062 39 1107 65 q 952 1 1016 12 q 801 -10 888 -10 l 352 -10 q 206 1 265 -10 q 114 38 147 12 q 74 104 81 64 q 80 201 67 144 l 192 686 m 1138 1158 l 1094 969 l 512 969 l 556 1158 l 1138 1158 z "},"Ŏ":{"ha":1160,"x_min":78,"x_max":1347,"o":"m 722 799 l 614 329 q 611 272 604 287 q 638 257 618 257 q 673 272 659 257 q 698 329 688 287 l 806 799 q 781 872 823 872 q 746 857 761 872 q 722 799 732 841 m 329 -17 q 194 -1 248 -17 q 112 50 139 15 q 81 137 84 85 q 95 262 78 189 l 240 895 q 355 1083 270 1022 q 596 1143 441 1143 l 1079 1143 q 1217 1129 1161 1143 q 1305 1084 1274 1115 q 1341 1005 1336 1052 q 1332 895 1347 958 l 1186 262 q 1070 48 1152 112 q 962 -1 1028 14 q 811 -17 897 -17 l 329 -17 m 1055 1458 q 997 1384 1042 1418 q 891 1347 947 1347 q 802 1384 834 1347 q 778 1458 773 1418 l 682 1458 q 682 1459 682 1459 q 691 1371 682 1415 q 723 1297 699 1329 q 783 1249 747 1265 q 864 1231 820 1231 q 952 1249 908 1231 q 1035 1297 997 1265 q 1102 1371 1075 1329 q 1143 1466 1132 1415 q 1142 1458 1128 1297 l 1055 1458 z "},"ŏ":{"ha":1159,"x_min":67,"x_max":1297,"o":"m 682 649 l 587 237 q 620 178 573 178 q 658 190 644 178 q 680 237 672 202 l 775 649 q 742 708 789 708 q 704 696 719 708 q 682 649 690 684 m 192 686 q 231 783 205 743 q 302 849 257 824 q 410 886 346 875 q 562 897 475 897 l 1011 897 q 1157 886 1098 897 q 1249 849 1216 875 q 1290 782 1282 822 q 1284 686 1297 742 l 1172 201 q 1133 105 1159 144 q 1062 39 1107 65 q 952 1 1016 12 q 801 -10 888 -10 l 352 -10 q 206 1 265 -10 q 114 38 147 12 q 74 104 81 64 q 80 201 67 144 l 192 686 m 998 1214 q 940 1140 985 1174 q 834 1103 891 1103 q 745 1140 777 1103 q 721 1214 716 1174 l 625 1214 q 625 1216 625 1216 q 634 1127 625 1172 q 667 1053 642 1085 q 727 1005 690 1021 q 807 987 763 987 q 896 1005 851 987 q 979 1053 940 1021 q 1046 1127 1018 1085 q 1086 1222 1075 1172 q 1085 1214 1071 1054 l 998 1214 z "},"Ő":{"ha":1160,"x_min":78,"x_max":1347,"o":"m 722 799 l 614 329 q 611 272 604 287 q 638 257 618 257 q 673 272 659 257 q 698 329 688 287 l 806 799 q 781 872 823 872 q 746 857 761 872 q 722 799 732 841 m 329 -17 q 194 -1 248 -17 q 112 50 139 15 q 81 137 84 85 q 95 262 78 189 l 240 895 q 355 1083 270 1022 q 596 1143 441 1143 l 1079 1143 q 1217 1129 1161 1143 q 1305 1084 1274 1115 q 1341 1005 1336 1052 q 1332 895 1347 958 l 1186 262 q 1070 48 1152 112 q 962 -1 1028 14 q 811 -17 897 -17 l 329 -17 m 1298 1529 l 1128 1214 l 882 1214 l 1052 1529 l 1298 1529 m 1004 1529 l 834 1214 l 588 1214 l 758 1529 l 1004 1529 z "},"ő":{"ha":1159,"x_min":67,"x_max":1297,"o":"m 682 649 l 587 237 q 620 178 573 178 q 658 190 644 178 q 680 237 672 202 l 775 649 q 742 708 789 708 q 704 696 719 708 q 682 649 690 684 m 192 686 q 231 783 205 743 q 302 849 257 824 q 410 886 346 875 q 562 897 475 897 l 1011 897 q 1157 886 1098 897 q 1249 849 1216 875 q 1290 782 1282 822 q 1284 686 1297 742 l 1172 201 q 1133 105 1159 144 q 1062 39 1107 65 q 952 1 1016 12 q 801 -10 888 -10 l 352 -10 q 206 1 265 -10 q 114 38 147 12 q 74 104 81 64 q 80 201 67 144 l 192 686 m 1232 1284 l 1061 970 l 815 970 l 985 1284 l 1232 1284 m 938 1284 l 767 970 l 521 970 l 691 1284 l 938 1284 z "},"Ŕ":{"ha":1113,"x_min":32,"x_max":1332,"o":"m 773 865 l 728 865 l 659 565 l 702 565 q 741 579 726 565 q 766 637 756 594 l 802 792 q 804 850 812 836 q 773 865 795 865 m 596 296 l 526 -8 l 32 -8 l 296 1136 l 1066 1136 q 1204 1121 1148 1136 q 1290 1075 1260 1106 q 1327 996 1321 1044 q 1317 885 1332 949 l 1245 574 q 1128 358 1210 419 q 1106 342 1114 347 q 1109 -8 1193 231 l 660 -8 q 596 296 781 329 m 1188 1501 l 966 1212 l 712 1212 l 935 1501 l 1188 1501 z "},"ŕ":{"ha":795,"x_min":32,"x_max":968,"o":"m 32 -8 l 240 896 l 721 896 l 711 855 q 968 896 774 910 l 907 628 q 637 474 685 627 l 526 -8 l 32 -8 m 843 1259 l 621 970 l 368 970 l 590 1259 l 843 1259 z "},"Ŗ":{"ha":1147,"x_min":32,"x_max":1315,"o":"m 728 865 l 686 685 l 720 685 q 762 703 745 685 q 790 774 778 721 q 796 848 804 830 q 762 865 789 865 l 728 865 m 610 -8 l 660 207 q 665 280 672 262 q 631 299 658 299 l 597 299 l 527 -8 l 32 -8 l 296 1136 l 1059 1136 q 1199 1116 1143 1136 q 1283 1054 1255 1096 q 1313 948 1311 1012 q 1295 796 1315 883 q 1256 673 1279 725 q 1201 580 1234 620 q 1123 513 1168 540 q 1047 478 1078 487 q 1150 362 1124 454 q 1134 90 1176 270 l 1112 -8 l 610 -8 m 441 -371 q 381 -329 413 -369 q 363 -229 350 -287 q 427 -131 377 -173 q 549 -85 484 -85 q 648 -127 615 -85 q 669 -229 683 -172 q 641 -290 662 -262 q 631 -302 638 -295 q 594 -329 620 -316 q 592 -330 593 -330 l 576 -353 q 372 -430 537 -387 l 383 -389 q 441 -371 430 -376 z "},"ŗ":{"ha":795,"x_min":32,"x_max":968,"o":"m 32 -8 l 240 896 l 721 896 l 711 855 q 968 896 774 910 l 907 628 q 637 474 685 627 l 526 -8 l 32 -8 m 159 -371 q 99 -329 131 -369 q 82 -229 68 -287 q 145 -131 95 -173 q 267 -85 202 -85 q 366 -127 333 -85 q 388 -229 400 -172 q 359 -290 380 -262 q 349 -302 356 -295 q 312 -329 338 -316 q 311 -330 311 -330 l 294 -353 q 90 -430 255 -387 l 101 -389 q 159 -371 148 -376 z "},"Ř":{"ha":1113,"x_min":32,"x_max":1332,"o":"m 773 865 l 728 865 l 659 565 l 702 565 q 741 579 726 565 q 766 637 756 594 l 802 792 q 804 850 812 836 q 773 865 795 865 m 596 296 l 526 -8 l 32 -8 l 296 1136 l 1066 1136 q 1204 1121 1148 1136 q 1290 1075 1260 1106 q 1327 996 1321 1044 q 1317 885 1332 949 l 1245 574 q 1128 358 1210 419 q 1106 342 1114 347 q 1109 -8 1193 231 l 660 -8 q 596 296 781 329 m 847 1503 l 896 1384 l 1000 1503 l 1210 1503 l 956 1212 l 742 1212 l 753 1221 l 637 1503 l 847 1503 z "},"ř":{"ha":822,"x_min":58,"x_max":995,"o":"m 58 -8 l 267 896 l 747 896 l 738 855 q 995 896 800 910 l 933 628 q 664 474 711 627 l 552 -8 l 58 -8 m 534 1261 l 584 1142 l 688 1261 l 898 1261 l 644 970 l 430 970 l 441 979 l 325 1261 l 534 1261 z "},"Ś":{"ha":1168,"x_min":58,"x_max":1371,"o":"m 341 -9 q 123 47 189 -9 q 89 227 58 103 l 136 433 l 647 433 l 627 348 q 652 278 611 278 q 686 294 671 278 q 712 354 701 309 q 719 396 718 380 q 715 423 720 413 q 699 442 710 434 q 664 459 687 450 l 371 578 q 232 672 261 622 q 223 806 203 723 l 250 923 q 364 1081 273 1026 q 608 1136 455 1136 l 1087 1136 q 1305 1081 1240 1136 q 1347 923 1371 1026 l 1316 786 l 808 786 l 813 807 q 784 873 828 873 q 755 862 769 873 q 735 828 741 851 q 733 808 732 815 q 739 793 733 800 q 758 779 745 787 q 795 761 771 771 l 1138 615 q 1195 579 1173 600 q 1227 531 1217 559 q 1235 465 1237 503 q 1221 376 1233 427 l 1193 255 q 1069 51 1157 110 q 821 -9 981 -9 l 341 -9 m 1197 1501 l 975 1212 l 722 1212 l 944 1501 l 1197 1501 z "},"ś":{"ha":1161,"x_min":67,"x_max":1298,"o":"m 1174 200 q 1135 103 1160 143 q 1064 37 1109 64 q 954 0 1018 11 q 802 -11 889 -11 l 352 -11 q 206 0 265 -11 q 114 37 147 11 q 74 103 81 62 q 80 200 67 143 l 107 318 l 606 318 l 587 236 q 621 176 574 176 q 659 189 644 176 q 681 236 673 201 l 687 259 q 609 339 700 314 l 357 404 q 199 479 235 437 q 181 602 162 520 l 200 685 q 239 782 214 742 q 311 848 265 822 q 420 885 356 874 q 572 896 485 896 l 1012 896 q 1158 885 1099 896 q 1251 847 1217 874 q 1291 781 1284 821 q 1285 685 1298 741 l 1270 617 l 775 617 l 782 648 q 749 707 795 707 q 713 696 729 707 q 692 666 697 686 q 691 642 689 652 q 701 624 692 632 q 731 608 710 616 q 790 590 752 600 l 979 540 q 1174 449 1130 499 q 1198 307 1220 401 l 1174 200 m 1137 1260 l 915 971 l 661 971 l 884 1260 l 1137 1260 z "},"Ŝ":{"ha":1168,"x_min":58,"x_max":1371,"o":"m 341 -9 q 123 47 189 -9 q 89 227 58 103 l 136 433 l 647 433 l 627 348 q 652 278 611 278 q 686 294 671 278 q 712 354 701 309 q 719 396 718 380 q 715 423 720 413 q 699 442 710 434 q 664 459 687 450 l 371 578 q 232 672 261 622 q 223 806 203 723 l 250 923 q 364 1081 273 1026 q 608 1136 455 1136 l 1087 1136 q 1305 1081 1240 1136 q 1347 923 1371 1026 l 1316 786 l 808 786 l 813 807 q 784 873 828 873 q 755 862 769 873 q 735 828 741 851 q 733 808 732 815 q 739 793 733 800 q 758 779 745 787 q 795 761 771 771 l 1138 615 q 1195 579 1173 600 q 1227 531 1217 559 q 1235 465 1237 503 q 1221 376 1233 427 l 1193 255 q 1069 51 1157 110 q 821 -9 981 -9 l 341 -9 m 942 1213 l 893 1332 l 789 1213 l 579 1213 l 833 1503 l 1037 1504 l 1035 1495 l 1152 1213 l 942 1213 z "},"ŝ":{"ha":1161,"x_min":67,"x_max":1298,"o":"m 1174 200 q 1135 103 1160 143 q 1064 37 1109 64 q 954 0 1018 11 q 802 -11 889 -11 l 352 -11 q 206 0 265 -11 q 114 37 147 11 q 74 103 81 62 q 80 200 67 143 l 107 318 l 606 318 l 587 236 q 621 176 574 176 q 659 189 644 176 q 681 236 673 201 l 687 259 q 609 339 700 314 l 357 404 q 199 479 235 437 q 181 602 162 520 l 200 685 q 239 782 214 742 q 311 848 265 822 q 420 885 356 874 q 572 896 485 896 l 1012 896 q 1158 885 1099 896 q 1251 847 1217 874 q 1291 781 1284 821 q 1285 685 1298 741 l 1270 617 l 775 617 l 782 648 q 749 707 795 707 q 713 696 729 707 q 692 666 697 686 q 691 642 689 652 q 701 624 692 632 q 731 608 710 616 q 790 590 752 600 l 979 540 q 1174 449 1130 499 q 1198 307 1220 401 l 1174 200 m 882 971 l 833 1091 l 728 971 l 519 971 l 773 1262 l 977 1263 l 975 1254 l 1091 971 l 882 971 z "},"Ţ":{"ha":1075,"x_min":233,"x_max":1303,"o":"m 279 -8 l 480 862 l 233 862 l 296 1136 l 1303 1136 l 1240 862 l 993 862 l 792 -8 l 279 -8 m 420 -371 q 361 -329 393 -369 q 343 -229 330 -287 q 407 -131 356 -173 q 528 -85 463 -85 q 628 -127 595 -85 q 649 -229 662 -172 q 621 -290 641 -262 q 611 -302 617 -295 q 573 -329 599 -316 q 572 -330 572 -330 l 555 -353 q 352 -430 516 -387 l 362 -389 q 420 -371 410 -376 z "},"ţ":{"ha":807,"x_min":150,"x_max":955,"o":"m 333 785 l 414 1136 l 908 1136 l 827 785 l 955 785 l 911 598 l 784 598 l 644 -8 l 150 -8 l 290 598 l 172 598 l 215 785 l 333 785 m 267 -371 q 208 -329 240 -369 q 190 -229 177 -287 q 254 -131 203 -173 q 375 -85 310 -85 q 475 -127 442 -85 q 496 -229 509 -172 q 468 -290 488 -262 q 458 -302 465 -295 q 420 -329 446 -316 q 419 -330 419 -330 l 402 -353 q 199 -430 363 -387 l 209 -389 q 267 -371 257 -376 z "},"Ť":{"ha":1075,"x_min":233,"x_max":1303,"o":"m 279 -8 l 480 862 l 233 862 l 296 1136 l 1303 1136 l 1240 862 l 993 862 l 792 -8 l 279 -8 m 808 1504 l 857 1384 l 961 1504 l 1171 1504 l 917 1213 l 703 1213 l 714 1222 l 598 1504 l 808 1504 z "},"ť":{"ha":978,"x_min":150,"x_max":1186,"o":"m 333 785 l 414 1136 l 908 1136 l 827 785 l 955 785 l 911 598 l 784 598 l 644 -8 l 150 -8 l 290 598 l 172 598 l 215 785 l 333 785 m 944 849 q 885 892 916 851 q 867 991 853 933 q 930 1090 880 1047 q 1052 1136 987 1136 q 1152 1093 1119 1136 q 1173 991 1186 1048 q 1144 930 1165 958 q 1135 918 1141 925 q 1097 891 1123 904 q 1096 890 1096 890 l 1079 867 q 876 790 1040 833 l 886 832 q 944 849 933 844 z "},"Ŧ":{"ha":1075,"x_min":233,"x_max":1303,"o":"m 902 469 l 792 -8 l 279 -8 l 390 469 l 325 469 l 368 659 l 433 659 l 480 862 l 233 862 l 296 1136 l 1303 1136 l 1240 862 l 993 862 l 946 659 l 1011 659 l 967 469 l 902 469 z "},"ŧ":{"ha":807,"x_min":150,"x_max":955,"o":"m 278 546 l 290 598 l 172 598 l 215 785 l 333 785 l 414 1136 l 908 1136 l 827 785 l 955 785 l 911 598 l 784 598 l 771 546 l 851 546 l 807 356 l 728 356 l 644 -8 l 150 -8 l 234 356 l 164 356 l 208 546 l 278 546 z "},"Ũ":{"ha":1160,"x_min":78,"x_max":1391,"o":"m 886 1143 l 1391 1143 l 1332 895 l 1186 262 q 1070 48 1152 112 q 962 -1 1028 14 q 811 -17 897 -17 l 329 -17 q 194 -1 248 -17 q 112 50 139 15 q 81 137 84 85 q 95 262 78 189 l 298 1143 l 596 1143 l 802 1143 l 614 329 q 611 272 604 287 q 638 257 618 257 q 673 272 659 257 q 698 329 688 287 l 886 1143 m 1202 1339 q 953 1212 1077 1212 q 807 1257 892 1212 q 748 1275 771 1275 q 610 1204 700 1275 l 546 1328 q 783 1436 670 1436 q 920 1397 847 1436 q 987 1373 964 1373 q 1138 1462 1040 1373 l 1202 1339 z "},"ũ":{"ha":1158,"x_min":63,"x_max":1332,"o":"m 1332 899 l 1122 -8 l 371 -8 q 133 59 203 -8 q 93 254 63 125 l 241 899 l 739 899 l 593 269 q 627 209 579 209 q 665 222 650 209 q 688 269 680 234 l 833 899 l 1332 899 m 1159 1098 q 910 971 1034 971 q 764 1017 849 971 q 705 1035 728 1035 q 568 964 657 1035 l 503 1087 q 740 1195 628 1195 q 877 1156 804 1195 q 944 1132 922 1132 q 1095 1221 997 1132 l 1159 1098 z "},"Ū":{"ha":1160,"x_min":78,"x_max":1391,"o":"m 886 1143 l 1391 1143 l 1332 895 l 1186 262 q 1070 48 1152 112 q 962 -1 1028 14 q 811 -17 897 -17 l 329 -17 q 194 -1 248 -17 q 112 50 139 15 q 81 137 84 85 q 95 262 78 189 l 298 1143 l 596 1143 l 802 1143 l 614 329 q 611 272 604 287 q 638 257 618 257 q 673 272 659 257 q 698 329 688 287 l 886 1143 m 1182 1407 l 1139 1218 l 557 1218 l 601 1407 l 1182 1407 z "},"ū":{"ha":1158,"x_min":63,"x_max":1332,"o":"m 1332 899 l 1122 -8 l 371 -8 q 133 59 203 -8 q 93 254 63 125 l 241 899 l 739 899 l 593 269 q 627 209 579 209 q 665 222 650 209 q 688 269 680 234 l 833 899 l 1332 899 m 1138 1160 l 1094 970 l 512 970 l 556 1160 l 1138 1160 z "},"Ŭ":{"ha":1160,"x_min":78,"x_max":1391,"o":"m 886 1143 l 1391 1143 l 1332 895 l 1186 262 q 1070 48 1152 112 q 962 -1 1028 14 q 811 -17 897 -17 l 329 -17 q 194 -1 248 -17 q 112 50 139 15 q 81 137 84 85 q 95 262 78 189 l 298 1143 l 596 1143 l 802 1143 l 614 329 q 611 272 604 287 q 638 257 618 257 q 673 272 659 257 q 698 329 688 287 l 886 1143 m 1041 1456 q 983 1382 1028 1416 q 877 1345 934 1345 q 788 1382 820 1345 q 765 1456 759 1416 l 668 1456 q 668 1457 668 1457 q 677 1369 668 1413 q 710 1295 685 1327 q 770 1246 733 1263 q 850 1229 806 1229 q 939 1246 895 1229 q 1022 1295 983 1263 q 1089 1369 1061 1327 q 1129 1464 1118 1413 q 1129 1456 1114 1295 l 1041 1456 z "},"ŭ":{"ha":1158,"x_min":63,"x_max":1332,"o":"m 1332 899 l 1122 -8 l 371 -8 q 133 59 203 -8 q 93 254 63 125 l 241 899 l 739 899 l 593 269 q 627 209 579 209 q 665 222 650 209 q 688 269 680 234 l 833 899 l 1332 899 m 998 1215 q 940 1141 985 1175 q 834 1104 891 1104 q 745 1141 777 1104 q 721 1215 716 1175 l 625 1215 q 625 1217 625 1217 q 634 1128 625 1173 q 666 1054 642 1086 q 727 1006 690 1022 q 807 988 763 988 q 896 1006 851 988 q 978 1054 940 1022 q 1045 1128 1018 1086 q 1086 1223 1075 1173 q 1085 1215 1071 1055 l 998 1215 z "},"Ů":{"ha":1160,"x_min":78,"x_max":1391,"o":"m 886 1143 l 1391 1143 l 1332 895 l 1186 262 q 1070 48 1152 112 q 962 -1 1028 14 q 811 -17 897 -17 l 329 -17 q 194 -1 248 -17 q 112 50 139 15 q 81 137 84 85 q 95 262 78 189 l 298 1143 l 596 1143 l 802 1143 l 614 329 q 611 272 604 287 q 638 257 618 257 q 673 272 659 257 q 698 329 688 287 l 886 1143 m 939 1614 q 1077 1551 1028 1614 q 1103 1413 1121 1493 q 1008 1271 1084 1333 q 846 1213 936 1213 q 710 1272 756 1213 q 683 1413 664 1332 q 777 1554 702 1493 q 939 1614 850 1614 m 906 1470 q 868 1453 889 1470 q 845 1413 851 1439 q 851 1372 839 1388 q 880 1357 862 1357 q 918 1374 897 1357 q 941 1413 935 1388 q 936 1453 947 1439 q 906 1470 923 1470 z "},"ů":{"ha":1158,"x_min":63,"x_max":1332,"o":"m 1332 899 l 1122 -8 l 371 -8 q 133 59 203 -8 q 93 254 63 125 l 241 899 l 739 899 l 593 269 q 627 209 579 209 q 665 222 650 209 q 688 269 680 234 l 833 899 l 1332 899 m 896 1373 q 1033 1310 985 1373 q 1060 1172 1078 1252 q 964 1030 1041 1092 q 803 971 892 971 q 667 1031 713 971 q 640 1172 621 1091 q 733 1313 658 1252 q 896 1373 807 1373 m 862 1229 q 825 1212 845 1229 q 802 1172 807 1198 q 807 1131 795 1146 q 837 1116 819 1116 q 874 1133 854 1116 q 898 1172 892 1147 q 893 1212 903 1198 q 862 1229 880 1229 z "},"Ű":{"ha":1160,"x_min":78,"x_max":1391,"o":"m 886 1143 l 1391 1143 l 1332 895 l 1186 262 q 1070 48 1152 112 q 962 -1 1028 14 q 811 -17 897 -17 l 329 -17 q 194 -1 248 -17 q 112 50 139 15 q 81 137 84 85 q 95 262 78 189 l 298 1143 l 596 1143 l 802 1143 l 614 329 q 611 272 604 287 q 638 257 618 257 q 673 272 659 257 q 698 329 688 287 l 886 1143 m 1279 1527 l 1109 1212 l 863 1212 l 1033 1527 l 1279 1527 m 985 1527 l 815 1212 l 569 1212 l 739 1527 l 985 1527 z "},"ű":{"ha":1158,"x_min":63,"x_max":1332,"o":"m 1332 899 l 1122 -8 l 371 -8 q 133 59 203 -8 q 93 254 63 125 l 241 899 l 739 899 l 593 269 q 627 209 579 209 q 665 222 650 209 q 688 269 680 234 l 833 899 l 1332 899 m 1237 1284 l 1067 970 l 821 970 l 990 1284 l 1237 1284 m 943 1284 l 773 970 l 527 970 l 696 1284 l 943 1284 z "},"Ų":{"ha":1160,"x_min":78,"x_max":1391,"o":"m 423 -17 l 329 -17 q 194 -1 248 -17 q 112 50 139 15 q 81 137 84 85 q 95 262 78 189 l 298 1143 l 596 1143 l 802 1143 l 614 329 q 611 272 604 287 q 638 257 618 257 q 673 272 659 257 q 698 329 688 287 l 886 1143 l 1391 1143 l 1332 895 l 1186 262 q 1070 48 1152 112 q 962 -1 1028 14 q 813 -17 897 -17 q 623 -76 686 -32 q 529 -190 535 -143 q 579 -242 524 -231 q 707 -238 632 -253 l 677 -360 q 467 -414 592 -393 q 196 -410 265 -437 q 134 -329 134 -385 q 181 -213 133 -279 q 320 -80 231 -145 q 423 -17 377 -38 z "},"ų":{"ha":1158,"x_min":63,"x_max":1332,"o":"m 766 -8 l 371 -8 q 133 59 203 -8 q 93 254 63 125 l 241 899 l 739 899 l 593 269 q 627 209 579 209 q 665 222 650 209 q 688 269 680 234 l 833 899 l 1332 899 l 1124 -3 q 963 -89 1018 -44 q 893 -180 898 -143 q 926 -221 888 -213 q 1022 -221 963 -230 l 998 -321 q 724 -374 846 -369 q 552 -356 602 -378 q 507 -290 507 -335 q 544 -197 507 -250 q 646 -90 581 -143 q 766 -8 716 -34 z "},"Ŵ":{"ha":1710,"x_min":273,"x_max":1938,"o":"m 1301 1137 l 1277 712 l 1445 1137 l 1938 1137 l 1432 -8 l 936 -8 l 946 396 l 769 -8 l 273 -8 l 296 1137 l 789 1137 l 761 712 l 933 1137 l 1301 1137 m 1212 1213 l 1162 1332 l 1058 1213 l 849 1213 l 1103 1503 l 1306 1504 l 1304 1495 l 1421 1213 l 1212 1213 z "},"ŵ":{"ha":1697,"x_min":241,"x_max":1870,"o":"m 1237 899 l 1239 571 l 1394 899 l 1870 899 l 1383 -8 l 936 -8 l 930 352 l 756 -8 l 309 -8 l 241 899 l 714 899 l 721 571 l 874 899 l 1237 899 m 1149 971 l 1100 1091 l 996 971 l 787 971 l 1041 1262 l 1244 1263 l 1242 1254 l 1359 971 l 1149 971 z "},"Ŷ":{"ha":1264,"x_min":296,"x_max":1493,"o":"m 381 -8 l 481 427 l 296 1137 l 784 1137 l 839 895 l 1006 1137 l 1493 1137 l 980 427 l 880 -8 l 381 -8 m 989 1213 l 940 1332 l 835 1213 l 626 1213 l 880 1503 l 1084 1504 l 1082 1495 l 1198 1213 l 989 1213 z "},"ŷ":{"ha":1156,"x_min":24,"x_max":1330,"o":"m 836 899 l 1330 899 l 1116 -25 q 1071 -149 1097 -108 q 1000 -215 1045 -189 q 891 -253 954 -242 q 740 -264 827 -264 l 24 -264 l 67 -78 l 516 -78 q 595 -69 575 -78 q 628 -13 614 -61 q 472 -14 541 -14 l 368 -14 q 132 56 200 -14 q 93 254 63 126 l 241 899 l 739 899 l 594 270 q 595 222 586 234 q 630 210 604 210 q 668 222 653 210 q 690 270 682 234 l 836 899 m 879 971 l 830 1091 l 726 971 l 516 971 l 770 1262 l 974 1263 l 972 1254 l 1088 971 l 879 971 z "},"Ź":{"ha":994,"x_min":32,"x_max":1223,"o":"m 1223 1137 l 1166 892 l 686 266 l 1022 266 l 959 -8 l 32 -8 l 90 243 l 568 863 l 263 863 l 327 1137 l 1223 1137 m 1109 1501 l 887 1213 l 634 1213 l 856 1501 l 1109 1501 z "},"ź":{"ha":960,"x_min":32,"x_max":1111,"o":"m 32 -8 l 72 163 l 522 695 l 226 695 l 273 899 l 1111 899 l 1071 726 l 620 190 l 970 190 l 924 -8 l 32 -8 m 1036 1260 l 814 971 l 561 971 l 783 1260 l 1036 1260 z "},"Ż":{"ha":994,"x_min":32,"x_max":1223,"o":"m 1223 1137 l 1166 892 l 686 266 l 1022 266 l 959 -8 l 32 -8 l 90 243 l 568 863 l 263 863 l 327 1137 l 1223 1137 m 839 1482 q 934 1439 901 1482 q 952 1348 964 1400 q 887 1252 940 1295 q 777 1213 839 1213 q 684 1253 715 1213 q 665 1348 652 1294 q 725 1439 677 1400 q 839 1482 778 1482 z "},"ż":{"ha":960,"x_min":32,"x_max":1111,"o":"m 32 -8 l 72 163 l 522 695 l 226 695 l 273 899 l 1111 899 l 1071 726 l 620 190 l 970 190 l 924 -8 l 32 -8 m 766 1241 q 861 1198 828 1241 q 879 1106 891 1159 q 814 1011 867 1054 q 704 971 766 971 q 610 1012 642 971 q 592 1106 579 1053 q 652 1198 604 1159 q 766 1241 705 1241 z "},"ſ":{"ha":685,"x_min":32,"x_max":913,"o":"m 248 925 q 286 1022 260 982 q 357 1088 312 1062 q 466 1125 401 1114 q 618 1136 530 1136 l 913 1136 l 854 882 l 825 882 q 747 873 767 882 q 722 842 727 865 l 526 -8 l 32 -8 l 248 925 z "},"Ǻ":{"ha":1217,"x_min":32,"x_max":1294,"o":"m 691 502 l 756 502 l 780 748 l 691 502 m 915 1331 q 877 1314 898 1331 q 854 1275 860 1300 q 860 1234 848 1249 q 889 1218 872 1218 q 927 1235 906 1218 q 950 1275 944 1249 q 945 1314 956 1300 q 915 1331 932 1331 m 1013 1136 l 1226 1136 l 1181 -8 l 686 -8 l 714 236 l 609 236 l 526 -8 l 32 -8 l 515 1136 l 726 1136 q 719 1136 687 1180 q 693 1275 674 1194 q 786 1416 711 1355 q 948 1475 860 1475 q 1086 1413 1038 1475 q 1113 1275 1131 1355 q 1017 1132 1094 1195 q 1013 1136 1103 1202 m 1294 1801 l 1071 1512 l 818 1512 l 1040 1801 l 1294 1801 z "},"ǻ":{"ha":1156,"x_min":73,"x_max":1294,"o":"m 695 257 l 723 379 l 682 367 q 620 335 640 353 q 591 277 601 316 l 587 257 q 625 195 573 195 q 669 208 652 195 q 695 257 687 221 m 835 1114 q 797 1097 818 1114 q 774 1058 780 1083 q 780 1017 768 1032 q 809 1001 792 1001 q 847 1018 826 1001 q 870 1058 864 1032 q 865 1097 876 1083 q 835 1114 852 1114 m 917 899 l 1007 899 q 1153 888 1094 899 q 1246 850 1213 877 q 1286 783 1279 823 q 1281 687 1294 743 l 1120 -8 l 374 -8 q 141 57 210 -11 q 104 303 73 125 q 506 583 190 575 l 767 583 l 783 652 q 782 703 792 691 q 745 715 772 715 q 703 702 719 715 q 680 652 688 689 l 671 615 l 191 615 l 208 687 q 247 784 221 744 q 318 851 273 825 q 428 888 363 877 q 579 899 492 899 l 653 899 q 638 919 654 898 q 612 1058 594 977 q 706 1199 631 1138 q 868 1258 780 1258 q 1006 1196 958 1258 q 1032 1058 1051 1138 q 937 915 1014 978 q 917 899 916 898 m 1217 1569 l 995 1280 l 741 1280 l 964 1569 l 1217 1569 z "},"Ǽ":{"ha":1641,"x_min":32,"x_max":1869,"o":"m 757 502 l 822 502 l 880 746 l 757 502 m 688 -8 l 746 236 l 641 236 l 526 -8 l 32 -8 l 663 1136 l 1869 1136 l 1806 862 l 1359 862 l 1335 756 l 1739 756 l 1676 482 l 1272 482 l 1222 266 l 1668 266 l 1605 -8 l 688 -8 m 1531 1503 l 1309 1215 l 1056 1215 l 1278 1503 l 1531 1503 z "},"ǽ":{"ha":1763,"x_min":73,"x_max":1900,"o":"m 695 257 l 723 379 l 682 367 q 620 335 640 353 q 591 277 601 316 l 587 257 q 625 195 573 195 q 669 208 652 195 q 695 257 687 221 m 1280 648 l 1266 585 l 1370 585 l 1384 648 q 1347 714 1399 714 q 1305 700 1320 714 q 1280 648 1290 687 m 374 -8 q 141 57 210 -11 q 104 303 73 125 q 505 583 165 545 l 767 582 l 783 652 q 782 703 792 691 q 745 715 772 715 q 703 702 719 715 q 680 652 688 689 l 671 615 l 191 615 l 208 687 q 247 784 221 744 q 318 851 273 825 q 428 888 363 877 q 579 899 492 899 l 1615 899 q 1760 885 1701 896 q 1853 847 1819 874 q 1893 781 1886 821 q 1887 685 1900 741 l 1824 409 l 1229 409 l 1189 236 q 1223 176 1176 176 q 1261 189 1246 176 q 1283 236 1275 201 l 1312 358 l 1812 358 l 1775 200 q 1737 103 1762 143 q 1665 37 1711 64 q 1556 1 1619 11 q 1405 -8 1492 -8 l 374 -8 m 1438 1260 l 1216 971 l 962 971 l 1185 1260 l 1438 1260 z "},"Ǿ":{"ha":1160,"x_min":78,"x_max":1347,"o":"m 749 552 l 623 370 l 614 329 q 611 272 604 287 q 638 257 618 257 q 673 272 659 257 q 698 329 688 287 l 749 552 m 1053 1143 l 1126 1249 l 1231 1249 l 1155 1140 q 1216 1129 1182 1138 q 1305 1084 1274 1115 q 1341 1005 1336 1052 q 1332 895 1347 958 l 1186 262 q 1070 48 1152 112 q 962 -1 1028 14 q 811 -17 897 -17 l 356 -17 l 283 -123 l 179 -123 l 254 -13 q 195 -1 228 -11 q 112 50 139 15 q 81 137 84 85 q 95 262 78 189 l 240 895 q 355 1083 270 1022 q 596 1143 441 1143 l 1053 1143 m 676 596 l 801 779 l 806 799 q 781 872 823 872 q 746 857 761 872 q 722 799 732 841 l 676 596 m 1193 1504 l 970 1215 l 717 1215 l 939 1504 l 1193 1504 z "},"ǿ":{"ha":1161,"x_min":67,"x_max":1299,"o":"m 270 -7 q 208 1 243 -6 q 114 38 147 12 q 74 104 81 64 q 80 201 67 144 l 193 688 q 231 785 205 744 q 302 851 257 825 q 411 888 347 877 q 563 899 475 899 l 978 899 l 1074 1022 l 1175 1022 l 1078 898 q 1157 888 1115 896 q 1251 850 1218 877 q 1292 783 1284 824 q 1286 688 1299 743 l 1174 201 q 1135 105 1161 144 q 1064 39 1109 65 q 954 1 1018 12 q 803 -10 890 -10 l 369 -10 l 287 -116 l 185 -116 l 270 -7 m 732 455 l 598 284 l 588 237 q 621 178 574 178 q 659 190 645 178 q 682 237 673 202 l 732 455 m 641 468 l 774 638 l 777 650 q 744 710 791 710 q 706 697 720 710 q 683 650 691 685 l 641 468 m 1137 1259 l 914 970 l 661 970 l 883 1259 l 1137 1259 z "},"΄":{"ha":476,"x_min":314,"x_max":790,"o":"m 790 1503 l 568 1214 l 314 1214 l 537 1503 l 790 1503 z "},"΅":{"ha":815,"x_min":275,"x_max":1047,"o":"m 461 1231 q 556 1188 523 1231 q 574 1096 587 1149 q 510 1001 562 1043 q 399 961 461 961 q 306 1002 337 961 q 287 1096 275 1042 q 347 1188 299 1149 q 461 1231 400 1231 m 922 1231 q 1017 1188 984 1231 q 1035 1096 1047 1149 q 970 1001 1023 1043 q 860 961 922 961 q 766 1002 798 961 q 748 1096 735 1042 q 808 1188 760 1149 q 922 1231 860 1231 m 906 1335 l 693 970 l 481 970 l 693 1335 l 906 1335 z "},"·":{"ha":355,"x_min":144,"x_max":456,"o":"m 331 668 q 426 625 393 668 q 444 533 456 586 q 379 438 432 480 q 269 398 331 398 q 176 439 207 398 q 157 533 144 479 q 217 625 169 586 q 331 668 270 668 z "},"ΐ":{"ha":815,"x_min":122,"x_max":1047,"o":"m 122 -8 l 332 899 l 824 899 l 615 -8 l 122 -8 m 461 1231 q 556 1188 523 1231 q 574 1096 586 1149 q 509 1001 562 1043 q 399 961 461 961 q 306 1002 337 961 q 287 1096 274 1042 q 347 1188 299 1149 q 461 1231 400 1231 m 922 1231 q 1017 1188 984 1231 q 1035 1096 1047 1149 q 970 1001 1022 1043 q 859 961 921 961 q 766 1002 797 961 q 747 1096 735 1042 q 808 1188 760 1149 q 922 1231 860 1231 m 906 1335 l 693 970 l 480 970 l 693 1335 l 906 1335 z "},"Ё":{"ha":1003,"x_min":32,"x_max":1231,"o":"m 32 -8 l 296 1136 l 1231 1136 l 1168 862 l 722 862 l 684 702 l 1089 702 l 1026 428 l 621 428 l 584 266 l 1030 266 l 967 -8 l 32 -8 m 680 1483 q 774 1440 742 1483 q 792 1349 805 1401 q 731 1256 780 1296 q 617 1214 679 1214 q 524 1254 555 1214 q 505 1349 493 1295 q 569 1443 517 1401 q 680 1483 618 1483 m 1007 1483 q 1102 1440 1069 1483 q 1120 1349 1133 1401 q 1059 1256 1108 1296 q 945 1214 1007 1214 q 852 1254 883 1214 q 833 1349 821 1295 q 897 1443 845 1401 q 1007 1483 946 1483 z "},"Ђ":{"ha":1498,"x_min":233,"x_max":1612,"o":"m 929 587 l 792 -8 l 279 -8 l 480 862 l 233 862 l 296 1136 l 1303 1136 l 1240 862 l 993 862 l 977 793 l 1324 793 q 1471 782 1412 793 q 1563 745 1530 771 q 1605 681 1597 720 q 1599 588 1612 642 l 1509 196 q 1471 101 1496 140 q 1400 36 1445 62 q 1290 0 1354 11 q 1139 -11 1226 -11 l 845 -11 l 901 231 q 957 174 931 174 q 1017 231 1003 174 l 1086 530 q 1085 576 1094 565 q 1052 587 1076 587 l 929 587 z "},"Ѓ":{"ha":828,"x_min":32,"x_max":1056,"o":"m 32 -8 l 296 1136 l 1056 1136 l 993 862 l 745 862 l 544 -8 l 32 -8 m 1016 1503 l 793 1214 l 540 1214 l 763 1503 l 1016 1503 z "},"Є":{"ha":1131,"x_min":61,"x_max":1333,"o":"m 641 502 l 603 338 q 600 280 593 296 q 626 265 607 265 q 684 338 667 265 l 716 477 l 1207 477 l 1153 244 q 1111 132 1138 179 q 1040 53 1084 85 q 934 7 995 22 q 792 -8 872 -8 l 323 -8 q 116 54 171 -8 q 90 244 61 116 l 236 874 q 280 1000 253 948 q 349 1086 307 1052 q 452 1136 392 1121 q 591 1152 512 1152 l 1060 1152 q 1200 1136 1143 1152 q 1282 1087 1257 1121 q 1298 874 1333 1024 l 1262 718 l 771 718 l 792 808 q 795 866 802 851 q 768 881 787 881 q 735 866 749 881 q 711 808 721 850 l 685 691 l 898 691 l 854 502 l 641 502 z "},"Ѕ":{"ha":1168,"x_min":58,"x_max":1371,"o":"m 341 -9 q 123 47 189 -9 q 89 227 58 103 l 136 433 l 647 433 l 627 348 q 652 278 611 278 q 686 294 671 278 q 712 354 701 309 q 719 396 718 380 q 715 423 720 413 q 699 442 710 434 q 664 459 687 450 l 371 578 q 232 672 261 622 q 223 806 203 723 l 250 923 q 364 1081 273 1026 q 608 1136 455 1136 l 1087 1136 q 1305 1081 1240 1136 q 1347 923 1371 1026 l 1316 786 l 808 786 l 813 807 q 784 873 828 873 q 755 862 769 873 q 735 828 741 851 q 733 808 732 815 q 739 793 733 800 q 758 779 745 787 q 795 761 771 771 l 1138 615 q 1195 579 1173 600 q 1227 531 1217 559 q 1235 465 1237 503 q 1221 376 1233 427 l 1193 255 q 1069 51 1157 110 q 821 -9 981 -9 l 341 -9 z "},"І":{"ha":560,"x_min":32,"x_max":788,"o":"m 32 -8 l 296 1136 l 788 1136 l 524 -8 l 32 -8 z "},"Ї":{"ha":683,"x_min":84,"x_max":972,"o":"m 84 -8 l 348 1136 l 840 1136 l 576 -8 l 84 -8 m 519 1483 q 614 1440 582 1483 q 632 1349 645 1402 q 568 1253 620 1296 q 457 1214 519 1214 q 364 1254 395 1214 q 345 1349 333 1295 q 405 1440 357 1402 q 519 1483 458 1483 m 847 1483 q 942 1440 909 1483 q 960 1349 972 1402 q 896 1253 948 1296 q 785 1214 847 1214 q 692 1254 723 1214 q 673 1349 661 1295 q 733 1440 685 1402 q 847 1483 786 1483 z "},"Ј":{"ha":1133,"x_min":78,"x_max":1361,"o":"m 1361 1136 l 1160 262 q 1042 47 1124 110 q 785 -17 960 -17 l 329 -17 q 194 -1 248 -17 q 112 50 139 15 q 81 137 84 85 q 95 262 78 189 l 146 484 l 630 484 l 594 329 q 592 272 584 287 q 618 257 600 257 q 654 272 640 257 q 679 329 669 287 l 865 1136 l 1361 1136 z "},"Љ":{"ha":1907,"x_min":32,"x_max":2046,"o":"m 1340 231 q 1373 174 1327 174 q 1433 231 1419 174 l 1526 635 q 1525 681 1534 670 q 1493 692 1516 692 q 1433 635 1447 692 l 1340 231 m 790 -8 l 988 850 l 906 850 l 787 333 q 624 100 756 202 q 313 -7 492 -2 q 32 -8 310 -7 l 97 272 q 227 278 196 270 q 296 325 288 293 q 485 1137 303 356 l 1178 1136 l 1544 1136 l 1489 898 l 1763 898 q 1907 887 1849 898 q 1998 851 1965 876 q 2039 786 2031 825 q 2033 693 2046 747 l 1919 196 q 1881 101 1906 140 q 1810 36 1855 62 q 1639 -8 1765 11 l 790 -8 z "},"Њ":{"ha":1724,"x_min":32,"x_max":1835,"o":"m 1156 231 q 1189 174 1143 174 q 1249 231 1235 174 l 1314 516 q 1314 563 1322 551 q 1282 574 1305 574 l 1236 574 l 1156 231 m 787 779 l 869 1136 l 1360 1136 l 1278 780 l 1551 780 q 1696 769 1637 780 q 1787 732 1754 758 q 1827 667 1820 707 q 1822 574 1835 628 l 1735 196 q 1697 101 1722 140 q 1626 36 1671 62 q 1455 -8 1581 11 l 604 -8 l 740 574 l 659 574 l 524 -8 l 32 -8 l 296 1136 l 788 1136 l 706 779 l 787 779 z "},"Ћ":{"ha":1415,"x_min":233,"x_max":1531,"o":"m 279 -8 l 480 862 l 233 862 l 296 1136 l 1303 1136 l 1240 862 l 993 862 l 976 790 l 1227 789 q 1462 719 1394 789 q 1501 522 1531 650 l 1379 -8 l 886 -8 l 1005 510 q 972 569 1019 569 q 934 557 948 569 q 911 510 920 545 l 792 -8 l 279 -8 z "},"Ќ":{"ha":1259,"x_min":32,"x_max":1487,"o":"m 837 931 q 864 1022 837 931 q 983 1136 891 1112 l 1487 1136 q 1331 902 1376 1077 q 1126 548 1285 727 l 1162 -8 l 659 -8 l 620 410 l 523 -8 l 32 -8 l 296 1135 l 787 1135 l 686 696 q 837 931 782 751 m 1236 1503 l 1014 1214 l 761 1214 l 983 1503 l 1236 1503 z "},"Ў":{"ha":1429,"x_min":157,"x_max":1657,"o":"m 1657 1136 l 898 262 q 157 -7 647 -25 l 241 357 q 569 500 443 346 l 296 1136 l 820 1136 q 876 1004 841 1087 q 922 897 915 911 q 1017 1004 945 923 q 1134 1136 1105 1103 l 1657 1136 m 1191 1460 q 1132 1386 1177 1420 q 1026 1349 1083 1349 q 938 1386 969 1349 q 913 1460 908 1420 l 817 1460 q 817 1461 817 1461 q 826 1373 817 1417 q 859 1299 834 1331 q 919 1251 883 1267 q 1000 1233 956 1233 q 1088 1251 1044 1233 q 1171 1299 1132 1267 q 1238 1373 1210 1331 q 1279 1468 1267 1417 q 1278 1460 1264 1299 l 1191 1460 z "},"Џ":{"ha":1133,"x_min":32,"x_max":1361,"o":"m 403 -8 l 32 -8 l 296 1136 l 787 1136 l 586 263 l 669 263 l 870 1136 l 1361 1136 l 1097 -8 l 726 -8 l 681 -202 l 358 -202 l 403 -8 z "},"А":{"ha":1217,"x_min":32,"x_max":1226,"o":"m 691 502 l 756 502 l 780 748 l 691 502 m 32 -8 l 515 1136 l 1226 1136 l 1181 -8 l 686 -8 l 714 236 l 609 236 l 526 -8 l 32 -8 z "},"Б":{"ha":1164,"x_min":32,"x_max":1245,"o":"m 736 303 q 753 321 735 306 q 774 356 769 333 q 769 395 779 379 q 747 406 761 406 l 616 406 l 593 306 l 703 306 l 703 307 q 736 303 737 307 l 736 303 m 1210 347 q 1050 100 1177 205 q 792 -7 926 -3 l 791 -8 l 32 -8 l 296 1136 l 1231 1136 l 1168 862 l 722 862 l 684 702 l 911 702 q 1173 595 1093 702 q 1210 347 1245 498 z "},"В":{"ha":1142,"x_min":32,"x_max":1323,"o":"m 725 863 l 692 720 l 726 720 q 766 734 751 720 q 791 791 782 749 q 794 850 802 836 q 759 863 787 863 l 725 863 m 588 268 l 621 268 q 663 281 649 268 q 687 339 677 294 l 698 386 q 700 443 708 429 q 665 457 693 457 l 632 457 l 588 268 m 32 -8 l 296 1137 l 1055 1137 q 1196 1121 1139 1137 q 1283 1070 1253 1104 q 1318 983 1313 1036 q 1306 860 1323 931 q 1220 685 1280 747 q 1078 604 1160 622 q 1179 511 1149 586 q 1175 291 1208 436 q 1051 61 1138 130 q 791 -8 964 -8 l 32 -8 z "},"Г":{"ha":828,"x_min":32,"x_max":1056,"o":"m 32 -8 l 296 1136 l 1056 1136 l 993 862 l 745 862 l 544 -8 l 32 -8 z "},"Д":{"ha":1349,"x_min":-12,"x_max":1453,"o":"m 930 853 q 707 275 834 510 l 798 275 l 931 853 l 930 853 m 1269 -200 l 965 -200 l 1006 -22 l 336 -22 l 294 -200 l -12 -200 l 95 262 l 222 262 q 546 1141 387 501 l 1453 1141 l 1250 262 l 1375 262 l 1269 -200 z "},"Е":{"ha":1003,"x_min":32,"x_max":1231,"o":"m 32 -8 l 296 1136 l 1231 1136 l 1168 862 l 722 862 l 684 702 l 1089 702 l 1026 428 l 621 428 l 584 266 l 1030 266 l 967 -8 l 32 -8 z "},"Ж":{"ha":1940,"x_min":81,"x_max":2168,"o":"m 1478 1136 l 1372 674 q 1534 884 1489 748 l 1550 952 l 1552 952 q 1668 1138 1592 1079 l 2168 1138 q 2047 937 2084 1048 l 2048 937 q 1954 732 2021 821 q 1797 578 1897 643 l 1854 -8 l 1350 -8 l 1306 390 l 1214 -8 l 721 -8 l 813 390 l 586 -8 l 81 -8 l 410 578 q 323 731 346 669 q 325 937 298 821 l 325 937 q 296 1138 339 1048 l 796 1138 q 827 952 846 1079 l 829 952 l 814 884 q 879 674 795 748 l 985 1136 l 1478 1136 z "},"З":{"ha":1125,"x_min":59,"x_max":1326,"o":"m 1147 244 q 1032 54 1118 116 q 792 -8 946 -8 l 329 -8 q 120 51 181 -8 q 83 215 59 109 l 131 419 l 624 419 l 606 340 q 603 283 596 298 q 627 268 609 268 q 658 282 645 268 q 682 340 672 297 l 697 406 q 654 478 714 478 l 538 478 l 601 751 l 710 751 q 793 820 777 751 q 791 866 800 850 q 768 883 781 883 q 736 867 752 883 q 712 822 719 851 l 705 792 l 217 792 l 245 914 q 358 1078 269 1020 q 593 1136 448 1136 l 1056 1136 q 1264 1078 1202 1136 q 1302 914 1326 1020 l 1285 840 q 1207 695 1264 751 q 1064 612 1149 638 q 1123 584 1090 605 q 1172 532 1156 563 q 1187 456 1187 500 q 1173 352 1186 412 l 1147 244 z "},"И":{"ha":1261,"x_min":32,"x_max":1489,"o":"m 731 -8 l 837 450 l 539 -8 l 32 -8 l 296 1136 l 791 1136 l 700 742 l 960 1136 l 1489 1136 l 1225 -8 l 731 -8 z "},"Й":{"ha":1261,"x_min":32,"x_max":1489,"o":"m 731 -8 l 837 450 l 539 -8 l 32 -8 l 296 1136 l 791 1136 l 700 742 l 960 1136 l 1489 1136 l 1225 -8 l 731 -8 m 1115 1457 q 1057 1384 1102 1418 q 951 1347 1008 1347 q 862 1384 895 1347 q 839 1457 833 1418 l 742 1457 q 742 1459 742 1459 q 751 1371 742 1415 q 783 1296 759 1329 q 844 1248 808 1265 q 924 1231 880 1231 q 1013 1248 968 1231 q 1095 1296 1057 1265 q 1162 1371 1135 1329 q 1192 1415 1192 1415 q 1201 1457 1192 1415 l 1115 1457 z "},"К":{"ha":1259,"x_min":32,"x_max":1487,"o":"m 837 931 q 864 1022 837 931 q 983 1136 891 1112 l 1487 1136 q 1331 902 1376 1077 q 1126 548 1285 727 l 1162 -8 l 659 -8 l 620 410 l 523 -8 l 32 -8 l 296 1135 l 787 1135 l 686 696 q 837 931 782 751 z "},"Л":{"ha":1315,"x_min":32,"x_max":1544,"o":"m 1544 1136 l 1280 -8 l 790 -8 l 988 850 l 906 850 l 787 333 q 625 100 756 202 q 313 -7 493 -2 q 32 -8 311 -7 l 97 272 q 227 278 196 270 q 296 325 288 293 q 481 1137 303 356 l 1544 1136 z "},"М":{"ha":1689,"x_min":32,"x_max":1918,"o":"m 684 -8 l 644 511 l 524 -8 l 32 -8 l 296 1136 l 978 1136 l 1009 716 l 1234 1136 l 1918 1136 l 1653 -8 l 1160 -8 l 1280 510 l 1001 -8 l 684 -8 z "},"Н":{"ha":1133,"x_min":32,"x_max":1361,"o":"m 32 -8 l 296 1136 l 787 1136 l 699 754 l 782 754 l 870 1136 l 1361 1136 l 1097 -8 l 606 -8 l 719 480 l 636 480 l 523 -8 l 32 -8 z "},"О":{"ha":1160,"x_min":78,"x_max":1347,"o":"m 722 799 l 614 329 q 611 272 604 287 q 638 257 618 257 q 673 272 659 257 q 698 329 688 287 l 806 799 q 781 872 823 872 q 746 857 761 872 q 722 799 732 841 m 329 -17 q 194 -1 248 -17 q 112 50 139 15 q 81 137 84 85 q 95 262 78 189 l 240 895 q 355 1083 270 1022 q 596 1143 441 1143 l 1079 1143 q 1217 1129 1161 1143 q 1305 1084 1274 1115 q 1341 1005 1336 1052 q 1332 895 1347 958 l 1186 262 q 1070 48 1152 112 q 962 -1 1028 14 q 811 -17 897 -17 l 329 -17 z "},"П":{"ha":1133,"x_min":32,"x_max":1361,"o":"m 32 -8 l 296 1136 l 1361 1136 l 1097 -8 l 606 -8 l 807 865 l 725 865 l 523 -8 l 32 -8 z "},"Р":{"ha":1147,"x_min":32,"x_max":1332,"o":"m 773 865 l 728 865 l 659 565 l 702 565 q 741 579 726 565 q 766 637 756 594 l 802 792 q 804 850 812 836 q 773 865 795 865 m 32 -8 l 296 1136 l 1066 1136 q 1204 1121 1148 1136 q 1290 1075 1260 1106 q 1327 996 1321 1044 q 1317 885 1332 949 l 1245 574 q 1128 358 1210 419 q 871 293 1044 293 l 596 293 l 526 -8 l 32 -8 z "},"С":{"ha":1131,"x_min":61,"x_max":1333,"o":"m 1207 477 l 1153 244 q 1111 132 1138 179 q 1040 53 1084 85 q 934 7 995 22 q 792 -8 872 -8 l 323 -8 q 116 54 171 -8 q 90 244 61 116 l 236 874 q 280 1000 253 948 q 349 1086 307 1052 q 452 1136 392 1121 q 591 1152 512 1152 l 1060 1152 q 1200 1136 1143 1152 q 1282 1087 1257 1121 q 1298 874 1333 1024 l 1262 718 l 771 718 l 792 808 q 795 866 802 851 q 768 881 787 881 q 735 866 749 881 q 711 808 721 850 l 603 338 q 600 280 593 296 q 626 265 607 265 q 684 338 667 265 l 716 477 l 1207 477 z "},"Т":{"ha":1075,"x_min":233,"x_max":1303,"o":"m 279 -8 l 480 862 l 233 862 l 296 1136 l 1303 1136 l 1240 862 l 993 862 l 792 -8 l 279 -8 z "},"У":{"ha":1429,"x_min":157,"x_max":1657,"o":"m 1657 1136 l 898 262 q 157 -7 647 -25 l 241 357 q 569 500 443 346 l 296 1136 l 820 1136 q 876 1004 841 1087 q 922 897 915 911 q 1017 1004 945 923 q 1134 1136 1105 1103 l 1657 1136 z "},"Ф":{"ha":1517,"x_min":96,"x_max":1668,"o":"m 1250 987 l 1401 987 q 1539 972 1483 987 q 1626 926 1595 957 q 1662 847 1657 895 q 1653 735 1668 800 l 1581 425 q 1463 209 1546 270 q 1207 144 1380 144 l 1055 144 l 1020 -8 l 524 -8 l 559 144 l 376 144 q 150 209 203 144 q 132 425 96 270 l 204 735 q 246 847 218 800 q 319 926 273 895 q 427 972 364 957 q 571 987 489 987 l 754 987 l 788 1137 l 1284 1137 l 1250 987 m 622 416 l 691 716 l 647 716 q 610 701 625 716 q 585 643 595 686 l 549 488 q 548 430 539 445 q 580 416 556 416 l 622 416 m 1187 716 l 1118 416 l 1159 416 q 1198 430 1183 416 q 1223 488 1214 445 l 1259 643 q 1261 701 1269 686 q 1231 716 1253 716 l 1187 716 z "},"Х":{"ha":1180,"x_min":32,"x_max":1400,"o":"m 32 -8 l 344 567 l 304 1136 l 790 1136 l 794 882 l 916 1136 l 1400 1136 l 1100 567 l 1144 -8 l 663 -8 l 664 318 l 515 -8 l 32 -8 z "},"Ц":{"ha":1262,"x_min":32,"x_max":1362,"o":"m 1161 266 l 1290 266 l 1182 -202 l 859 -202 l 904 -8 l 32 -8 l 296 1137 l 788 1137 l 586 264 l 669 264 l 870 1137 l 1362 1137 l 1161 266 z "},"Ч":{"ha":1149,"x_min":119,"x_max":1377,"o":"m 1377 1136 l 1113 -8 l 620 -8 l 674 229 l 424 231 q 188 300 257 231 q 149 497 119 370 l 296 1136 l 790 1136 l 645 510 q 679 450 632 450 q 717 463 702 450 q 739 510 731 475 l 884 1136 l 1377 1136 z "},"Ш":{"ha":1501,"x_min":32,"x_max":1730,"o":"m 32 -8 l 296 1136 l 749 1136 l 548 263 l 592 263 l 793 1136 l 1232 1136 l 1031 263 l 1075 263 l 1277 1136 l 1730 1136 l 1466 -8 l 32 -8 z "},"Щ":{"ha":1629,"x_min":32,"x_max":1730,"o":"m 1270 -8 l 32 -8 l 296 1136 l 749 1136 l 548 263 l 592 263 l 793 1136 l 1232 1136 l 1031 263 l 1075 263 l 1277 1136 l 1730 1136 l 1529 266 l 1657 266 l 1549 -202 l 1225 -202 l 1270 -8 z "},"Ъ":{"ha":1412,"x_min":233,"x_max":1493,"o":"m 984 303 q 1001 321 983 306 q 1022 356 1016 333 q 1017 395 1027 379 q 995 406 1008 406 l 864 406 l 841 306 l 950 306 l 951 307 q 984 303 985 307 l 984 303 m 561 1136 l 1033 1138 l 932 702 l 1159 702 q 1420 595 1341 702 q 1458 347 1493 498 q 1298 100 1425 205 q 1039 -7 1174 -3 l 1039 -8 l 279 -8 l 480 862 l 233 862 l 296 1136 l 561 1136 z "},"Ы":{"ha":1686,"x_min":32,"x_max":1914,"o":"m 736 303 q 753 321 735 306 q 774 356 769 333 q 769 395 779 379 q 747 406 761 406 l 616 406 l 593 306 l 703 306 l 703 307 q 736 303 737 307 l 736 303 m 296 1136 l 785 1138 l 684 702 l 911 702 q 1173 595 1093 702 q 1210 347 1245 498 q 1050 100 1177 205 q 792 -7 926 -3 l 791 -8 l 32 -8 l 296 1136 m 1157 -8 l 1421 1136 l 1914 1136 l 1650 -8 l 1157 -8 z "},"Ь":{"ha":1164,"x_min":32,"x_max":1245,"o":"m 736 303 q 753 321 735 306 q 774 356 769 333 q 769 395 779 379 q 747 406 761 406 l 616 406 l 593 306 l 703 306 l 703 307 q 736 303 737 307 l 736 303 m 296 1136 l 785 1138 l 684 702 l 911 702 q 1173 595 1093 702 q 1210 347 1245 498 q 1050 100 1177 205 q 792 -7 926 -3 l 791 -8 l 32 -8 l 296 1136 z "},"Э":{"ha":1131,"x_min":75,"x_max":1316,"o":"m 509 502 l 552 691 l 765 691 l 792 808 q 795 866 802 850 q 769 881 788 881 q 736 866 750 881 q 711 808 722 851 l 705 779 l 214 779 l 236 874 q 350 1087 271 1024 q 455 1136 391 1121 q 603 1152 520 1152 l 1072 1152 q 1203 1136 1151 1152 q 1283 1086 1256 1121 q 1313 1000 1310 1052 q 1299 874 1316 948 l 1153 244 q 1040 54 1123 116 q 804 -8 956 -8 l 335 -8 q 200 7 255 -8 q 116 53 145 22 q 81 132 86 85 q 90 244 75 179 l 119 369 l 610 369 l 603 338 q 627 265 586 265 q 660 280 646 265 q 684 338 674 296 l 722 502 l 509 502 z "},"Ю":{"ha":1734,"x_min":34,"x_max":1923,"o":"m 1298 807 l 1190 338 q 1187 280 1180 295 q 1215 266 1195 266 q 1249 280 1235 266 q 1274 338 1264 295 l 1382 807 q 1357 881 1399 881 q 1323 865 1337 881 q 1298 807 1308 850 m 769 700 l 817 903 q 931 1091 846 1031 q 1172 1152 1017 1152 l 1655 1152 q 1793 1138 1737 1152 q 1880 1092 1849 1124 q 1917 1014 1911 1061 q 1908 903 1923 967 l 1762 271 q 1646 57 1728 120 q 1538 7 1604 23 q 1387 -8 1472 -8 l 904 -8 q 770 7 824 -8 q 688 58 715 23 q 657 145 660 93 q 670 271 653 197 l 707 429 l 625 429 l 526 0 l 34 0 l 298 1145 l 790 1145 l 688 700 l 769 700 z "},"Я":{"ha":1147,"x_min":33,"x_max":1376,"o":"m 773 865 q 736 850 751 865 q 711 792 721 836 l 675 637 q 674 579 666 594 q 706 565 683 565 l 749 565 l 819 865 l 773 865 m 643 293 q 440 -8 489 208 l 33 -8 q 200 342 92 230 q 184 358 193 347 q 166 574 131 419 l 238 885 q 280 996 253 949 q 353 1075 308 1044 q 461 1121 398 1106 q 606 1136 524 1136 l 1376 1136 l 1112 -8 l 617 -8 l 687 293 l 643 293 z "},"а":{"ha":1156,"x_min":73,"x_max":1294,"o":"m 695 257 l 723 379 l 682 367 q 620 335 640 353 q 591 277 601 316 l 587 257 q 625 195 573 195 q 669 208 652 195 q 695 257 687 221 m 767 583 l 783 652 q 782 703 792 691 q 745 715 772 715 q 703 702 719 715 q 680 652 688 689 l 671 615 l 191 615 l 208 687 q 247 784 221 744 q 318 851 273 825 q 428 888 363 877 q 579 899 492 899 l 1007 899 q 1153 888 1094 899 q 1246 850 1213 877 q 1286 783 1279 823 q 1281 687 1294 743 l 1120 -8 l 374 -8 q 141 57 210 -11 q 104 303 73 125 q 506 583 190 575 l 767 583 z "},"б":{"ha":1156,"x_min":32,"x_max":1298,"o":"m 245 916 q 290 1038 264 998 q 361 1105 316 1079 q 470 1143 406 1132 q 621 1154 534 1154 l 1079 1155 q 1273 1184 1160 1153 l 1229 995 q 1034 967 1122 967 l 805 967 q 732 899 742 968 q 887 898 819 898 q 991 898 955 898 q 1228 831 1158 898 q 1268 635 1298 764 l 1180 254 q 1049 55 1151 125 q 786 -8 948 -15 l 348 -8 q 89 238 32 -8 l 245 916 m 590 269 q 591 221 582 234 q 623 209 600 209 q 686 269 672 209 l 767 620 q 766 668 775 655 q 731 680 757 680 q 693 668 707 680 q 671 620 679 655 l 590 269 z "},"в":{"ha":1142,"x_min":32,"x_max":1278,"o":"m 683 680 l 658 570 l 691 570 q 732 581 719 570 q 753 624 745 591 q 753 670 761 660 q 716 680 745 680 l 683 680 m 575 213 l 609 213 q 650 223 637 213 q 671 268 663 233 l 679 304 q 679 349 687 338 q 643 359 671 359 l 609 359 l 575 213 m 32 -8 l 242 899 l 1001 899 q 1141 887 1084 899 q 1231 846 1198 874 q 1270 777 1263 819 q 1265 679 1278 735 q 1186 539 1244 589 q 1058 476 1127 489 q 1154 405 1120 465 q 1161 230 1187 345 q 1047 47 1132 102 q 791 -8 963 -8 l 32 -8 z "},"г":{"ha":837,"x_min":32,"x_max":1011,"o":"m 1011 899 l 960 679 l 680 679 l 521 -8 l 32 -8 l 241 899 l 1011 899 z "},"д":{"ha":1349,"x_min":5,"x_max":1395,"o":"m 874 663 q 683 215 797 396 l 773 215 l 877 663 l 874 663 m 1284 -126 l 1118 -126 l 1145 -8 l 197 -8 l 172 -126 l 5 -126 l 83 215 l 212 215 q 489 891 361 389 l 1395 891 l 1239 215 l 1364 215 l 1284 -126 z "},"е":{"ha":1161,"x_min":67,"x_max":1298,"o":"m 1174 200 q 1135 103 1160 143 q 1064 37 1109 64 q 954 0 1018 11 q 802 -11 889 -11 l 352 -11 q 206 0 265 -11 q 114 37 147 11 q 74 103 81 62 q 80 200 67 143 l 192 685 q 231 782 205 742 q 301 848 257 822 q 410 885 346 874 q 562 896 475 896 l 1012 896 q 1158 885 1099 896 q 1251 847 1217 874 q 1291 781 1284 821 q 1285 685 1298 741 l 1222 409 l 627 409 l 587 236 q 621 176 574 176 q 659 189 644 176 q 681 236 673 201 l 710 358 l 1210 358 l 1174 200 m 679 648 l 664 585 l 767 585 l 782 648 q 745 714 797 714 q 703 700 719 714 q 679 648 687 687 z "},"ж":{"ha":1793,"x_min":32,"x_max":1955,"o":"m 654 -8 l 729 317 l 524 -8 l 32 -8 l 332 474 l 250 892 l 747 892 l 798 612 l 862 892 l 1342 892 l 1278 611 l 1458 892 l 1955 892 l 1680 474 l 1757 -8 l 1265 -8 l 1205 401 l 1214 340 l 1134 -8 l 654 -8 z "},"з":{"ha":1125,"x_min":54,"x_max":1277,"o":"m 1136 193 q 1028 42 1112 91 q 792 -8 945 -8 l 329 -8 q 118 39 183 -8 q 73 170 54 85 l 111 333 l 605 333 l 590 269 q 589 225 582 236 q 614 213 595 213 q 646 224 633 213 q 666 269 658 235 l 678 321 q 631 376 690 376 l 515 376 l 565 595 l 674 595 q 753 648 741 595 q 749 683 759 671 q 725 695 740 695 q 693 684 708 695 q 672 649 678 672 l 667 624 l 178 624 l 201 722 q 307 853 220 807 q 538 899 394 899 l 1001 899 q 1212 853 1146 899 q 1258 722 1277 807 l 1244 663 q 1172 548 1228 593 q 1042 484 1116 503 q 1094 464 1060 480 q 1145 421 1128 447 q 1165 361 1163 396 q 1156 278 1166 326 l 1136 193 z "},"и":{"ha":1261,"x_min":32,"x_max":1435,"o":"m 731 -8 l 815 355 l 538 -8 l 32 -8 l 241 899 l 736 899 l 664 586 l 906 899 l 1435 899 l 1225 -8 l 731 -8 z "},"й":{"ha":1261,"x_min":32,"x_max":1435,"o":"m 731 -8 l 815 355 l 538 -8 l 32 -8 l 241 899 l 736 899 l 664 586 l 906 899 l 1435 899 l 1225 -8 l 731 -8 m 1052 1214 q 994 1140 1039 1174 q 888 1103 945 1103 q 799 1140 831 1103 q 775 1214 770 1174 l 679 1214 q 679 1215 679 1215 q 688 1127 679 1171 q 720 1053 695 1085 q 781 1004 744 1021 q 861 987 817 987 q 950 1004 905 987 q 1032 1053 994 1021 q 1099 1127 1072 1085 q 1140 1222 1128 1171 q 1139 1214 1125 1053 l 1052 1214 z "},"к":{"ha":1265,"x_min":32,"x_max":1439,"o":"m 792 737 q 815 808 792 737 q 929 899 838 879 l 1439 899 q 1287 711 1323 849 q 1100 432 1250 573 l 1163 -8 l 659 -8 l 600 323 l 523 -8 l 32 -8 l 241 898 l 732 898 l 652 550 q 792 737 746 594 z "},"л":{"ha":1315,"x_min":32,"x_max":1489,"o":"m 1489 898 l 1280 -8 l 790 -8 l 947 669 l 864 669 l 770 263 q 619 78 746 158 q 313 -7 491 -3 q 32 -8 311 -7 l 84 217 q 215 221 184 215 q 280 257 274 233 q 427 899 286 281 l 1489 898 z "},"м":{"ha":1655,"x_min":32,"x_max":1829,"o":"m 668 -8 l 602 403 l 507 -8 l 32 -8 l 241 899 l 906 899 l 957 565 l 1162 899 l 1829 899 l 1619 -8 l 1143 -8 l 1238 402 l 984 -8 l 668 -8 z "},"н":{"ha":1133,"x_min":32,"x_max":1307,"o":"m 32 -8 l 241 899 l 733 899 l 663 597 l 746 597 l 815 899 l 1307 899 l 1097 -8 l 606 -8 l 695 377 l 612 377 l 523 -8 l 32 -8 z "},"о":{"ha":1159,"x_min":67,"x_max":1297,"o":"m 682 649 l 587 237 q 620 178 573 178 q 658 190 644 178 q 680 237 672 202 l 775 649 q 742 708 789 708 q 704 696 719 708 q 682 649 690 684 m 192 686 q 231 783 205 743 q 302 849 257 824 q 410 886 346 875 q 562 897 475 897 l 1011 897 q 1157 886 1098 897 q 1249 849 1216 875 q 1290 782 1282 822 q 1284 686 1297 742 l 1172 201 q 1133 105 1159 144 q 1062 39 1107 65 q 952 1 1016 12 q 801 -10 888 -10 l 352 -10 q 206 1 265 -10 q 114 38 147 12 q 74 104 81 64 q 80 201 67 144 l 192 686 z "},"п":{"ha":1133,"x_min":32,"x_max":1307,"o":"m 32 -8 l 241 899 l 1307 899 l 1097 -8 l 606 -8 l 765 681 l 682 681 l 523 -8 l 32 -8 z "},"р":{"ha":1161,"x_min":-27,"x_max":1300,"o":"m 685 656 l 591 253 q 625 195 578 195 q 663 207 649 195 q 685 253 677 218 l 779 656 q 745 714 792 714 q 685 656 698 714 m 467 -264 l -27 -264 l 194 692 q 232 788 207 748 q 302 852 258 827 q 411 888 347 877 q 563 899 475 899 l 1013 899 q 1159 888 1100 899 q 1251 851 1218 877 q 1292 786 1285 826 q 1287 692 1300 747 l 1172 195 q 1134 102 1160 141 q 1063 37 1109 62 q 954 0 1018 11 q 802 -11 889 -11 l 525 -11 l 467 -264 z "},"с":{"ha":1161,"x_min":67,"x_max":1298,"o":"m 1174 200 q 1135 103 1160 143 q 1064 37 1109 64 q 954 0 1018 11 q 802 -11 889 -11 l 352 -11 q 206 0 265 -11 q 114 37 147 11 q 74 103 81 62 q 80 200 67 143 l 192 685 q 301 848 218 800 q 411 885 345 872 q 512 893 444 890 q 684 896 579 896 l 1012 896 q 1158 885 1099 896 q 1251 847 1217 874 q 1291 781 1284 821 q 1285 685 1298 741 l 1252 541 l 752 541 l 777 648 q 743 707 790 707 q 705 695 720 707 q 683 648 691 683 l 587 236 q 621 176 574 176 q 659 189 644 176 q 681 236 673 201 l 716 387 l 1217 387 l 1174 200 z "},"т":{"ha":1075,"x_min":191,"x_max":1249,"o":"m 279 -8 l 438 679 l 191 679 l 241 899 l 1249 899 l 1198 679 l 950 679 l 792 -8 l 279 -8 z "},"у":{"ha":1156,"x_min":24,"x_max":1330,"o":"m 836 899 l 1330 899 l 1116 -25 q 1071 -149 1097 -108 q 1000 -215 1045 -189 q 891 -253 954 -242 q 740 -264 827 -264 l 24 -264 l 67 -78 l 516 -78 q 595 -69 575 -78 q 628 -13 614 -61 q 472 -14 541 -14 l 368 -14 q 132 56 200 -14 q 93 254 63 126 l 241 899 l 739 899 l 594 270 q 595 222 586 234 q 630 210 604 210 q 668 222 653 210 q 690 270 682 234 l 836 899 z "},"ф":{"ha":1759,"x_min":66,"x_max":1896,"o":"m 622 174 q 682 231 669 174 l 775 635 q 742 692 788 692 q 703 681 718 692 q 681 635 689 670 l 588 231 q 622 174 575 174 m 1338 694 q 1278 636 1291 694 l 1184 233 q 1218 175 1171 175 q 1256 186 1242 175 q 1278 233 1270 198 l 1372 636 q 1338 694 1385 694 m 629 -11 l 354 -11 q 208 0 267 -11 q 115 36 149 11 q 74 101 81 62 q 79 196 66 140 l 194 693 q 232 786 207 747 q 303 851 257 825 q 413 887 349 876 q 564 898 477 898 l 841 898 l 896 1136 l 1390 1136 l 1334 892 l 1609 892 q 1755 881 1696 892 q 1848 844 1814 870 q 1889 780 1881 819 q 1883 685 1896 741 l 1771 198 q 1733 105 1758 144 q 1662 40 1707 65 q 1552 3 1616 14 q 1401 -8 1488 -8 l 1123 -8 l 1063 -269 l 569 -269 l 629 -11 z "},"х":{"ha":1267,"x_min":35,"x_max":1441,"o":"m 945 899 l 1441 899 l 1141 455 l 1229 -8 l 713 -8 l 706 309 l 551 -8 l 35 -8 l 335 455 l 241 899 l 737 899 l 772 605 l 945 899 z "},"ц":{"ha":1262,"x_min":32,"x_max":1307,"o":"m 1150 219 l 1279 219 l 1190 -167 l 867 -167 l 904 -8 l 32 -8 l 241 899 l 733 899 l 576 218 l 659 218 l 815 899 l 1307 899 l 1150 219 z "},"ч":{"ha":1149,"x_min":101,"x_max":1322,"o":"m 1322 899 l 1113 -8 l 619 -8 l 663 179 l 412 180 q 174 235 247 180 q 124 392 101 291 l 241 899 l 735 899 l 621 402 q 657 357 610 357 q 695 366 682 357 q 714 402 708 375 l 829 899 l 1322 899 z "},"ш":{"ha":1501,"x_min":32,"x_max":1675,"o":"m 32 -8 l 241 899 l 694 899 l 535 210 l 579 210 l 739 899 l 1178 899 l 1018 210 l 1063 210 l 1222 899 l 1675 899 l 1466 -8 l 32 -8 z "},"щ":{"ha":1629,"x_min":32,"x_max":1675,"o":"m 1270 -10 l 32 -10 l 241 897 l 694 897 l 535 208 l 579 208 l 739 897 l 1177 897 l 1018 208 l 1062 208 l 1222 897 l 1675 897 l 1516 210 l 1644 210 l 1558 -163 l 1235 -163 l 1270 -10 z "},"ъ":{"ha":1272,"x_min":188,"x_max":1329,"o":"m 414 897 l 886 899 l 806 555 l 985 555 q 1251 471 1166 555 q 1301 274 1329 393 q 1155 79 1275 161 q 900 -7 1033 -4 l 900 -8 l 188 -8 l 346 678 l 190 678 l 241 897 l 414 897 m 818 247 q 830 256 818 247 q 844 279 841 266 q 841 303 847 293 q 823 312 835 312 l 738 312 l 722 247 l 789 247 l 788 242 q 832 250 787 238 l 818 247 z "},"ы":{"ha":1686,"x_min":32,"x_max":1859,"o":"m 241 897 l 730 899 l 650 555 l 877 555 q 1143 471 1058 555 q 1193 274 1221 393 q 1047 79 1167 161 q 792 -7 924 -4 l 791 -8 l 32 -8 l 241 897 m 1157 -8 l 1367 897 l 1859 897 l 1650 -8 l 1157 -8 m 665 247 q 677 256 665 247 q 691 279 688 266 q 688 303 694 293 q 670 312 682 312 l 585 312 l 569 247 l 636 247 l 635 242 q 679 250 634 238 l 665 247 z "},"ь":{"ha":1164,"x_min":32,"x_max":1221,"o":"m 665 247 q 677 256 665 247 q 691 279 688 266 q 688 303 694 293 q 670 312 682 312 l 585 312 l 569 247 l 636 247 l 635 242 q 679 250 634 238 l 665 247 m 241 897 l 730 899 l 650 555 l 877 555 q 1143 471 1058 555 q 1193 274 1221 393 q 1047 79 1167 161 q 792 -7 924 -4 l 791 -8 l 32 -8 l 241 897 z "},"э":{"ha":1131,"x_min":66,"x_max":1267,"o":"m 483 389 l 517 541 l 730 541 l 751 629 q 751 673 759 662 q 724 685 744 685 q 691 674 703 685 q 670 629 678 663 l 665 605 l 174 605 l 191 681 q 296 848 218 799 q 399 887 336 875 q 544 899 462 899 l 1014 899 q 1144 887 1091 899 q 1227 848 1198 875 q 1262 780 1256 821 q 1254 681 1267 739 l 1140 190 q 1036 41 1117 90 q 804 -8 955 -8 l 335 -8 q 201 4 256 -8 q 114 40 146 15 q 74 102 81 65 q 78 190 66 139 l 101 289 l 592 289 l 586 264 q 614 208 573 208 q 646 220 634 208 q 667 264 659 231 l 695 389 l 483 389 z "},"ю":{"ha":1658,"x_min":34,"x_max":1799,"o":"m 1201 628 l 1117 263 q 1117 219 1109 230 q 1144 209 1124 209 q 1177 220 1164 209 q 1197 263 1190 231 l 1281 628 q 1254 684 1294 684 q 1222 673 1234 684 q 1201 628 1209 661 m 695 547 l 731 703 q 835 851 754 804 q 1065 899 915 899 l 1531 899 q 1664 888 1610 899 q 1751 852 1719 877 q 1791 790 1783 827 q 1787 703 1799 753 l 1673 211 q 1568 43 1646 93 q 1466 4 1529 16 q 1322 -8 1404 -8 l 856 -8 q 725 4 778 -8 q 644 44 672 16 q 609 113 615 72 q 617 211 604 154 l 645 332 l 588 332 l 510 -2 l 34 -2 l 240 893 l 717 893 l 637 547 l 695 547 z "},"я":{"ha":1147,"x_min":33,"x_max":1321,"o":"m 731 681 q 694 670 707 681 q 673 625 681 659 l 645 503 q 645 459 637 469 q 679 448 654 448 l 722 448 l 776 681 l 731 681 m 627 230 q 440 -8 478 162 l 33 -8 q 182 269 80 182 q 168 280 177 272 q 139 453 110 330 l 195 698 q 232 787 207 749 q 302 850 258 825 q 408 887 347 875 q 551 899 470 899 l 1321 899 l 1112 -8 l 617 -8 l 672 230 l 627 230 z "},"ё":{"ha":1161,"x_min":67,"x_max":1298,"o":"m 1174 200 q 1135 103 1160 143 q 1064 37 1109 64 q 954 0 1018 11 q 802 -11 889 -11 l 352 -11 q 206 0 265 -11 q 114 37 147 11 q 74 103 81 62 q 80 200 67 143 l 192 685 q 231 782 205 742 q 301 848 257 822 q 410 885 346 874 q 562 896 475 896 l 1012 896 q 1158 885 1099 896 q 1251 847 1217 874 q 1291 781 1284 821 q 1285 685 1298 741 l 1222 409 l 627 409 l 587 236 q 621 176 574 176 q 659 189 644 176 q 681 236 673 201 l 710 358 l 1210 358 l 1174 200 m 679 648 l 664 585 l 767 585 l 782 648 q 745 714 797 714 q 703 700 719 714 q 679 648 687 687 m 706 1239 q 801 1196 768 1239 q 819 1105 831 1158 q 758 1012 806 1052 q 643 970 705 970 q 550 1011 581 970 q 531 1105 519 1051 q 595 1199 544 1158 q 706 1239 644 1239 m 1034 1239 q 1128 1196 1096 1239 q 1146 1105 1159 1158 q 1085 1012 1134 1052 q 971 970 1033 970 q 878 1011 909 970 q 859 1105 847 1051 q 923 1199 871 1158 q 1034 1239 972 1239 z "},"ђ":{"ha":1230,"x_min":112,"x_max":1371,"o":"m 814 924 l 809 899 l 1068 899 q 1302 835 1234 905 q 1342 637 1371 765 l 1181 -63 q 810 -269 1130 -269 l 516 -269 l 574 -15 l 604 -15 q 710 37 697 -16 l 710 37 l 845 622 q 811 682 859 682 q 773 670 788 682 q 751 622 759 657 l 605 -8 l 599 -8 l 599 -10 l 112 -10 l 112 -8 l 112 -8 l 321 899 l 321 899 l 327 924 l 247 924 l 283 1080 l 363 1080 l 376 1136 l 863 1136 l 850 1080 l 929 1080 l 893 924 l 814 924 z "},"ѓ":{"ha":837,"x_min":32,"x_max":1011,"o":"m 1011 899 l 960 679 l 680 679 l 521 -8 l 32 -8 l 241 899 l 1011 899 m 951 1259 l 729 970 l 475 970 l 698 1259 l 951 1259 z "},"є":{"ha":1131,"x_min":55,"x_max":1281,"o":"m 615 389 l 586 264 q 585 220 578 231 q 613 208 593 208 q 667 264 654 208 l 672 289 l 1163 289 l 1140 190 q 1104 102 1129 139 q 1035 40 1079 65 q 932 4 992 15 q 792 -8 871 -8 l 323 -8 q 114 41 173 -8 q 78 190 55 90 l 191 681 q 229 780 204 739 q 295 848 254 821 q 396 887 337 875 q 532 899 454 899 l 1001 899 q 1141 887 1084 899 q 1226 848 1199 875 q 1254 681 1281 799 l 1236 605 l 745 605 l 751 629 q 751 674 759 663 q 723 685 743 685 q 690 673 703 685 q 670 629 678 662 l 650 541 l 863 541 l 828 389 l 615 389 z "},"ѕ":{"ha":1161,"x_min":67,"x_max":1298,"o":"m 1174 200 q 1135 103 1160 143 q 1064 37 1109 64 q 954 0 1018 11 q 802 -11 889 -11 l 352 -11 q 206 0 265 -11 q 114 37 147 11 q 74 103 81 62 q 80 200 67 143 l 107 318 l 606 318 l 587 236 q 621 176 574 176 q 659 189 644 176 q 681 236 673 201 l 687 259 q 609 339 700 314 l 357 404 q 199 479 235 437 q 181 602 162 520 l 200 685 q 239 782 214 742 q 311 848 265 822 q 420 885 356 874 q 572 896 485 896 l 1012 896 q 1158 885 1099 896 q 1251 847 1217 874 q 1291 781 1284 821 q 1285 685 1298 741 l 1270 617 l 775 617 l 782 648 q 749 707 795 707 q 713 696 729 707 q 692 666 697 686 q 691 642 689 652 q 701 624 692 632 q 731 608 710 616 q 790 590 752 600 l 979 540 q 1174 449 1130 499 q 1198 307 1220 401 l 1174 200 z "},"і":{"ha":560,"x_min":32,"x_max":788,"o":"m 32 -8 l 241 899 l 734 899 l 524 -8 l 32 -8 m 248 927 l 296 1135 l 788 1135 l 740 927 l 248 927 z "},"ї":{"ha":683,"x_min":93,"x_max":914,"o":"m 93 -8 l 303 899 l 795 899 l 586 -8 l 93 -8 m 461 1231 q 556 1188 523 1231 q 574 1096 586 1149 q 509 1001 562 1043 q 399 961 461 961 q 306 1002 337 961 q 287 1096 274 1042 q 347 1188 299 1149 q 461 1231 400 1231 m 789 1231 q 884 1188 851 1231 q 902 1096 914 1149 q 837 1001 890 1043 q 727 961 789 961 q 633 1002 665 961 q 615 1096 602 1042 q 675 1188 627 1149 q 789 1231 728 1231 z "},"ј":{"ha":560,"x_min":-27,"x_max":788,"o":"m -27 -263 l 241 899 l 734 899 l 466 -263 l -27 -263 m 248 927 l 296 1135 l 788 1135 l 740 927 l 248 927 z "},"љ":{"ha":1907,"x_min":32,"x_max":2010,"o":"m 1329 183 q 1365 139 1319 139 q 1421 183 1411 139 l 1495 501 q 1492 536 1501 528 q 1459 545 1483 545 l 1413 545 l 1403 501 l 1329 183 m 790 -8 l 947 669 l 864 669 l 770 263 q 618 78 746 158 q 313 -7 491 -3 q 32 -8 310 -7 l 84 217 q 216 222 184 215 q 280 257 274 233 q 430 899 286 281 l 1123 899 l 1489 899 l 1446 711 l 1719 711 q 1863 702 1805 711 q 1956 673 1922 694 q 2000 621 1991 653 q 2000 547 2010 590 l 1909 155 q 1875 79 1899 111 q 1807 27 1851 47 q 1638 -8 1763 6 l 790 -8 z "},"њ":{"ha":1724,"x_min":32,"x_max":1804,"o":"m 1145 182 q 1181 139 1135 139 q 1237 182 1227 139 l 1289 408 q 1287 443 1296 434 q 1253 451 1278 451 l 1207 451 l 1145 182 m 749 617 l 814 899 l 1305 899 l 1240 617 l 1514 617 q 1657 609 1599 617 q 1751 580 1716 600 q 1795 528 1785 559 q 1794 453 1804 496 l 1725 154 q 1691 79 1715 111 q 1623 27 1667 47 q 1454 -8 1579 6 l 606 -8 l 711 452 l 630 452 l 524 -8 l 32 -8 l 241 899 l 734 899 l 669 617 l 749 617 z "},"ћ":{"ha":1225,"x_min":109,"x_max":1367,"o":"m 818 924 l 812 899 l 1062 897 q 1298 828 1229 897 q 1337 631 1367 758 l 1190 -8 l 696 -8 l 841 618 q 807 677 854 677 q 769 665 784 677 q 747 618 755 653 l 602 -8 l 109 -8 l 324 924 l 247 924 l 283 1080 l 360 1080 l 373 1136 l 866 1136 l 853 1080 l 929 1080 l 893 924 l 818 924 z "},"ќ":{"ha":1201,"x_min":32,"x_max":1364,"o":"m 1154 1259 l 931 970 l 678 970 l 901 1259 l 1154 1259 m 32 -8 l 241 899 l 733 899 l 667 612 l 854 899 l 1364 899 l 1083 477 l 1165 -8 l 660 -8 l 601 323 l 524 -8 l 32 -8 z "},"ў":{"ha":1156,"x_min":24,"x_max":1330,"o":"m 836 899 l 1330 899 l 1116 -25 q 1071 -149 1097 -108 q 1000 -215 1045 -189 q 891 -253 954 -242 q 740 -264 827 -264 l 24 -264 l 67 -78 l 516 -78 q 595 -69 575 -78 q 628 -13 614 -61 q 472 -14 541 -14 l 368 -14 q 132 56 200 -14 q 93 254 63 126 l 241 899 l 739 899 l 594 270 q 595 222 586 234 q 630 210 604 210 q 668 222 653 210 q 690 270 682 234 l 836 899 m 1002 1213 q 944 1140 989 1174 q 838 1102 895 1102 q 750 1140 781 1102 q 726 1213 720 1174 l 629 1213 q 629 1215 629 1215 q 638 1126 629 1171 q 671 1052 646 1084 q 731 1004 695 1021 q 812 987 768 987 q 900 1004 856 987 q 983 1052 944 1021 q 1050 1127 1022 1084 q 1091 1222 1079 1171 q 1090 1213 1076 1053 l 1002 1213 z "},"џ":{"ha":1133,"x_min":31,"x_max":1306,"o":"m 402 -13 l 31 -13 l 241 898 l 732 898 l 573 206 l 655 206 l 815 898 l 1306 898 l 1096 -13 l 725 -13 l 690 -165 l 367 -165 l 402 -13 z "},"Ґ":{"ha":900,"x_min":32,"x_max":1151,"o":"m 745 862 l 544 -8 l 32 -8 l 296 1136 l 844 1136 l 866 1231 l 1151 1231 l 1065 861 l 745 862 z "},"ґ":{"ha":900,"x_min":32,"x_max":1094,"o":"m 702 674 l 544 -8 l 32 -8 l 240 892 l 788 892 l 810 987 l 1094 987 l 1022 672 l 702 674 z "},"Ẁ":{"ha":1710,"x_min":273,"x_max":1938,"o":"m 1301 1137 l 1277 712 l 1445 1137 l 1938 1137 l 1432 -8 l 936 -8 l 946 396 l 769 -8 l 273 -8 l 296 1137 l 789 1137 l 761 712 l 933 1137 l 1301 1137 m 1190 1501 l 1278 1213 l 1025 1213 l 936 1501 l 1190 1501 z "},"ẁ":{"ha":1697,"x_min":241,"x_max":1870,"o":"m 1237 899 l 1239 571 l 1394 899 l 1870 899 l 1383 -8 l 936 -8 l 930 352 l 756 -8 l 309 -8 l 241 899 l 714 899 l 721 571 l 874 899 l 1237 899 m 1127 1261 l 1216 972 l 963 972 l 874 1261 l 1127 1261 z "},"Ẃ":{"ha":1710,"x_min":273,"x_max":1938,"o":"m 1301 1137 l 1277 712 l 1445 1137 l 1938 1137 l 1432 -8 l 936 -8 l 946 396 l 769 -8 l 273 -8 l 296 1137 l 789 1137 l 761 712 l 933 1137 l 1301 1137 m 1467 1502 l 1244 1213 l 991 1213 l 1214 1502 l 1467 1502 z "},"ẃ":{"ha":1697,"x_min":241,"x_max":1870,"o":"m 1237 899 l 1239 571 l 1394 899 l 1870 899 l 1383 -8 l 936 -8 l 930 352 l 756 -8 l 309 -8 l 241 899 l 714 899 l 721 571 l 874 899 l 1237 899 m 1405 1261 l 1183 972 l 929 972 l 1152 1261 l 1405 1261 z "},"Ẅ":{"ha":1710,"x_min":273,"x_max":1938,"o":"m 1301 1137 l 1277 712 l 1445 1137 l 1938 1137 l 1432 -8 l 936 -8 l 946 396 l 769 -8 l 273 -8 l 296 1137 l 789 1137 l 761 712 l 933 1137 l 1301 1137 m 1033 1482 q 1127 1439 1095 1482 q 1145 1348 1158 1401 q 1081 1252 1133 1295 q 970 1213 1032 1213 q 877 1253 908 1213 q 858 1348 846 1294 q 918 1439 870 1401 q 1033 1482 971 1482 m 1360 1482 q 1455 1439 1422 1482 q 1473 1348 1486 1401 q 1409 1252 1461 1295 q 1298 1213 1360 1213 q 1205 1253 1236 1213 q 1186 1348 1174 1294 q 1246 1439 1198 1401 q 1360 1482 1299 1482 z "},"ẅ":{"ha":1697,"x_min":241,"x_max":1870,"o":"m 1237 899 l 1239 571 l 1394 899 l 1870 899 l 1383 -8 l 936 -8 l 930 352 l 756 -8 l 309 -8 l 241 899 l 714 899 l 721 571 l 874 899 l 1237 899 m 970 1241 q 1066 1198 1033 1241 q 1084 1107 1096 1160 q 1019 1011 1072 1054 q 908 972 970 972 q 815 1012 846 972 q 797 1107 784 1053 q 856 1198 809 1160 q 970 1241 909 1241 m 1298 1241 q 1394 1198 1360 1241 q 1412 1107 1424 1160 q 1347 1011 1399 1054 q 1236 972 1298 972 q 1143 1012 1174 972 q 1124 1107 1112 1053 q 1184 1198 1137 1160 q 1298 1241 1237 1241 z "},"Ỳ":{"ha":1264,"x_min":296,"x_max":1493,"o":"m 381 -8 l 481 427 l 296 1137 l 784 1137 l 839 895 l 1006 1137 l 1493 1137 l 980 427 l 880 -8 l 381 -8 m 967 1502 l 1056 1213 l 803 1213 l 713 1502 l 967 1502 z "},"ỳ":{"ha":1156,"x_min":24,"x_max":1330,"o":"m 836 899 l 1330 899 l 1116 -25 q 1071 -149 1097 -108 q 1000 -215 1045 -189 q 891 -253 954 -242 q 740 -264 827 -264 l 24 -264 l 67 -78 l 516 -78 q 595 -69 575 -78 q 628 -13 614 -61 q 472 -14 541 -14 l 368 -14 q 132 56 200 -14 q 93 254 63 126 l 241 899 l 739 899 l 594 270 q 595 222 586 234 q 630 210 604 210 q 668 222 653 210 q 690 270 682 234 l 836 899 m 857 1261 l 946 972 l 693 972 l 604 1261 l 857 1261 z "},"―":{"ha":982,"x_min":133,"x_max":1110,"o":"m 196 702 l 1110 702 l 1047 428 l 133 428 l 196 702 z "},"‗":{"ha":951,"x_min":-48,"x_max":898,"o":"m 15 -83 l 898 -83 l 835 -357 l -48 -357 l 15 -83 z "},"‛":{"ha":398,"x_min":343,"x_max":696,"o":"m 525 1221 q 581 1201 536 1214 l 572 1157 q 390 1242 416 1203 l 384 1265 q 375 1264 359 1285 q 356 1295 362 1281 q 352 1309 353 1303 q 351 1375 343 1339 q 425 1485 366 1437 q 554 1532 482 1532 q 662 1482 624 1532 q 682 1375 696 1436 q 613 1267 667 1312 q 525 1221 558 1223 z "},"′":{"ha":440,"x_min":298,"x_max":753,"o":"m 753 1503 l 454 1143 l 298 1143 l 497 1503 l 753 1503 z "},"″":{"ha":695,"x_min":298,"x_max":1008,"o":"m 753 1503 l 454 1143 l 298 1143 l 497 1503 l 753 1503 m 1008 1503 l 710 1143 l 553 1143 l 753 1503 l 1008 1503 z "},"‼":{"ha":977,"x_min":73,"x_max":1204,"o":"m 585 460 l 141 460 l 296 1136 l 740 1136 l 585 460 m 347 395 q 485 332 437 395 q 511 194 530 274 q 420 55 493 114 q 255 -7 344 -7 q 119 53 165 -7 q 91 194 73 113 q 185 335 110 274 q 347 395 259 395 m 1049 460 l 606 460 l 761 1136 l 1204 1136 l 1049 460 m 811 395 q 949 332 901 395 q 975 194 994 274 q 884 55 957 114 q 719 -7 808 -7 q 583 53 629 -7 q 555 194 537 113 q 649 335 574 274 q 811 395 723 395 z "},"‾":{"ha":870,"x_min":255,"x_max":1120,"o":"m 318 1231 l 1120 1231 l 1057 957 l 255 957 l 318 1231 z "},"ⁿ":{"ha":642,"x_min":186,"x_max":853,"o":"m 186 660 l 296 1136 l 690 1136 q 816 1102 779 1139 q 838 997 853 1064 l 760 660 l 489 660 l 565 989 q 555 1016 571 1016 q 543 1011 548 1016 q 533 989 537 1007 l 457 660 l 186 660 z "},"₣":{"ha":1102,"x_min":63,"x_max":1330,"o":"m 651 128 l 620 -7 l 131 -8 l 162 128 l 63 128 l 108 320 l 207 320 l 395 1136 l 1330 1136 l 1267 862 l 821 862 l 783 702 l 1188 702 l 1125 428 l 720 428 l 695 320 l 805 320 l 761 128 l 651 128 z "},"₤":{"ha":1071,"x_min":97,"x_max":1251,"o":"m 697 311 q 672 266 687 289 l 1098 267 l 1035 -8 l 97 -8 l 159 261 l 163 261 l 163 262 q 213 311 197 291 l 105 311 l 136 444 l 274 444 q 263 493 275 465 q 272 495 299 416 l 148 495 l 179 628 l 231 628 q 232 728 227 676 l 231 728 l 266 882 q 375 1079 298 1020 q 608 1136 448 1136 l 1022 1136 q 1142 1122 1095 1136 q 1220 1074 1195 1107 q 1248 995 1245 1043 q 1236 882 1251 948 l 1189 680 l 747 680 l 780 821 q 780 876 788 860 q 759 886 775 886 q 727 872 740 886 q 706 821 714 860 l 688 746 l 689 746 q 695 628 676 699 l 848 628 l 818 495 l 733 495 q 735 444 738 470 l 806 444 l 775 311 l 697 311 z "},"₧":{"ha":2848,"x_min":32,"x_max":2985,"o":"m 721 865 l 682 865 l 613 565 l 650 565 q 684 579 670 565 q 708 637 697 594 l 743 792 q 746 850 753 836 q 721 865 740 865 m 32 -8 l 296 1136 l 990 1136 q 1116 1121 1065 1136 q 1193 1075 1166 1106 q 1224 996 1220 1043 q 1213 885 1228 949 l 1141 574 q 1031 358 1106 420 q 796 293 954 293 l 550 293 l 480 -8 l 32 -8 m 1295 785 l 1376 1136 l 1870 1136 l 1789 785 l 1917 785 l 1873 598 l 1746 598 l 1606 -8 l 1112 -8 l 1252 598 l 1134 598 l 1177 785 l 1295 785 m 2860 200 q 2821 103 2847 143 q 2750 37 2795 64 q 2640 0 2704 11 q 2489 -11 2576 -11 l 2039 -11 q 1892 0 1951 -11 q 1800 37 1833 11 q 1760 103 1767 62 q 1766 200 1753 143 l 1793 318 l 2293 318 l 2274 236 q 2307 176 2260 176 q 2345 189 2331 176 q 2367 236 2359 201 l 2373 259 q 2295 339 2386 314 l 2044 404 q 1885 479 1922 437 q 1868 602 1849 520 l 1887 685 q 1926 782 1900 742 q 1997 848 1951 822 q 2107 885 2042 874 q 2258 896 2171 896 l 2698 896 q 2844 885 2785 896 q 2937 847 2904 874 q 2977 781 2970 821 q 2972 685 2985 741 l 2956 617 l 2461 617 l 2468 648 q 2435 707 2482 707 q 2399 696 2415 707 q 2379 666 2383 686 q 2377 642 2376 652 q 2387 624 2378 632 q 2417 608 2396 616 q 2476 590 2438 600 l 2665 540 q 2861 449 2816 499 q 2884 307 2906 401 l 2860 200 z "},"℅":{"ha":1287,"x_min":18,"x_max":1514,"o":"m 1514 1278 l 190 -69 l 18 -69 l 1342 1278 l 1514 1278 m 947 81 q 853 111 877 81 q 846 197 832 136 l 904 446 q 952 524 916 497 q 1056 551 989 551 l 1247 551 q 1306 544 1281 551 q 1344 524 1330 537 q 1359 491 1357 510 q 1356 446 1362 471 l 1298 197 q 1250 110 1284 135 q 1138 81 1213 81 l 947 81 m 1114 407 l 1071 220 q 1069 201 1067 204 q 1072 197 1071 197 q 1077 201 1074 197 q 1084 220 1080 204 l 1127 407 q 1126 431 1133 431 q 1122 428 1125 431 q 1114 407 1118 424 m 735 891 l 713 796 q 696 752 707 771 q 666 720 686 733 q 621 700 647 706 q 562 693 595 693 l 380 693 q 293 720 316 693 q 281 796 270 746 l 338 1040 q 355 1089 344 1068 q 384 1124 366 1109 q 428 1145 402 1139 q 486 1152 454 1152 l 668 1152 q 726 1146 702 1152 q 762 1124 751 1139 q 769 1040 783 1098 l 754 974 l 544 974 l 553 1014 q 555 1034 556 1030 q 553 1037 553 1037 q 549 1034 552 1037 q 542 1014 546 1030 l 500 832 q 498 813 497 816 q 500 809 500 809 q 511 832 506 809 l 525 891 l 735 891 z "},"ℓ":{"ha":669,"x_min":93,"x_max":842,"o":"m 434 391 q 320 152 336 200 q 306 127 311 124 q 352 179 311 127 q 422 221 385 221 q 460 172 476 221 q 369 51 441 112 q 219 -10 297 -10 q 131 42 151 -10 q 151 212 112 93 q 165 230 168 236 q 136 218 151 218 q 102 236 112 218 q 99 275 93 254 q 137 323 106 298 q 223 395 199 375 q 471 810 340 632 q 730 987 603 987 q 821 942 800 987 q 822 836 842 898 q 434 391 759 637 m 539 607 q 596 682 532 601 q 680 826 660 764 q 693 857 689 857 q 539 607 664 857 z "},"№":{"ha":2056,"x_min":32,"x_max":2193,"o":"m 32 -8 l 296 1136 l 825 1136 l 903 742 l 994 1136 l 1489 1136 l 1225 -8 l 718 -8 l 632 450 l 526 -8 l 32 -8 m 1778 677 l 1714 399 q 1731 361 1705 361 q 1752 369 1744 361 q 1766 399 1761 376 l 1830 677 q 1812 714 1839 714 q 1792 707 1800 714 q 1778 677 1784 700 m 1437 702 q 1463 768 1446 741 q 1512 814 1480 795 q 1588 839 1544 832 q 1692 847 1632 847 l 1995 847 q 2095 839 2054 847 q 2159 813 2136 832 q 2188 767 2183 794 q 2184 702 2193 739 l 2108 375 q 2082 309 2100 336 q 2032 263 2065 282 q 1956 237 2000 245 q 1852 230 1912 230 l 1549 230 q 1449 237 1490 230 q 1385 263 1408 245 q 1357 309 1362 281 q 1361 375 1352 336 l 1437 702 m 2057 188 l 2012 -7 l 1289 -7 l 1333 188 l 2057 188 z "},"¤":{"ha":1088,"x_min":65,"x_max":1247,"o":"m 65 126 l 255 281 q 241 488 214 369 q 351 695 269 609 l 231 852 l 407 995 l 529 837 q 755 893 622 893 q 944 838 878 893 l 1137 994 l 1247 852 l 1057 697 q 1073 488 1100 603 q 963 282 1046 370 l 1083 126 l 908 -17 l 787 140 q 563 83 692 83 q 368 140 440 83 l 174 -16 l 65 126 m 828 488 q 807 616 845 565 q 698 668 768 668 q 568 616 631 668 q 487 488 505 565 q 509 359 469 411 q 615 308 548 308 q 747 359 683 308 q 828 488 810 411 z "},"Ș":{"ha":1168,"x_min":58,"x_max":1371,"o":"m 341 -9 q 123 47 189 -9 q 89 227 58 103 l 136 433 l 647 433 l 627 348 q 652 278 611 278 q 686 294 671 278 q 712 354 701 309 q 719 396 718 380 q 715 423 720 413 q 699 442 710 434 q 664 459 687 450 l 371 578 q 232 672 261 622 q 223 806 203 723 l 250 923 q 364 1081 273 1026 q 608 1136 455 1136 l 1087 1136 q 1305 1081 1240 1136 q 1347 923 1371 1026 l 1316 786 l 808 786 l 813 807 q 784 873 828 873 q 755 862 769 873 q 735 828 741 851 q 733 808 732 815 q 739 793 733 800 q 758 779 745 787 q 795 761 771 771 l 1138 615 q 1195 579 1173 600 q 1227 531 1217 559 q 1235 465 1237 503 q 1221 376 1233 427 l 1193 255 q 1069 51 1157 110 q 821 -9 981 -9 l 341 -9 m 561 -84 q 656 -127 623 -84 q 674 -218 686 -165 q 609 -314 662 -271 q 498 -353 561 -353 q 405 -313 436 -353 q 387 -218 374 -272 q 447 -127 399 -165 q 561 -84 499 -84 z "},"ș":{"ha":1161,"x_min":67,"x_max":1298,"o":"m 1174 200 q 1135 103 1160 143 q 1064 37 1109 64 q 954 0 1018 11 q 802 -11 889 -11 l 352 -11 q 206 0 265 -11 q 114 37 147 11 q 74 103 81 62 q 80 200 67 143 l 107 318 l 606 318 l 587 236 q 621 176 574 176 q 659 189 644 176 q 681 236 673 201 l 687 259 q 609 339 700 314 l 357 404 q 199 479 235 437 q 181 602 162 520 l 200 685 q 239 782 214 742 q 311 848 265 822 q 420 885 356 874 q 572 896 485 896 l 1012 896 q 1158 885 1099 896 q 1251 847 1217 874 q 1291 781 1284 821 q 1285 685 1298 741 l 1270 617 l 775 617 l 782 648 q 749 707 795 707 q 713 696 729 707 q 692 666 697 686 q 691 642 689 652 q 701 624 692 632 q 731 608 710 616 q 790 590 752 600 l 979 540 q 1174 449 1130 499 q 1198 307 1220 401 l 1174 200 m 561 -84 q 656 -127 623 -84 q 674 -218 686 -165 q 609 -314 662 -271 q 498 -353 561 -353 q 405 -313 436 -353 q 387 -218 374 -272 q 447 -127 399 -165 q 561 -84 499 -84 z "},"Ț":{"ha":1075,"x_min":233,"x_max":1303,"o":"m 279 -8 l 480 862 l 233 862 l 296 1136 l 1303 1136 l 1240 862 l 993 862 l 792 -8 l 279 -8 m 420 -371 q 361 -329 393 -369 q 343 -229 330 -287 q 407 -131 356 -173 q 528 -85 463 -85 q 628 -127 595 -85 q 649 -229 662 -172 q 621 -290 641 -262 q 611 -302 617 -295 q 573 -329 599 -316 q 572 -330 572 -330 l 555 -353 q 352 -430 516 -387 l 362 -389 q 420 -371 410 -376 z "},"ț":{"ha":807,"x_min":150,"x_max":955,"o":"m 333 785 l 414 1136 l 908 1136 l 827 785 l 955 785 l 911 598 l 784 598 l 644 -8 l 150 -8 l 290 598 l 172 598 l 215 785 l 333 785 m 267 -371 q 208 -329 240 -369 q 190 -229 177 -287 q 254 -131 203 -173 q 375 -85 310 -85 q 475 -127 442 -85 q 496 -229 509 -172 q 468 -290 488 -262 q 458 -302 465 -295 q 420 -329 446 -316 q 419 -330 419 -330 l 402 -353 q 199 -430 363 -387 l 209 -389 q 267 -371 257 -376 z "},"≈":{"ha":803,"x_min":97,"x_max":999,"o":"m 866 418 q 493 370 664 305 q 97 275 322 435 l 162 555 q 556 644 384 709 q 929 692 729 579 l 866 418 m 935 718 q 563 671 733 605 q 167 576 392 736 l 231 856 q 626 945 453 1009 q 999 993 798 880 l 935 718 z "},"Ѝ":{"ha":1261,"x_min":32,"x_max":1489,"o":"m 731 -8 l 837 450 l 539 -8 l 32 -8 l 296 1136 l 791 1136 l 700 742 l 960 1136 l 1489 1136 l 1225 -8 l 731 -8 m 965 1502 l 1054 1213 l 801 1213 l 711 1502 l 965 1502 z "},"ѝ":{"ha":1261,"x_min":32,"x_max":1435,"o":"m 731 -8 l 815 355 l 538 -8 l 32 -8 l 241 899 l 736 899 l 664 586 l 906 899 l 1435 899 l 1225 -8 l 731 -8 m 909 1261 l 998 972 l 745 972 l 656 1261 l 909 1261 z "},"ѐ":{"ha":1161,"x_min":67,"x_max":1298,"o":"m 1174 200 q 1135 103 1160 143 q 1064 37 1109 64 q 954 0 1018 11 q 802 -11 889 -11 l 352 -11 q 206 0 265 -11 q 114 37 147 11 q 74 103 81 62 q 80 200 67 143 l 192 685 q 231 782 205 742 q 301 848 257 822 q 410 885 346 874 q 562 896 475 896 l 1012 896 q 1158 885 1099 896 q 1251 847 1217 874 q 1291 781 1284 821 q 1285 685 1298 741 l 1222 409 l 627 409 l 587 236 q 621 176 574 176 q 659 189 644 176 q 681 236 673 201 l 710 358 l 1210 358 l 1174 200 m 679 648 l 664 585 l 767 585 l 782 648 q 745 714 797 714 q 703 700 719 714 q 679 648 687 687 m 859 1259 l 948 970 l 695 970 l 606 1259 l 859 1259 z "},"ª":{"ha":798,"x_min":195,"x_max":1004,"o":"m 604 748 l 620 816 l 601 811 q 564 793 575 803 q 547 760 552 783 l 544 748 q 565 714 536 714 q 590 721 581 714 q 604 748 599 727 m 647 947 l 656 985 q 656 1014 662 1008 q 635 1019 651 1019 q 613 1013 621 1019 q 600 985 605 1007 l 594 959 l 266 959 l 276 1006 q 301 1065 284 1040 q 350 1106 318 1090 q 424 1129 381 1123 q 525 1136 467 1136 l 807 1136 q 906 1129 865 1136 q 969 1106 946 1123 q 998 1064 993 1089 q 996 1006 1004 1039 l 899 585 l 401 585 q 242 626 290 584 q 213 775 195 668 q 481 947 267 942 l 647 947 z "},"¬":{"ha":967,"x_min":196,"x_max":1154,"o":"m 807 702 l 196 702 l 255 955 l 1154 955 l 1057 535 l 768 535 l 807 702 z "},"º":{"ha":699,"x_min":197,"x_max":906,"o":"m 558 990 l 505 757 q 517 727 498 727 q 533 732 526 727 q 543 757 539 738 l 597 990 q 585 1020 604 1020 q 569 1014 576 1020 q 558 990 563 1009 m 268 1011 q 290 1066 275 1043 q 332 1105 304 1089 q 397 1127 359 1121 q 484 1134 434 1134 l 738 1134 q 823 1127 788 1134 q 878 1105 858 1121 q 902 1065 898 1088 q 899 1011 906 1042 l 836 736 q 813 681 828 704 q 771 643 799 659 q 706 620 744 627 q 618 614 668 614 l 364 614 q 279 620 314 614 q 225 642 244 627 q 201 681 205 658 q 204 736 197 704 l 268 1011 z "},"Ѐ":{"ha":1003,"x_min":32,"x_max":1231,"o":"m 32 -8 l 296 1136 l 1231 1136 l 1168 862 l 722 862 l 684 702 l 1089 702 l 1026 428 l 621 428 l 584 266 l 1030 266 l 967 -8 l 32 -8 m 836 1502 l 925 1213 l 672 1213 l 583 1502 l 836 1502 z "},"ƒ":{"ha":930,"x_min":-15,"x_max":1129,"o":"m 526 744 l 605 744 q 759 946 668 872 q 999 1020 849 1020 q 1129 1007 1051 1020 l 1032 815 q 958 828 981 828 q 900 813 920 828 q 855 744 881 798 l 979 744 l 881 548 l 758 548 l 508 57 q 404 -103 455 -49 q 273 -188 354 -157 q 104 -219 192 -219 q -15 -211 73 -219 l 84 -15 q 163 -24 146 -24 q 207 -16 191 -24 q 232 3 222 -9 q 264 60 242 15 l 507 548 l 422 548 l 526 744 z "},"π":{"ha":1147,"x_min":37,"x_max":1312,"o":"m 1103 -8 l 611 -8 l 770 681 l 688 681 l 529 -8 l 37 -8 l 244 888 l 247 899 l 1312 899 l 1310 888 l 1103 -8 z "},"Ά":{"ha":1398,"x_min":213,"x_max":1407,"o":"m 706 1139 l 484 850 l 230 850 l 452 1139 l 706 1139 m 872 502 l 937 502 l 961 748 l 872 502 m 213 -8 l 696 1136 l 1407 1136 l 1362 -8 l 867 -8 l 895 236 l 790 236 l 707 -8 l 213 -8 z "}}}
